M48
INCH,LZ
;FILE_FORMAT=2:4
;TYPE=PLATED
;Layer: PTH_Through
;EasyEDA v6.5.23, 2023-09-23 11:22:25
;fbaf7024bf8343fa847bd74e200e9744,10
;Gerber Generator version 0.2
;Holesize 1 = 0.0390 inch
T01C0.0390
;Holesize 2 = 0.0430 inch
T02C0.0430
;Holesize 3 = 0.0470 inch
T03C0.0470
%
G05
G90
T01
X-045000Y-018425
X-045000Y-021575
X-041000Y-018425
X-041000Y-021575
X-037000Y-018425
X-037000Y-021575
X-033000Y-018425
X-033000Y-021575
X-029000Y-018425
X-029000Y-021575
X-025000Y-018425
X-025000Y-021575
X-021000Y-018425
X-021000Y-021575
X-017000Y-018425
X-017000Y-021575
X-013000Y-018425
X-013000Y-021575
X-009000Y-018425
X-009000Y-021575
X-005000Y-018425
X-005000Y-021575
X-001000Y-018425
X-001000Y-021575
X-045000Y-003425
X-045000Y-006575
X-041000Y-003425
X-041000Y-006575
X-037000Y-003425
X-037000Y-006575
X-033000Y-003425
X-033000Y-006575
X-029000Y-003425
X-029000Y-006575
X-025000Y-003425
X-025000Y-006575
X-021000Y-003425
X-021000Y-006575
X-017000Y-003425
X-017000Y-006575
X-013000Y-003425
X-013000Y-006575
X-009000Y-003425
X-009000Y-006575
X-005000Y-003425
X-005000Y-006575
X-001000Y-003425
X-001000Y-006575
X-045000Y-008425
X-045000Y-011575
X-041000Y-008425
X-041000Y-011575
X-037000Y-008425
X-037000Y-011575
X-033000Y-008425
X-033000Y-011575
X-029000Y-008425
X-029000Y-011575
X-025000Y-008425
X-025000Y-011575
X-021000Y-008425
X-021000Y-011575
X-017000Y-008425
X-017000Y-011575
X-013000Y-008425
X-013000Y-011575
X-009000Y-008425
X-009000Y-011575
X-005000Y-008425
X-005000Y-011575
X-001000Y-008425
X-001000Y-011575
X-045000Y-013425
X-045000Y-016575
X-041000Y-013425
X-041000Y-016575
X-037000Y-013425
X-037000Y-016575
X-033000Y-013425
X-033000Y-016575
X-029000Y-013425
X-029000Y-016575
X-025000Y-013425
X-025000Y-016575
X-021000Y-013425
X-021000Y-016575
X-017000Y-013425
X-017000Y-016575
X-013000Y-013425
X-013000Y-016575
X-009000Y-013425
X-009000Y-016575
X-005000Y-013425
X-005000Y-016575
X-001000Y-013425
X-001000Y-016575
X-045000Y001575
X-045000Y-001575
X-041000Y001575
X-041000Y-001575
X-037000Y001575
X-037000Y-001575
X-033000Y001575
X-033000Y-001575
X-029000Y001575
X-029000Y-001575
X-025000Y001575
X-025000Y-001575
X-021000Y001575
X-021000Y-001575
X-013000Y001575
X-013000Y-001575
X-009000Y001575
X-009000Y-001575
X-005000Y001575
X-005000Y-001575
X-001000Y001575
X-001000Y-001575
X-017000Y001575
X-017000Y-001575
T02
X-047901Y008900G85X-047899Y008900
X-036901Y002900G85X-036899Y002900
X-046901Y008900G85X-046899Y008900
X-045901Y008900G85X-045899Y008900
X-044901Y008900G85X-044899Y008900
X-043901Y008900G85X-043899Y008900
X-042901Y008900G85X-042899Y008900
X-041901Y008900G85X-041899Y008900
X-040901Y008900G85X-040899Y008900
X-039901Y008900G85X-039899Y008900
X-038901Y008900G85X-038899Y008900
X-037901Y008900G85X-037899Y008900
X-036901Y008900G85X-036899Y008900
X-037901Y002900G85X-037899Y002900
X-038901Y002900G85X-038899Y002900
X-039901Y002900G85X-039899Y002900
X-040901Y002900G85X-040899Y002900
X-041901Y002900G85X-041899Y002900
X-042901Y002900G85X-042899Y002900
X-043901Y002900G85X-043899Y002900
X-044901Y002900G85X-044899Y002900
X-045901Y002900G85X-045899Y002900
X-046901Y002900G85X-046899Y002900
X-047901Y002900G85X-047899Y002900
T03
X-046114Y-021280
X-046114Y-018720
X-047886Y-018720
X-047886Y-021280
X-042114Y-021280
X-042114Y-018720
X-043886Y-018720
X-043886Y-021280
X-038114Y-021280
X-038114Y-018720
X-039886Y-018720
X-039886Y-021280
X-034114Y-021280
X-034114Y-018720
X-035886Y-018720
X-035886Y-021280
X-030114Y-021280
X-030114Y-018720
X-031886Y-018720
X-031886Y-021280
X-026114Y-021280
X-026114Y-018720
X-027886Y-018720
X-027886Y-021280
X-022114Y-021280
X-022114Y-018720
X-023886Y-018720
X-023886Y-021280
X-018114Y-021280
X-018114Y-018720
X-019886Y-018720
X-019886Y-021280
X-014114Y-021280
X-014114Y-018720
X-015886Y-018720
X-015886Y-021280
X-010114Y-021280
X-010114Y-018720
X-011886Y-018720
X-011886Y-021280
X-006114Y-021280
X-006114Y-018720
X-007886Y-018720
X-007886Y-021280
X-002114Y-021280
X-002114Y-018720
X-003886Y-018720
X-003886Y-021280
X-046114Y-006280
X-046114Y-003720
X-047886Y-003720
X-047886Y-006280
X-042114Y-006280
X-042114Y-003720
X-043886Y-003720
X-043886Y-006280
X-038114Y-006280
X-038114Y-003720
X-039886Y-003720
X-039886Y-006280
X-034114Y-006280
X-034114Y-003720
X-035886Y-003720
X-035886Y-006280
X-030114Y-006280
X-030114Y-003720
X-031886Y-003720
X-031886Y-006280
X-026114Y-006280
X-026114Y-003720
X-027886Y-003720
X-027886Y-006280
X-022114Y-006280
X-022114Y-003720
X-023886Y-003720
X-023886Y-006280
X-018114Y-006280
X-018114Y-003720
X-019886Y-003720
X-019886Y-006280
X-014114Y-006280
X-014114Y-003720
X-015886Y-003720
X-015886Y-006280
X-010114Y-006280
X-010114Y-003720
X-011886Y-003720
X-011886Y-006280
X-006114Y-006280
X-006114Y-003720
X-007886Y-003720
X-007886Y-006280
X-002114Y-006280
X-002114Y-003720
X-003886Y-003720
X-003886Y-006280
X-046114Y-011280
X-046114Y-008720
X-047886Y-008720
X-047886Y-011280
X-042114Y-011280
X-042114Y-008720
X-043886Y-008720
X-043886Y-011280
X-038114Y-011280
X-038114Y-008720
X-039886Y-008720
X-039886Y-011280
X-034114Y-011280
X-034114Y-008720
X-035886Y-008720
X-035886Y-011280
X-030114Y-011280
X-030114Y-008720
X-031886Y-008720
X-031886Y-011280
X-026114Y-011280
X-026114Y-008720
X-027886Y-008720
X-027886Y-011280
X-022114Y-011280
X-022114Y-008720
X-023886Y-008720
X-023886Y-011280
X-018114Y-011280
X-018114Y-008720
X-019886Y-008720
X-019886Y-011280
X-014114Y-011280
X-014114Y-008720
X-015886Y-008720
X-015886Y-011280
X-010114Y-011280
X-010114Y-008720
X-011886Y-008720
X-011886Y-011280
X-006114Y-011280
X-006114Y-008720
X-007886Y-008720
X-007886Y-011280
X-002114Y-011280
X-002114Y-008720
X-003886Y-008720
X-003886Y-011280
X-046114Y-016280
X-046114Y-013720
X-047886Y-013720
X-047886Y-016280
X-042114Y-016280
X-042114Y-013720
X-043886Y-013720
X-043886Y-016280
X-038114Y-016280
X-038114Y-013720
X-039886Y-013720
X-039886Y-016280
X-034114Y-016280
X-034114Y-013720
X-035886Y-013720
X-035886Y-016280
X-030114Y-016280
X-030114Y-013720
X-031886Y-013720
X-031886Y-016280
X-026114Y-016280
X-026114Y-013720
X-027886Y-013720
X-027886Y-016280
X-022114Y-016280
X-022114Y-013720
X-023886Y-013720
X-023886Y-016280
X-018114Y-016280
X-018114Y-013720
X-019886Y-013720
X-019886Y-016280
X-014114Y-016280
X-014114Y-013720
X-015886Y-013720
X-015886Y-016280
X-010114Y-016280
X-010114Y-013720
X-011886Y-013720
X-011886Y-016280
X-006114Y-016280
X-006114Y-013720
X-007886Y-013720
X-007886Y-016280
X-002114Y-016280
X-002114Y-013720
X-003886Y-013720
X-003886Y-016280
X-046114Y-001280
X-046114Y001280
X-047886Y001280
X-047886Y-001280
X-042114Y-001280
X-042114Y001280
X-043886Y001280
X-043886Y-001280
X-038114Y-001280
X-038114Y001280
X-039886Y001280
X-039886Y-001280
X-034114Y-001280
X-034114Y001280
X-035886Y001280
X-035886Y-001280
X-030114Y-001280
X-030114Y001280
X-031886Y001280
X-031886Y-001280
X-026114Y-001280
X-026114Y001280
X-027886Y001280
X-027886Y-001280
X-022114Y-001280
X-022114Y001280
X-023886Y001280
X-023886Y-001280
X-018114Y-001280
X-018114Y001280
X-019886Y001280
X-019886Y-001280
X-014114Y-001280
X-014114Y001280
X-015886Y001280
X-015886Y-001280
X-010114Y-001280
X-010114Y001280
X-011886Y001280
X-011886Y-001280
X-006114Y-001280
X-006114Y001280
X-007886Y001280
X-007886Y-001280
X-002114Y-001280
X-002114Y001280
X-003886Y001280
X-003886Y-001280
M30
