G04 Layer: TopLayer*
G04 EasyEDA v6.5.23, 2023-09-23 11:22:25*
G04 fbaf7024bf8343fa847bd74e200e9744,10*
G04 Gerber Generator version 0.2*
G04 Scale: 100 percent, Rotated: No, Reflected: No *
G04 Dimensions in inches *
G04 leading zeros omitted , absolute positions ,3 integer and 6 decimal *
%FSLAX36Y36*%
%MOIN*%

%AMMACRO1*21,1,$1,$2,0,0,$3*%
%ADD10C,0.0100*%
%ADD11MACRO1,0.0542X0.0446X-90.0000*%
%ADD12MACRO1,0.0542X0.0446X90.0000*%
%ADD13C,0.0709*%
%ADD14C,0.0787*%
%ADD15C,0.0690*%
%ADD16R,0.0690X0.0690*%
%ADD17R,0.0194X0.0690*%

%LPD*%
D10*
X-3460600Y290000D02*
G01*
X-3460600Y410599D01*
X-3545000Y495000D01*
X-4860000Y495000D01*
X-4860000Y-56500D01*
X-4788600Y-127899D01*
X-3339399Y290000D02*
G01*
X-3340000Y370000D01*
X-3190000Y370000D01*
X-3190000Y265000D01*
X-3250000Y205000D01*
X-4840000Y205000D01*
X-4840000Y5000D01*
X-4730000Y-105000D01*
X-4730000Y-155000D01*
X-4845000Y-270000D01*
X-4845000Y-571500D01*
X-4788600Y-627899D01*
X-4690000Y290000D02*
G01*
X-4565000Y415000D01*
X-3580000Y415000D01*
X-3580000Y240000D01*
X-3310600Y240000D01*
X-3260600Y290000D01*
X-3539369Y290000D02*
G01*
X-3539369Y440000D01*
X-4790000Y290000D02*
G01*
X-4640000Y440000D01*
X-3540000Y440000D01*
X-211419Y127950D02*
G01*
X-129530Y127950D01*
X-100000Y157480D01*
X-611419Y127950D02*
G01*
X-529530Y127950D01*
X-500000Y157480D01*
X-1011419Y127950D02*
G01*
X-929530Y127950D01*
X-900000Y157480D01*
X-1411419Y127950D02*
G01*
X-1329530Y127950D01*
X-1300000Y157480D01*
X-1811419Y127950D02*
G01*
X-1729530Y127950D01*
X-1700000Y157480D01*
X-2211419Y127950D02*
G01*
X-2129530Y127950D01*
X-2100000Y157480D01*
X-2611419Y127950D02*
G01*
X-2529530Y127950D01*
X-2500000Y157480D01*
X-3011419Y127950D02*
G01*
X-2929530Y127950D01*
X-2900000Y157480D01*
X-3411419Y127950D02*
G01*
X-3329530Y127950D01*
X-3300000Y157480D01*
X-3811419Y127950D02*
G01*
X-3729530Y127950D01*
X-3700000Y157480D01*
X-4211419Y127950D02*
G01*
X-4129530Y127950D01*
X-4100000Y157480D01*
X-4611419Y127950D02*
G01*
X-4529530Y127950D01*
X-4500000Y157480D01*
X-4611419Y-372049D02*
G01*
X-4529530Y-372049D01*
X-4500000Y-342519D01*
X-4211419Y-372049D02*
G01*
X-4129530Y-372049D01*
X-4100000Y-342519D01*
X-3811419Y-372049D02*
G01*
X-3729530Y-372049D01*
X-3700000Y-342519D01*
X-3411419Y-372049D02*
G01*
X-3329530Y-372049D01*
X-3300000Y-342519D01*
X-3011419Y-372049D02*
G01*
X-2929530Y-372049D01*
X-2900000Y-342519D01*
X-2611419Y-372049D02*
G01*
X-2529530Y-372049D01*
X-2500000Y-342519D01*
X-2211419Y-372049D02*
G01*
X-2129530Y-372049D01*
X-2100000Y-342519D01*
X-1811419Y-372049D02*
G01*
X-1729530Y-372049D01*
X-1700000Y-342519D01*
X-1411419Y-372049D02*
G01*
X-1329530Y-372049D01*
X-1300000Y-342519D01*
X-1011419Y-372049D02*
G01*
X-929530Y-372049D01*
X-900000Y-342519D01*
X-611419Y-372049D02*
G01*
X-529530Y-372049D01*
X-500000Y-342519D01*
X-211419Y-372049D02*
G01*
X-129530Y-372049D01*
X-100000Y-342519D01*
X-211419Y-872049D02*
G01*
X-129530Y-872049D01*
X-100000Y-842519D01*
X-611419Y-872049D02*
G01*
X-529530Y-872049D01*
X-500000Y-842519D01*
X-1011419Y-872049D02*
G01*
X-929530Y-872049D01*
X-900000Y-842519D01*
X-1411419Y-872049D02*
G01*
X-1329530Y-872049D01*
X-1300000Y-842519D01*
X-1811419Y-872049D02*
G01*
X-1729530Y-872049D01*
X-1700000Y-842519D01*
X-2211419Y-872049D02*
G01*
X-2129530Y-872049D01*
X-2100000Y-842519D01*
X-2611419Y-872049D02*
G01*
X-2529530Y-872049D01*
X-2500000Y-842519D01*
X-3011419Y-872049D02*
G01*
X-2929530Y-872049D01*
X-2900000Y-842519D01*
X-3411419Y-872049D02*
G01*
X-3329530Y-872049D01*
X-3300000Y-842519D01*
X-3811419Y-872049D02*
G01*
X-3729530Y-872049D01*
X-3700000Y-842519D01*
X-4211419Y-872049D02*
G01*
X-4129530Y-872049D01*
X-4100000Y-842519D01*
X-4611419Y-872049D02*
G01*
X-4529530Y-872049D01*
X-4500000Y-842519D01*
X-4611419Y-1372049D02*
G01*
X-4529530Y-1372049D01*
X-4500000Y-1342519D01*
X-4211419Y-1372049D02*
G01*
X-4129530Y-1372049D01*
X-4100000Y-1342519D01*
X-3811419Y-1372049D02*
G01*
X-3729530Y-1372049D01*
X-3700000Y-1342519D01*
X-3411419Y-1372049D02*
G01*
X-3329530Y-1372049D01*
X-3300000Y-1342519D01*
X-3011419Y-1372049D02*
G01*
X-2929530Y-1372049D01*
X-2900000Y-1342519D01*
X-2611419Y-1372049D02*
G01*
X-2529530Y-1372049D01*
X-2500000Y-1342519D01*
X-2211419Y-1372049D02*
G01*
X-2129530Y-1372049D01*
X-2100000Y-1342519D01*
X-1811419Y-1372049D02*
G01*
X-1729530Y-1372049D01*
X-1700000Y-1342519D01*
X-1411419Y-1372049D02*
G01*
X-1329530Y-1372049D01*
X-1300000Y-1342519D01*
X-1011419Y-1372049D02*
G01*
X-929530Y-1372049D01*
X-900000Y-1342519D01*
X-611419Y-1372049D02*
G01*
X-529530Y-1372049D01*
X-500000Y-1342519D01*
X-211419Y-1372049D02*
G01*
X-129530Y-1372049D01*
X-100000Y-1342519D01*
X-611419Y-1872049D02*
G01*
X-529530Y-1872049D01*
X-500000Y-1842519D01*
X-211419Y-1872049D02*
G01*
X-129530Y-1872049D01*
X-100000Y-1842519D01*
X-1011419Y-1872049D02*
G01*
X-929530Y-1872049D01*
X-900000Y-1842519D01*
X-1411419Y-1872049D02*
G01*
X-1329530Y-1872049D01*
X-1300000Y-1842519D01*
X-1811419Y-1872049D02*
G01*
X-1729530Y-1872049D01*
X-1700000Y-1842519D01*
X-2211419Y-1872049D02*
G01*
X-2129530Y-1872049D01*
X-2100000Y-1842519D01*
X-2611419Y-1872049D02*
G01*
X-2529530Y-1872049D01*
X-2500000Y-1842519D01*
X-3011419Y-1872049D02*
G01*
X-2929530Y-1872049D01*
X-2900000Y-1842519D01*
X-3411419Y-1872049D02*
G01*
X-3329530Y-1872049D01*
X-3300000Y-1842519D01*
X-3811419Y-1872049D02*
G01*
X-3729530Y-1872049D01*
X-3700000Y-1842519D01*
X-4211419Y-1872049D02*
G01*
X-4129530Y-1872049D01*
X-4100000Y-1842519D01*
X-4611419Y-1872049D02*
G01*
X-4529530Y-1872049D01*
X-4500000Y-1842519D01*
X-4788600Y127899D02*
G01*
X-4665599Y5000D01*
X-4385000Y5000D01*
X-4385000Y124400D01*
X-4388599Y127899D01*
X-4388580Y127950D02*
G01*
X-4265580Y5050D01*
X-3984979Y5050D01*
X-3984979Y124450D01*
X-3988580Y127950D01*
X-3988580Y127950D02*
G01*
X-3865580Y5050D01*
X-3584979Y5050D01*
X-3584979Y124450D01*
X-3588580Y127950D01*
X-3588580Y127950D02*
G01*
X-3465580Y5050D01*
X-3184979Y5050D01*
X-3184979Y124450D01*
X-3188580Y127950D01*
X-3188580Y127950D02*
G01*
X-3065580Y5050D01*
X-2784979Y5050D01*
X-2784979Y124450D01*
X-2788580Y127950D01*
X-2788580Y127950D02*
G01*
X-2665580Y5050D01*
X-2384979Y5050D01*
X-2384979Y124450D01*
X-2388580Y127950D01*
X-2388580Y127950D02*
G01*
X-2265580Y5050D01*
X-1984979Y5050D01*
X-1984979Y124450D01*
X-1988580Y127950D01*
X-1988580Y127950D02*
G01*
X-1865580Y5050D01*
X-1584979Y5050D01*
X-1584979Y124450D01*
X-1588580Y127950D01*
X-1588580Y127950D02*
G01*
X-1465580Y5050D01*
X-1184979Y5050D01*
X-1184979Y124450D01*
X-1188580Y127950D01*
X-1188580Y127950D02*
G01*
X-1065580Y5050D01*
X-784979Y5050D01*
X-784979Y124450D01*
X-788580Y127950D01*
X-788580Y127950D02*
G01*
X-665579Y5050D01*
X-384979Y5050D01*
X-384979Y124450D01*
X-388580Y127950D01*
X-4788600Y-372100D02*
G01*
X-4665700Y-495000D01*
X-4388599Y-495000D01*
X-4388599Y-372100D01*
X-4388580Y-372049D02*
G01*
X-4265680Y-494949D01*
X-3988580Y-494949D01*
X-3988580Y-372049D01*
X-3988580Y-372049D02*
G01*
X-3865680Y-494949D01*
X-3588580Y-494949D01*
X-3588580Y-372049D01*
X-3588580Y-372049D02*
G01*
X-3465680Y-494949D01*
X-3188580Y-494949D01*
X-3188580Y-372049D01*
X-3188580Y-372049D02*
G01*
X-3065680Y-494949D01*
X-2788580Y-494949D01*
X-2788580Y-372049D01*
X-2788580Y-372049D02*
G01*
X-2665680Y-494949D01*
X-2388580Y-494949D01*
X-2388580Y-372049D01*
X-2388580Y-372049D02*
G01*
X-2265680Y-494949D01*
X-1988580Y-494949D01*
X-1988580Y-372049D01*
X-1988580Y-372049D02*
G01*
X-1865680Y-494949D01*
X-1588580Y-494949D01*
X-1588580Y-372049D01*
X-1588580Y-372049D02*
G01*
X-1465680Y-494949D01*
X-1188580Y-494949D01*
X-1188580Y-372049D01*
X-1188580Y-372049D02*
G01*
X-1065680Y-494949D01*
X-788580Y-494949D01*
X-788580Y-372049D01*
X-788580Y-372049D02*
G01*
X-665680Y-494949D01*
X-388580Y-494949D01*
X-388580Y-372049D01*
X-4788600Y-872100D02*
G01*
X-4665599Y-995000D01*
X-4390000Y-995000D01*
X-4390000Y-873499D01*
X-4388599Y-872100D01*
X-4388580Y-872049D02*
G01*
X-4265580Y-994949D01*
X-3989979Y-994949D01*
X-3989979Y-873449D01*
X-3988580Y-872049D01*
X-3988580Y-872049D02*
G01*
X-3865580Y-994949D01*
X-3589979Y-994949D01*
X-3589979Y-873449D01*
X-3588580Y-872049D01*
X-3588580Y-872049D02*
G01*
X-3465580Y-994949D01*
X-3189979Y-994949D01*
X-3189979Y-873449D01*
X-3188580Y-872049D01*
X-3188580Y-872049D02*
G01*
X-3065580Y-994949D01*
X-2789979Y-994949D01*
X-2789979Y-873449D01*
X-2788580Y-872049D01*
X-2788580Y-872049D02*
G01*
X-2665580Y-994949D01*
X-2389979Y-994949D01*
X-2389979Y-873449D01*
X-2388580Y-872049D01*
X-2388580Y-872049D02*
G01*
X-2265580Y-994949D01*
X-1989979Y-994949D01*
X-1989979Y-873449D01*
X-1988580Y-872049D01*
X-1988580Y-872049D02*
G01*
X-1865580Y-994949D01*
X-1589979Y-994949D01*
X-1589979Y-873449D01*
X-1588580Y-872049D01*
X-1588580Y-872049D02*
G01*
X-1465580Y-994949D01*
X-1189979Y-994949D01*
X-1189979Y-873449D01*
X-1188580Y-872049D01*
X-1188580Y-872049D02*
G01*
X-1065580Y-994949D01*
X-789979Y-994949D01*
X-789979Y-873449D01*
X-788580Y-872049D01*
X-788580Y-872049D02*
G01*
X-665579Y-994949D01*
X-389979Y-994949D01*
X-389979Y-873449D01*
X-388580Y-872049D01*
X-4788600Y-1372100D02*
G01*
X-4665599Y-1495000D01*
X-4390000Y-1495000D01*
X-4390000Y-1373499D01*
X-4388599Y-1372100D01*
X-4388580Y-1372049D02*
G01*
X-4265580Y-1494949D01*
X-3989979Y-1494949D01*
X-3989979Y-1373449D01*
X-3988580Y-1372049D01*
X-3988580Y-1372049D02*
G01*
X-3865580Y-1494949D01*
X-3589979Y-1494949D01*
X-3589979Y-1373449D01*
X-3588580Y-1372049D01*
X-3588580Y-1372049D02*
G01*
X-3465580Y-1494949D01*
X-3189979Y-1494949D01*
X-3189979Y-1373449D01*
X-3188580Y-1372049D01*
X-3188580Y-1372049D02*
G01*
X-3065580Y-1494949D01*
X-2789979Y-1494949D01*
X-2789979Y-1373449D01*
X-2788580Y-1372049D01*
X-2788580Y-1372049D02*
G01*
X-2665580Y-1494949D01*
X-2389979Y-1494949D01*
X-2389979Y-1373449D01*
X-2388580Y-1372049D01*
X-2388580Y-1372049D02*
G01*
X-2265580Y-1494949D01*
X-1989979Y-1494949D01*
X-1989979Y-1373449D01*
X-1988580Y-1372049D01*
X-1988580Y-1372049D02*
G01*
X-1865580Y-1494949D01*
X-1589979Y-1494949D01*
X-1589979Y-1373449D01*
X-1588580Y-1372049D01*
X-1588580Y-1372049D02*
G01*
X-1465580Y-1494949D01*
X-1189979Y-1494949D01*
X-1189979Y-1373449D01*
X-1188580Y-1372049D01*
X-1188580Y-1372049D02*
G01*
X-1065580Y-1494949D01*
X-789979Y-1494949D01*
X-789979Y-1373449D01*
X-788580Y-1372049D01*
X-788580Y-1372049D02*
G01*
X-665579Y-1494949D01*
X-389979Y-1494949D01*
X-389979Y-1373449D01*
X-388580Y-1372049D01*
X-4788600Y-1872100D02*
G01*
X-4665599Y-1995000D01*
X-4385000Y-1995000D01*
X-4385000Y-1875599D01*
X-4388599Y-1872100D01*
X-4388580Y-1872049D02*
G01*
X-4265580Y-1994949D01*
X-3984979Y-1994949D01*
X-3984979Y-1875549D01*
X-3988580Y-1872049D01*
X-3988580Y-1872049D02*
G01*
X-3865580Y-1994949D01*
X-3584979Y-1994949D01*
X-3584979Y-1875549D01*
X-3588580Y-1872049D01*
X-3588580Y-1872049D02*
G01*
X-3465580Y-1994949D01*
X-3184979Y-1994949D01*
X-3184979Y-1875549D01*
X-3188580Y-1872049D01*
X-3188580Y-1872049D02*
G01*
X-3065580Y-1994949D01*
X-2784979Y-1994949D01*
X-2784979Y-1875549D01*
X-2788580Y-1872049D01*
X-2788580Y-1872049D02*
G01*
X-2665580Y-1994949D01*
X-2384979Y-1994949D01*
X-2384979Y-1875549D01*
X-2388580Y-1872049D01*
X-2388580Y-1872049D02*
G01*
X-2265580Y-1994949D01*
X-1984979Y-1994949D01*
X-1984979Y-1875549D01*
X-1988580Y-1872049D01*
X-1988580Y-1872049D02*
G01*
X-1865580Y-1994949D01*
X-1584979Y-1994949D01*
X-1584979Y-1875549D01*
X-1588580Y-1872049D01*
X-1588580Y-1872049D02*
G01*
X-1465580Y-1994949D01*
X-1184979Y-1994949D01*
X-1184979Y-1875549D01*
X-1188580Y-1872049D01*
X-1188580Y-1872049D02*
G01*
X-1065580Y-1994949D01*
X-784979Y-1994949D01*
X-784979Y-1875549D01*
X-788580Y-1872049D01*
X-788580Y-1872049D02*
G01*
X-665579Y-1994949D01*
X-384979Y-1994949D01*
X-384979Y-1875549D01*
X-388580Y-1872049D01*
D11*
G01*
X-3539371Y290000D03*
G01*
X-3460628Y290000D03*
D12*
G01*
X-3260628Y290000D03*
G01*
X-3339371Y290000D03*
D13*
G01*
X-4500000Y-1842519D03*
G01*
X-4500000Y-2157480D03*
G01*
X-4100000Y-1842519D03*
G01*
X-4100000Y-2157480D03*
G01*
X-3700000Y-1842519D03*
G01*
X-3700000Y-2157480D03*
G01*
X-3300000Y-1842519D03*
G01*
X-3300000Y-2157480D03*
G01*
X-2900000Y-1842519D03*
G01*
X-2900000Y-2157480D03*
G01*
X-2500000Y-1842519D03*
G01*
X-2500000Y-2157480D03*
G01*
X-2100000Y-1842519D03*
G01*
X-2100000Y-2157480D03*
G01*
X-1700000Y-1842519D03*
G01*
X-1700000Y-2157480D03*
G01*
X-1300000Y-1842519D03*
G01*
X-1300000Y-2157480D03*
G01*
X-900000Y-1842519D03*
G01*
X-900000Y-2157480D03*
G01*
X-500000Y-1842519D03*
G01*
X-500000Y-2157480D03*
G01*
X-100000Y-1842519D03*
G01*
X-100000Y-2157480D03*
D14*
G01*
X-4611419Y-2127950D03*
G01*
X-4611419Y-1872049D03*
G01*
X-4788580Y-1872049D03*
G01*
X-4788580Y-2127950D03*
G01*
X-4211419Y-2127950D03*
G01*
X-4211419Y-1872049D03*
G01*
X-4388580Y-1872049D03*
G01*
X-4388580Y-2127950D03*
G01*
X-3811419Y-2127950D03*
G01*
X-3811419Y-1872049D03*
G01*
X-3988580Y-1872049D03*
G01*
X-3988580Y-2127950D03*
G01*
X-3411419Y-2127950D03*
G01*
X-3411419Y-1872049D03*
G01*
X-3588580Y-1872049D03*
G01*
X-3588580Y-2127950D03*
G01*
X-3011419Y-2127950D03*
G01*
X-3011419Y-1872049D03*
G01*
X-3188580Y-1872049D03*
G01*
X-3188580Y-2127950D03*
G01*
X-2611419Y-2127950D03*
G01*
X-2611419Y-1872049D03*
G01*
X-2788580Y-1872049D03*
G01*
X-2788580Y-2127950D03*
G01*
X-2211419Y-2127950D03*
G01*
X-2211419Y-1872049D03*
G01*
X-2388580Y-1872049D03*
G01*
X-2388580Y-2127950D03*
G01*
X-1811419Y-2127950D03*
G01*
X-1811419Y-1872049D03*
G01*
X-1988580Y-1872049D03*
G01*
X-1988580Y-2127950D03*
G01*
X-1411419Y-2127950D03*
G01*
X-1411419Y-1872049D03*
G01*
X-1588580Y-1872049D03*
G01*
X-1588580Y-2127950D03*
G01*
X-1011419Y-2127950D03*
G01*
X-1011419Y-1872049D03*
G01*
X-1188580Y-1872049D03*
G01*
X-1188580Y-2127950D03*
G01*
X-611419Y-2127950D03*
G01*
X-611419Y-1872049D03*
G01*
X-788580Y-1872049D03*
G01*
X-788580Y-2127950D03*
G01*
X-211419Y-2127950D03*
G01*
X-211419Y-1872049D03*
G01*
X-388580Y-1872049D03*
G01*
X-388580Y-2127950D03*
D13*
G01*
X-4500000Y-342519D03*
G01*
X-4500000Y-657480D03*
G01*
X-4100000Y-342519D03*
G01*
X-4100000Y-657480D03*
G01*
X-3700000Y-342519D03*
G01*
X-3700000Y-657480D03*
G01*
X-3300000Y-342519D03*
G01*
X-3300000Y-657480D03*
G01*
X-2900000Y-342519D03*
G01*
X-2900000Y-657480D03*
G01*
X-2500000Y-342519D03*
G01*
X-2500000Y-657480D03*
G01*
X-2100000Y-342519D03*
G01*
X-2100000Y-657480D03*
G01*
X-1700000Y-342519D03*
G01*
X-1700000Y-657480D03*
G01*
X-1300000Y-342519D03*
G01*
X-1300000Y-657480D03*
G01*
X-900000Y-342519D03*
G01*
X-900000Y-657480D03*
G01*
X-500000Y-342519D03*
G01*
X-500000Y-657480D03*
G01*
X-100000Y-342519D03*
G01*
X-100000Y-657480D03*
G01*
X-4500000Y-842519D03*
G01*
X-4500000Y-1157480D03*
G01*
X-4100000Y-842519D03*
G01*
X-4100000Y-1157480D03*
G01*
X-3700000Y-842519D03*
G01*
X-3700000Y-1157480D03*
G01*
X-3300000Y-842519D03*
G01*
X-3300000Y-1157480D03*
G01*
X-2900000Y-842519D03*
G01*
X-2900000Y-1157480D03*
G01*
X-2500000Y-842519D03*
G01*
X-2500000Y-1157480D03*
G01*
X-2100000Y-842519D03*
G01*
X-2100000Y-1157480D03*
G01*
X-1700000Y-842519D03*
G01*
X-1700000Y-1157480D03*
G01*
X-1300000Y-842519D03*
G01*
X-1300000Y-1157480D03*
G01*
X-900000Y-842519D03*
G01*
X-900000Y-1157480D03*
G01*
X-500000Y-842519D03*
G01*
X-500000Y-1157480D03*
G01*
X-100000Y-842519D03*
G01*
X-100000Y-1157480D03*
G01*
X-4500000Y-1342519D03*
G01*
X-4500000Y-1657480D03*
G01*
X-4100000Y-1342519D03*
G01*
X-4100000Y-1657480D03*
G01*
X-3700000Y-1342519D03*
G01*
X-3700000Y-1657480D03*
G01*
X-3300000Y-1342519D03*
G01*
X-3300000Y-1657480D03*
G01*
X-2900000Y-1342519D03*
G01*
X-2900000Y-1657480D03*
G01*
X-2500000Y-1342519D03*
G01*
X-2500000Y-1657480D03*
G01*
X-2100000Y-1342519D03*
G01*
X-2100000Y-1657480D03*
G01*
X-1700000Y-1342519D03*
G01*
X-1700000Y-1657480D03*
G01*
X-1300000Y-1342519D03*
G01*
X-1300000Y-1657480D03*
G01*
X-900000Y-1342519D03*
G01*
X-900000Y-1657480D03*
G01*
X-500000Y-1342519D03*
G01*
X-500000Y-1657480D03*
G01*
X-100000Y-1342519D03*
G01*
X-100000Y-1657480D03*
D14*
G01*
X-4611419Y-627950D03*
G01*
X-4611419Y-372049D03*
G01*
X-4788580Y-372049D03*
G01*
X-4788580Y-627950D03*
G01*
X-4211419Y-627950D03*
G01*
X-4211419Y-372049D03*
G01*
X-4388580Y-372049D03*
G01*
X-4388580Y-627950D03*
G01*
X-3811419Y-627950D03*
G01*
X-3811419Y-372049D03*
G01*
X-3988580Y-372049D03*
G01*
X-3988580Y-627950D03*
G01*
X-3411419Y-627950D03*
G01*
X-3411419Y-372049D03*
G01*
X-3588580Y-372049D03*
G01*
X-3588580Y-627950D03*
G01*
X-3011419Y-627950D03*
G01*
X-3011419Y-372049D03*
G01*
X-3188580Y-372049D03*
G01*
X-3188580Y-627950D03*
G01*
X-2611419Y-627950D03*
G01*
X-2611419Y-372049D03*
G01*
X-2788580Y-372049D03*
G01*
X-2788580Y-627950D03*
G01*
X-2211419Y-627950D03*
G01*
X-2211419Y-372049D03*
G01*
X-2388580Y-372049D03*
G01*
X-2388580Y-627950D03*
G01*
X-1811419Y-627950D03*
G01*
X-1811419Y-372049D03*
G01*
X-1988580Y-372049D03*
G01*
X-1988580Y-627950D03*
G01*
X-1411419Y-627950D03*
G01*
X-1411419Y-372049D03*
G01*
X-1588580Y-372049D03*
G01*
X-1588580Y-627950D03*
G01*
X-1011419Y-627950D03*
G01*
X-1011419Y-372049D03*
G01*
X-1188580Y-372049D03*
G01*
X-1188580Y-627950D03*
G01*
X-611419Y-627950D03*
G01*
X-611419Y-372049D03*
G01*
X-788580Y-372049D03*
G01*
X-788580Y-627950D03*
G01*
X-211419Y-627950D03*
G01*
X-211419Y-372049D03*
G01*
X-388580Y-372049D03*
G01*
X-388580Y-627950D03*
G01*
X-4611419Y-1127950D03*
G01*
X-4611419Y-872049D03*
G01*
X-4788580Y-872049D03*
G01*
X-4788580Y-1127950D03*
G01*
X-4211419Y-1127950D03*
G01*
X-4211419Y-872049D03*
G01*
X-4388580Y-872049D03*
G01*
X-4388580Y-1127950D03*
G01*
X-3811419Y-1127950D03*
G01*
X-3811419Y-872049D03*
G01*
X-3988580Y-872049D03*
G01*
X-3988580Y-1127950D03*
G01*
X-3411419Y-1127950D03*
G01*
X-3411419Y-872049D03*
G01*
X-3588580Y-872049D03*
G01*
X-3588580Y-1127950D03*
G01*
X-3011419Y-1127950D03*
G01*
X-3011419Y-872049D03*
G01*
X-3188580Y-872049D03*
G01*
X-3188580Y-1127950D03*
G01*
X-2611419Y-1127950D03*
G01*
X-2611419Y-872049D03*
G01*
X-2788580Y-872049D03*
G01*
X-2788580Y-1127950D03*
G01*
X-2211419Y-1127950D03*
G01*
X-2211419Y-872049D03*
G01*
X-2388580Y-872049D03*
G01*
X-2388580Y-1127950D03*
G01*
X-1811419Y-1127950D03*
G01*
X-1811419Y-872049D03*
G01*
X-1988580Y-872049D03*
G01*
X-1988580Y-1127950D03*
G01*
X-1411419Y-1127950D03*
G01*
X-1411419Y-872049D03*
G01*
X-1588580Y-872049D03*
G01*
X-1588580Y-1127950D03*
G01*
X-1011419Y-1127950D03*
G01*
X-1011419Y-872049D03*
G01*
X-1188580Y-872049D03*
G01*
X-1188580Y-1127950D03*
G01*
X-611419Y-1127950D03*
G01*
X-611419Y-872049D03*
G01*
X-788580Y-872049D03*
G01*
X-788580Y-1127950D03*
G01*
X-211419Y-1127950D03*
G01*
X-211419Y-872049D03*
G01*
X-388580Y-872049D03*
G01*
X-388580Y-1127950D03*
G01*
X-4611419Y-1627950D03*
G01*
X-4611419Y-1372049D03*
G01*
X-4788580Y-1372049D03*
G01*
X-4788580Y-1627950D03*
G01*
X-4211419Y-1627950D03*
G01*
X-4211419Y-1372049D03*
G01*
X-4388580Y-1372049D03*
G01*
X-4388580Y-1627950D03*
G01*
X-3811419Y-1627950D03*
G01*
X-3811419Y-1372049D03*
G01*
X-3988580Y-1372049D03*
G01*
X-3988580Y-1627950D03*
G01*
X-3411419Y-1627950D03*
G01*
X-3411419Y-1372049D03*
G01*
X-3588580Y-1372049D03*
G01*
X-3588580Y-1627950D03*
G01*
X-3011419Y-1627950D03*
G01*
X-3011419Y-1372049D03*
G01*
X-3188580Y-1372049D03*
G01*
X-3188580Y-1627950D03*
G01*
X-2611419Y-1627950D03*
G01*
X-2611419Y-1372049D03*
G01*
X-2788580Y-1372049D03*
G01*
X-2788580Y-1627950D03*
G01*
X-2211419Y-1627950D03*
G01*
X-2211419Y-1372049D03*
G01*
X-2388580Y-1372049D03*
G01*
X-2388580Y-1627950D03*
G01*
X-1811419Y-1627950D03*
G01*
X-1811419Y-1372049D03*
G01*
X-1988580Y-1372049D03*
G01*
X-1988580Y-1627950D03*
G01*
X-1411419Y-1627950D03*
G01*
X-1411419Y-1372049D03*
G01*
X-1588580Y-1372049D03*
G01*
X-1588580Y-1627950D03*
G01*
X-1011419Y-1627950D03*
G01*
X-1011419Y-1372049D03*
G01*
X-1188580Y-1372049D03*
G01*
X-1188580Y-1627950D03*
G01*
X-611419Y-1627950D03*
G01*
X-611419Y-1372049D03*
G01*
X-788580Y-1372049D03*
G01*
X-788580Y-1627950D03*
G01*
X-211419Y-1627950D03*
G01*
X-211419Y-1372049D03*
G01*
X-388580Y-1372049D03*
G01*
X-388580Y-1627950D03*
D13*
G01*
X-4500000Y157480D03*
G01*
X-4500000Y-157480D03*
D14*
G01*
X-4611419Y-127950D03*
G01*
X-4611419Y127950D03*
G01*
X-4788580Y127950D03*
G01*
X-4788580Y-127950D03*
D15*
G01*
X-4790000Y890000D03*
G01*
X-3690000Y290000D03*
G01*
X-4690000Y890000D03*
G01*
X-4590000Y890000D03*
G01*
X-4490000Y890000D03*
G01*
X-4390000Y890000D03*
G01*
X-4290000Y890000D03*
G01*
X-4190000Y890000D03*
G01*
X-4090000Y890000D03*
G01*
X-3990000Y890000D03*
G01*
X-3890000Y890000D03*
G01*
X-3790000Y890000D03*
G01*
X-3690000Y890000D03*
G01*
X-3790000Y290000D03*
G01*
X-3890000Y290000D03*
G01*
X-3990000Y290000D03*
G01*
X-4090000Y290000D03*
G01*
X-4190000Y290000D03*
G01*
X-4290000Y290000D03*
G01*
X-4390000Y290000D03*
G01*
X-4490000Y290000D03*
G01*
X-4590000Y290000D03*
G01*
X-4690000Y290000D03*
D16*
G01*
X-4790000Y290000D03*
D13*
G01*
X-4100000Y157480D03*
G01*
X-4100000Y-157480D03*
G01*
X-3700000Y157480D03*
G01*
X-3700000Y-157480D03*
G01*
X-3300000Y157480D03*
G01*
X-3300000Y-157480D03*
G01*
X-2900000Y157480D03*
G01*
X-2900000Y-157480D03*
G01*
X-2500000Y157480D03*
G01*
X-2500000Y-157480D03*
G01*
X-2100000Y157480D03*
G01*
X-2100000Y-157480D03*
G01*
X-1300000Y157480D03*
G01*
X-1300000Y-157480D03*
G01*
X-900000Y157480D03*
G01*
X-900000Y-157480D03*
G01*
X-500000Y157480D03*
G01*
X-500000Y-157480D03*
G01*
X-100000Y157480D03*
G01*
X-100000Y-157480D03*
D14*
G01*
X-4211419Y-127950D03*
G01*
X-4211419Y127950D03*
G01*
X-4388580Y127950D03*
G01*
X-4388580Y-127950D03*
G01*
X-3811419Y-127950D03*
G01*
X-3811419Y127950D03*
G01*
X-3988580Y127950D03*
G01*
X-3988580Y-127950D03*
G01*
X-3411419Y-127950D03*
G01*
X-3411419Y127950D03*
G01*
X-3588580Y127950D03*
G01*
X-3588580Y-127950D03*
G01*
X-3011419Y-127950D03*
G01*
X-3011419Y127950D03*
G01*
X-3188580Y127950D03*
G01*
X-3188580Y-127950D03*
G01*
X-2611419Y-127950D03*
G01*
X-2611419Y127950D03*
G01*
X-2788580Y127950D03*
G01*
X-2788580Y-127950D03*
G01*
X-2211419Y-127950D03*
G01*
X-2211419Y127950D03*
G01*
X-2388580Y127950D03*
G01*
X-2388580Y-127950D03*
G01*
X-1811419Y-127950D03*
G01*
X-1811419Y127950D03*
G01*
X-1988580Y127950D03*
G01*
X-1988580Y-127950D03*
G01*
X-1411419Y-127950D03*
G01*
X-1411419Y127950D03*
G01*
X-1588580Y127950D03*
G01*
X-1588580Y-127950D03*
G01*
X-1011419Y-127950D03*
G01*
X-1011419Y127950D03*
G01*
X-1188580Y127950D03*
G01*
X-1188580Y-127950D03*
G01*
X-611419Y-127950D03*
G01*
X-611419Y127950D03*
G01*
X-788580Y127950D03*
G01*
X-788580Y-127950D03*
G01*
X-211419Y-127950D03*
G01*
X-211419Y127950D03*
G01*
X-388580Y127950D03*
G01*
X-388580Y-127950D03*
D13*
G01*
X-1700000Y157480D03*
G01*
X-1700000Y-157480D03*
M02*
