G04 Layer: TopSolderMaskLayer*
G04 EasyEDA v6.5.23, 2023-09-23 11:22:25*
G04 fbaf7024bf8343fa847bd74e200e9744,10*
G04 Gerber Generator version 0.2*
G04 Scale: 100 percent, Rotated: No, Reflected: No *
G04 Dimensions in inches *
G04 leading zeros omitted , absolute positions ,3 integer and 6 decimal *
%FSLAX36Y36*%
%MOIN*%

%AMMACRO1*1,1,$1,$2,$3*1,1,$1,$4,$5*1,1,$1,0-$2,0-$3*1,1,$1,0-$4,0-$5*20,1,$1,$2,$3,$4,$5,0*20,1,$1,$4,$5,0-$2,0-$3,0*20,1,$1,0-$2,0-$3,0-$4,0-$5,0*20,1,$1,0-$4,0-$5,$2,$3,0*4,1,4,$2,$3,$4,$5,0-$2,0-$3,0-$4,0-$5,$2,$3,0*%
%ADD10C,0.0749*%
%ADD11C,0.0827*%
%ADD12C,0.0730*%
%ADD13MACRO1,0.004X-0.0345X0.0345X0.0345X0.0345*%
%ADD14MACRO1,0.004X0.0223X0.0271X0.0223X-0.0271*%
%ADD15MACRO1,0.004X-0.0223X0.0271X-0.0223X-0.0271*%
%ADD16MACRO1,0.004X-0.0223X-0.0271X-0.0223X0.0271*%
%ADD17MACRO1,0.004X0.0223X-0.0271X0.0223X0.0271*%
%ADD18C,0.0147*%

%LPD*%
D10*
G01*
X-4500000Y-1842519D03*
G01*
X-4500000Y-2157480D03*
G01*
X-4100000Y-1842519D03*
G01*
X-4100000Y-2157480D03*
G01*
X-3700000Y-1842519D03*
G01*
X-3700000Y-2157480D03*
G01*
X-3300000Y-1842519D03*
G01*
X-3300000Y-2157480D03*
G01*
X-2900000Y-1842519D03*
G01*
X-2900000Y-2157480D03*
G01*
X-2500000Y-1842519D03*
G01*
X-2500000Y-2157480D03*
G01*
X-2100000Y-1842519D03*
G01*
X-2100000Y-2157480D03*
G01*
X-1700000Y-1842519D03*
G01*
X-1700000Y-2157480D03*
G01*
X-1300000Y-1842519D03*
G01*
X-1300000Y-2157480D03*
G01*
X-900000Y-1842519D03*
G01*
X-900000Y-2157480D03*
G01*
X-500000Y-1842519D03*
G01*
X-500000Y-2157480D03*
G01*
X-100000Y-1842519D03*
G01*
X-100000Y-2157480D03*
D11*
G01*
X-4611419Y-2127950D03*
G01*
X-4611419Y-1872049D03*
G01*
X-4788580Y-1872049D03*
G01*
X-4788580Y-2127950D03*
G01*
X-4211419Y-2127950D03*
G01*
X-4211419Y-1872049D03*
G01*
X-4388580Y-1872049D03*
G01*
X-4388580Y-2127950D03*
G01*
X-3811419Y-2127950D03*
G01*
X-3811419Y-1872049D03*
G01*
X-3988580Y-1872049D03*
G01*
X-3988580Y-2127950D03*
G01*
X-3411419Y-2127950D03*
G01*
X-3411419Y-1872049D03*
G01*
X-3588580Y-1872049D03*
G01*
X-3588580Y-2127950D03*
G01*
X-3011419Y-2127950D03*
G01*
X-3011419Y-1872049D03*
G01*
X-3188580Y-1872049D03*
G01*
X-3188580Y-2127950D03*
G01*
X-2611419Y-2127950D03*
G01*
X-2611419Y-1872049D03*
G01*
X-2788580Y-1872049D03*
G01*
X-2788580Y-2127950D03*
G01*
X-2211419Y-2127950D03*
G01*
X-2211419Y-1872049D03*
G01*
X-2388580Y-1872049D03*
G01*
X-2388580Y-2127950D03*
G01*
X-1811419Y-2127950D03*
G01*
X-1811419Y-1872049D03*
G01*
X-1988580Y-1872049D03*
G01*
X-1988580Y-2127950D03*
G01*
X-1411419Y-2127950D03*
G01*
X-1411419Y-1872049D03*
G01*
X-1588580Y-1872049D03*
G01*
X-1588580Y-2127950D03*
G01*
X-1011419Y-2127950D03*
G01*
X-1011419Y-1872049D03*
G01*
X-1188580Y-1872049D03*
G01*
X-1188580Y-2127950D03*
G01*
X-611419Y-2127950D03*
G01*
X-611419Y-1872049D03*
G01*
X-788580Y-1872049D03*
G01*
X-788580Y-2127950D03*
G01*
X-211419Y-2127950D03*
G01*
X-211419Y-1872049D03*
G01*
X-388580Y-1872049D03*
G01*
X-388580Y-2127950D03*
D10*
G01*
X-4500000Y-342519D03*
G01*
X-4500000Y-657480D03*
G01*
X-4100000Y-342519D03*
G01*
X-4100000Y-657480D03*
G01*
X-3700000Y-342519D03*
G01*
X-3700000Y-657480D03*
G01*
X-3300000Y-342519D03*
G01*
X-3300000Y-657480D03*
G01*
X-2900000Y-342519D03*
G01*
X-2900000Y-657480D03*
G01*
X-2500000Y-342519D03*
G01*
X-2500000Y-657480D03*
G01*
X-2100000Y-342519D03*
G01*
X-2100000Y-657480D03*
G01*
X-1700000Y-342519D03*
G01*
X-1700000Y-657480D03*
G01*
X-1300000Y-342519D03*
G01*
X-1300000Y-657480D03*
G01*
X-900000Y-342519D03*
G01*
X-900000Y-657480D03*
G01*
X-500000Y-342519D03*
G01*
X-500000Y-657480D03*
G01*
X-100000Y-342519D03*
G01*
X-100000Y-657480D03*
G01*
X-4500000Y-842519D03*
G01*
X-4500000Y-1157480D03*
G01*
X-4100000Y-842519D03*
G01*
X-4100000Y-1157480D03*
G01*
X-3700000Y-842519D03*
G01*
X-3700000Y-1157480D03*
G01*
X-3300000Y-842519D03*
G01*
X-3300000Y-1157480D03*
G01*
X-2900000Y-842519D03*
G01*
X-2900000Y-1157480D03*
G01*
X-2500000Y-842519D03*
G01*
X-2500000Y-1157480D03*
G01*
X-2100000Y-842519D03*
G01*
X-2100000Y-1157480D03*
G01*
X-1700000Y-842519D03*
G01*
X-1700000Y-1157480D03*
G01*
X-1300000Y-842519D03*
G01*
X-1300000Y-1157480D03*
G01*
X-900000Y-842519D03*
G01*
X-900000Y-1157480D03*
G01*
X-500000Y-842519D03*
G01*
X-500000Y-1157480D03*
G01*
X-100000Y-842519D03*
G01*
X-100000Y-1157480D03*
G01*
X-4500000Y-1342519D03*
G01*
X-4500000Y-1657480D03*
G01*
X-4100000Y-1342519D03*
G01*
X-4100000Y-1657480D03*
G01*
X-3700000Y-1342519D03*
G01*
X-3700000Y-1657480D03*
G01*
X-3300000Y-1342519D03*
G01*
X-3300000Y-1657480D03*
G01*
X-2900000Y-1342519D03*
G01*
X-2900000Y-1657480D03*
G01*
X-2500000Y-1342519D03*
G01*
X-2500000Y-1657480D03*
G01*
X-2100000Y-1342519D03*
G01*
X-2100000Y-1657480D03*
G01*
X-1700000Y-1342519D03*
G01*
X-1700000Y-1657480D03*
G01*
X-1300000Y-1342519D03*
G01*
X-1300000Y-1657480D03*
G01*
X-900000Y-1342519D03*
G01*
X-900000Y-1657480D03*
G01*
X-500000Y-1342519D03*
G01*
X-500000Y-1657480D03*
G01*
X-100000Y-1342519D03*
G01*
X-100000Y-1657480D03*
D11*
G01*
X-4611419Y-627950D03*
G01*
X-4611419Y-372049D03*
G01*
X-4788580Y-372049D03*
G01*
X-4788580Y-627950D03*
G01*
X-4211419Y-627950D03*
G01*
X-4211419Y-372049D03*
G01*
X-4388580Y-372049D03*
G01*
X-4388580Y-627950D03*
G01*
X-3811419Y-627950D03*
G01*
X-3811419Y-372049D03*
G01*
X-3988580Y-372049D03*
G01*
X-3988580Y-627950D03*
G01*
X-3411419Y-627950D03*
G01*
X-3411419Y-372049D03*
G01*
X-3588580Y-372049D03*
G01*
X-3588580Y-627950D03*
G01*
X-3011419Y-627950D03*
G01*
X-3011419Y-372049D03*
G01*
X-3188580Y-372049D03*
G01*
X-3188580Y-627950D03*
G01*
X-2611419Y-627950D03*
G01*
X-2611419Y-372049D03*
G01*
X-2788580Y-372049D03*
G01*
X-2788580Y-627950D03*
G01*
X-2211419Y-627950D03*
G01*
X-2211419Y-372049D03*
G01*
X-2388580Y-372049D03*
G01*
X-2388580Y-627950D03*
G01*
X-1811419Y-627950D03*
G01*
X-1811419Y-372049D03*
G01*
X-1988580Y-372049D03*
G01*
X-1988580Y-627950D03*
G01*
X-1411419Y-627950D03*
G01*
X-1411419Y-372049D03*
G01*
X-1588580Y-372049D03*
G01*
X-1588580Y-627950D03*
G01*
X-1011419Y-627950D03*
G01*
X-1011419Y-372049D03*
G01*
X-1188580Y-372049D03*
G01*
X-1188580Y-627950D03*
G01*
X-611419Y-627950D03*
G01*
X-611419Y-372049D03*
G01*
X-788580Y-372049D03*
G01*
X-788580Y-627950D03*
G01*
X-211419Y-627950D03*
G01*
X-211419Y-372049D03*
G01*
X-388580Y-372049D03*
G01*
X-388580Y-627950D03*
G01*
X-4611419Y-1127950D03*
G01*
X-4611419Y-872049D03*
G01*
X-4788580Y-872049D03*
G01*
X-4788580Y-1127950D03*
G01*
X-4211419Y-1127950D03*
G01*
X-4211419Y-872049D03*
G01*
X-4388580Y-872049D03*
G01*
X-4388580Y-1127950D03*
G01*
X-3811419Y-1127950D03*
G01*
X-3811419Y-872049D03*
G01*
X-3988580Y-872049D03*
G01*
X-3988580Y-1127950D03*
G01*
X-3411419Y-1127950D03*
G01*
X-3411419Y-872049D03*
G01*
X-3588580Y-872049D03*
G01*
X-3588580Y-1127950D03*
G01*
X-3011419Y-1127950D03*
G01*
X-3011419Y-872049D03*
G01*
X-3188580Y-872049D03*
G01*
X-3188580Y-1127950D03*
G01*
X-2611419Y-1127950D03*
G01*
X-2611419Y-872049D03*
G01*
X-2788580Y-872049D03*
G01*
X-2788580Y-1127950D03*
G01*
X-2211419Y-1127950D03*
G01*
X-2211419Y-872049D03*
G01*
X-2388580Y-872049D03*
G01*
X-2388580Y-1127950D03*
G01*
X-1811419Y-1127950D03*
G01*
X-1811419Y-872049D03*
G01*
X-1988580Y-872049D03*
G01*
X-1988580Y-1127950D03*
G01*
X-1411419Y-1127950D03*
G01*
X-1411419Y-872049D03*
G01*
X-1588580Y-872049D03*
G01*
X-1588580Y-1127950D03*
G01*
X-1011419Y-1127950D03*
G01*
X-1011419Y-872049D03*
G01*
X-1188580Y-872049D03*
G01*
X-1188580Y-1127950D03*
G01*
X-611419Y-1127950D03*
G01*
X-611419Y-872049D03*
G01*
X-788580Y-872049D03*
G01*
X-788580Y-1127950D03*
G01*
X-211419Y-1127950D03*
G01*
X-211419Y-872049D03*
G01*
X-388580Y-872049D03*
G01*
X-388580Y-1127950D03*
G01*
X-4611419Y-1627950D03*
G01*
X-4611419Y-1372049D03*
G01*
X-4788580Y-1372049D03*
G01*
X-4788580Y-1627950D03*
G01*
X-4211419Y-1627950D03*
G01*
X-4211419Y-1372049D03*
G01*
X-4388580Y-1372049D03*
G01*
X-4388580Y-1627950D03*
G01*
X-3811419Y-1627950D03*
G01*
X-3811419Y-1372049D03*
G01*
X-3988580Y-1372049D03*
G01*
X-3988580Y-1627950D03*
G01*
X-3411419Y-1627950D03*
G01*
X-3411419Y-1372049D03*
G01*
X-3588580Y-1372049D03*
G01*
X-3588580Y-1627950D03*
G01*
X-3011419Y-1627950D03*
G01*
X-3011419Y-1372049D03*
G01*
X-3188580Y-1372049D03*
G01*
X-3188580Y-1627950D03*
G01*
X-2611419Y-1627950D03*
G01*
X-2611419Y-1372049D03*
G01*
X-2788580Y-1372049D03*
G01*
X-2788580Y-1627950D03*
G01*
X-2211419Y-1627950D03*
G01*
X-2211419Y-1372049D03*
G01*
X-2388580Y-1372049D03*
G01*
X-2388580Y-1627950D03*
G01*
X-1811419Y-1627950D03*
G01*
X-1811419Y-1372049D03*
G01*
X-1988580Y-1372049D03*
G01*
X-1988580Y-1627950D03*
G01*
X-1411419Y-1627950D03*
G01*
X-1411419Y-1372049D03*
G01*
X-1588580Y-1372049D03*
G01*
X-1588580Y-1627950D03*
G01*
X-1011419Y-1627950D03*
G01*
X-1011419Y-1372049D03*
G01*
X-1188580Y-1372049D03*
G01*
X-1188580Y-1627950D03*
G01*
X-611419Y-1627950D03*
G01*
X-611419Y-1372049D03*
G01*
X-788580Y-1372049D03*
G01*
X-788580Y-1627950D03*
G01*
X-211419Y-1627950D03*
G01*
X-211419Y-1372049D03*
G01*
X-388580Y-1372049D03*
G01*
X-388580Y-1627950D03*
D10*
G01*
X-4500000Y157480D03*
G01*
X-4500000Y-157480D03*
D11*
G01*
X-4611419Y-127950D03*
G01*
X-4611419Y127950D03*
G01*
X-4788580Y127950D03*
G01*
X-4788580Y-127950D03*
D12*
G01*
X-4790000Y890000D03*
G01*
X-3690000Y290000D03*
G01*
X-4690000Y890000D03*
G01*
X-4590000Y890000D03*
G01*
X-4490000Y890000D03*
G01*
X-4390000Y890000D03*
G01*
X-4290000Y890000D03*
G01*
X-4190000Y890000D03*
G01*
X-4090000Y890000D03*
G01*
X-3990000Y890000D03*
G01*
X-3890000Y890000D03*
G01*
X-3790000Y890000D03*
G01*
X-3690000Y890000D03*
G01*
X-3790000Y290000D03*
G01*
X-3890000Y290000D03*
G01*
X-3990000Y290000D03*
G01*
X-4090000Y290000D03*
G01*
X-4190000Y290000D03*
G01*
X-4290000Y290000D03*
G01*
X-4390000Y290000D03*
G01*
X-4490000Y290000D03*
G01*
X-4590000Y290000D03*
G01*
X-4690000Y290000D03*
D13*
G01*
X-4790000Y290000D03*
D10*
G01*
X-4100000Y157480D03*
G01*
X-4100000Y-157480D03*
G01*
X-3700000Y157480D03*
G01*
X-3700000Y-157480D03*
G01*
X-3300000Y157480D03*
G01*
X-3300000Y-157480D03*
G01*
X-2900000Y157480D03*
G01*
X-2900000Y-157480D03*
G01*
X-2500000Y157480D03*
G01*
X-2500000Y-157480D03*
G01*
X-2100000Y157480D03*
G01*
X-2100000Y-157480D03*
G01*
X-1300000Y157480D03*
G01*
X-1300000Y-157480D03*
G01*
X-900000Y157480D03*
G01*
X-900000Y-157480D03*
G01*
X-500000Y157480D03*
G01*
X-500000Y-157480D03*
G01*
X-100000Y157480D03*
G01*
X-100000Y-157480D03*
D11*
G01*
X-4211419Y-127950D03*
G01*
X-4211419Y127950D03*
G01*
X-4388580Y127950D03*
G01*
X-4388580Y-127950D03*
G01*
X-3811419Y-127950D03*
G01*
X-3811419Y127950D03*
G01*
X-3988580Y127950D03*
G01*
X-3988580Y-127950D03*
G01*
X-3411419Y-127950D03*
G01*
X-3411419Y127950D03*
G01*
X-3588580Y127950D03*
G01*
X-3588580Y-127950D03*
G01*
X-3011419Y-127950D03*
G01*
X-3011419Y127950D03*
G01*
X-3188580Y127950D03*
G01*
X-3188580Y-127950D03*
G01*
X-2611419Y-127950D03*
G01*
X-2611419Y127950D03*
G01*
X-2788580Y127950D03*
G01*
X-2788580Y-127950D03*
G01*
X-2211419Y-127950D03*
G01*
X-2211419Y127950D03*
G01*
X-2388580Y127950D03*
G01*
X-2388580Y-127950D03*
G01*
X-1811419Y-127950D03*
G01*
X-1811419Y127950D03*
G01*
X-1988580Y127950D03*
G01*
X-1988580Y-127950D03*
G01*
X-1411419Y-127950D03*
G01*
X-1411419Y127950D03*
G01*
X-1588580Y127950D03*
G01*
X-1588580Y-127950D03*
G01*
X-1011419Y-127950D03*
G01*
X-1011419Y127950D03*
G01*
X-1188580Y127950D03*
G01*
X-1188580Y-127950D03*
G01*
X-611419Y-127950D03*
G01*
X-611419Y127950D03*
G01*
X-788580Y127950D03*
G01*
X-788580Y-127950D03*
G01*
X-211419Y-127950D03*
G01*
X-211419Y127950D03*
G01*
X-388580Y127950D03*
G01*
X-388580Y-127950D03*
D10*
G01*
X-1700000Y157480D03*
G01*
X-1700000Y-157480D03*
D14*
G01*
X-3539371Y290000D03*
D15*
G01*
X-3460628Y290000D03*
D16*
G01*
X-3260628Y290000D03*
D17*
G01*
X-3339371Y290000D03*
M02*
