G04 Layer: BottomSilkscreenLayer*
G04 EasyEDA v6.5.23, 2023-09-23 11:22:25*
G04 fbaf7024bf8343fa847bd74e200e9744,10*
G04 Gerber Generator version 0.2*
G04 Scale: 100 percent, Rotated: No, Reflected: No *
G04 Dimensions in inches *
G04 leading zeros omitted , absolute positions ,3 integer and 6 decimal *
%FSLAX36Y36*%
%MOIN*%

%ADD10C,0.0059*%
%ADD11C,0.0150*%

%LPD*%
D10*
X-4777258Y413315D02*
G01*
X-4777258Y383247D01*
X-4767235Y413315D02*
G01*
X-4787280Y413315D01*
X-4796729Y413315D02*
G01*
X-4816776Y383247D01*
X-4816776Y413315D02*
G01*
X-4796729Y383247D01*
X-4834816Y413315D02*
G01*
X-4830520Y411885D01*
X-4827658Y407588D01*
X-4826226Y400430D01*
X-4826226Y396134D01*
X-4827658Y388975D01*
X-4830520Y384679D01*
X-4834816Y383247D01*
X-4837680Y383247D01*
X-4841976Y384679D01*
X-4844839Y388975D01*
X-4846271Y396134D01*
X-4846271Y400430D01*
X-4844839Y407588D01*
X-4841976Y411885D01*
X-4837680Y413315D01*
X-4834816Y413315D01*
X-3821786Y830199D02*
G01*
X-3791718Y830199D01*
X-3821786Y830199D02*
G01*
X-3821786Y817314D01*
X-3820354Y813018D01*
X-3818923Y811586D01*
X-3816058Y810154D01*
X-3813194Y810154D01*
X-3810331Y811586D01*
X-3808900Y813018D01*
X-3807467Y817314D01*
X-3807467Y830199D02*
G01*
X-3807467Y817314D01*
X-3806036Y813018D01*
X-3804605Y811586D01*
X-3801741Y810154D01*
X-3797444Y810154D01*
X-3794582Y811586D01*
X-3793149Y813018D01*
X-3791718Y817314D01*
X-3791718Y830199D01*
X-3814627Y799272D02*
G01*
X-3816058Y799272D01*
X-3818923Y797840D01*
X-3820354Y796408D01*
X-3821786Y793544D01*
X-3821786Y787818D01*
X-3820354Y784954D01*
X-3818923Y783523D01*
X-3816058Y782091D01*
X-3813194Y782091D01*
X-3810331Y783523D01*
X-3806036Y786386D01*
X-3791718Y800704D01*
X-3791718Y780659D01*
X-4121786Y830199D02*
G01*
X-4091718Y830199D01*
X-4121786Y830199D02*
G01*
X-4121786Y811586D01*
X-4107467Y830199D02*
G01*
X-4107467Y818744D01*
X-4121786Y782091D02*
G01*
X-4091718Y796408D01*
X-4121786Y802136D02*
G01*
X-4121786Y782091D01*
X-4221786Y830199D02*
G01*
X-4191718Y830199D01*
X-4221786Y830199D02*
G01*
X-4221786Y811586D01*
X-4207467Y830199D02*
G01*
X-4207467Y818744D01*
X-4217491Y784954D02*
G01*
X-4220355Y786386D01*
X-4221786Y790682D01*
X-4221786Y793544D01*
X-4220355Y797840D01*
X-4216058Y800704D01*
X-4208900Y802136D01*
X-4201741Y802136D01*
X-4196013Y800704D01*
X-4193149Y797840D01*
X-4191718Y793544D01*
X-4191718Y792114D01*
X-4193149Y787818D01*
X-4196013Y784954D01*
X-4200308Y783523D01*
X-4201741Y783523D01*
X-4206036Y784954D01*
X-4208900Y787818D01*
X-4210331Y792114D01*
X-4210331Y793544D01*
X-4208900Y797840D01*
X-4206036Y800704D01*
X-4201741Y802136D01*
X-4321786Y830199D02*
G01*
X-4291718Y830199D01*
X-4321786Y830199D02*
G01*
X-4321786Y811586D01*
X-4307467Y830199D02*
G01*
X-4307467Y818744D01*
X-4321786Y784954D02*
G01*
X-4321786Y799272D01*
X-4308900Y800704D01*
X-4310331Y799272D01*
X-4311764Y794976D01*
X-4311764Y790682D01*
X-4310331Y786386D01*
X-4307467Y783523D01*
X-4303172Y782091D01*
X-4300308Y782091D01*
X-4296013Y783523D01*
X-4293149Y786386D01*
X-4291718Y790682D01*
X-4291718Y794976D01*
X-4293149Y799272D01*
X-4294582Y800704D01*
X-4297444Y802136D01*
X-4821786Y842790D02*
G01*
X-4791718Y842790D01*
X-4821786Y842790D02*
G01*
X-4821786Y829904D01*
X-4820355Y825608D01*
X-4818923Y824176D01*
X-4816059Y822744D01*
X-4813195Y822744D01*
X-4810331Y824176D01*
X-4808899Y825608D01*
X-4807467Y829904D01*
X-4807467Y842790D01*
X-4807467Y832766D02*
G01*
X-4791718Y822744D01*
X-4821786Y801840D02*
G01*
X-4791718Y813294D01*
X-4821786Y801840D02*
G01*
X-4791718Y790385D01*
X-4801741Y808998D02*
G01*
X-4801741Y794681D01*
X-4821786Y780934D02*
G01*
X-4791718Y773775D01*
X-4821786Y766617D02*
G01*
X-4791718Y773775D01*
X-4821786Y766617D02*
G01*
X-4791718Y759457D01*
X-4821786Y752298D02*
G01*
X-4791718Y759457D01*
X-4714627Y821313D02*
G01*
X-4717491Y822744D01*
X-4720355Y825608D01*
X-4721786Y828472D01*
X-4721786Y834198D01*
X-4720355Y837062D01*
X-4717491Y839926D01*
X-4714627Y841358D01*
X-4710331Y842790D01*
X-4703173Y842790D01*
X-4698877Y841358D01*
X-4696014Y839926D01*
X-4693150Y837062D01*
X-4691718Y834198D01*
X-4691718Y828472D01*
X-4693150Y825608D01*
X-4696014Y822744D01*
X-4698877Y821313D01*
X-4703173Y821313D01*
X-4703173Y828472D02*
G01*
X-4703173Y821313D01*
X-4721786Y811862D02*
G01*
X-4691718Y811862D01*
X-4721786Y811862D02*
G01*
X-4691718Y791817D01*
X-4721786Y791817D02*
G01*
X-4691718Y791817D01*
X-4721786Y782366D02*
G01*
X-4691718Y782366D01*
X-4721786Y782366D02*
G01*
X-4721786Y772345D01*
X-4720355Y768049D01*
X-4717491Y765185D01*
X-4714627Y763753D01*
X-4710331Y762321D01*
X-4703173Y762321D01*
X-4698877Y763753D01*
X-4696014Y765185D01*
X-4693150Y768049D01*
X-4691718Y772345D01*
X-4691718Y782366D01*
X-4621786Y842790D02*
G01*
X-4591718Y842790D01*
X-4621786Y842790D02*
G01*
X-4621786Y829904D01*
X-4620355Y825608D01*
X-4618923Y824176D01*
X-4616059Y822744D01*
X-4613195Y822744D01*
X-4610331Y824176D01*
X-4608899Y825608D01*
X-4607467Y829904D01*
X-4607467Y842790D01*
X-4607467Y832766D02*
G01*
X-4591718Y822744D01*
X-4617491Y793249D02*
G01*
X-4620355Y796113D01*
X-4621786Y800408D01*
X-4621786Y806134D01*
X-4620355Y810430D01*
X-4617491Y813294D01*
X-4614627Y813294D01*
X-4611763Y811862D01*
X-4610331Y810430D01*
X-4608899Y807566D01*
X-4606035Y798975D01*
X-4604605Y796113D01*
X-4603173Y794681D01*
X-4600309Y793249D01*
X-4596014Y793249D01*
X-4593150Y796113D01*
X-4591718Y800408D01*
X-4591718Y806134D01*
X-4593150Y810430D01*
X-4596014Y813294D01*
X-4621786Y773775D02*
G01*
X-4591718Y773775D01*
X-4621786Y783798D02*
G01*
X-4621786Y763753D01*
X-4521786Y842790D02*
G01*
X-4491718Y831334D01*
X-4521786Y819881D02*
G01*
X-4491718Y831334D01*
X-4514627Y788953D02*
G01*
X-4517491Y790385D01*
X-4520355Y793249D01*
X-4521786Y796113D01*
X-4521786Y801840D01*
X-4520355Y804704D01*
X-4517491Y807566D01*
X-4514627Y808998D01*
X-4510331Y810430D01*
X-4503173Y810430D01*
X-4498877Y808998D01*
X-4496014Y807566D01*
X-4493150Y804704D01*
X-4491718Y801840D01*
X-4491718Y796113D01*
X-4493150Y793249D01*
X-4496014Y790385D01*
X-4498877Y788953D01*
X-4514627Y758025D02*
G01*
X-4517491Y759457D01*
X-4520355Y762321D01*
X-4521786Y765185D01*
X-4521786Y770913D01*
X-4520355Y773775D01*
X-4517491Y776640D01*
X-4514627Y778072D01*
X-4510331Y779504D01*
X-4503173Y779504D01*
X-4498877Y778072D01*
X-4496014Y776640D01*
X-4493150Y773775D01*
X-4491718Y770913D01*
X-4491718Y765185D01*
X-4493150Y762321D01*
X-4496014Y759457D01*
X-4498877Y758025D01*
X-4421786Y830199D02*
G01*
X-4391718Y830199D01*
X-4421786Y830199D02*
G01*
X-4421786Y811586D01*
X-4407467Y830199D02*
G01*
X-4407467Y818744D01*
X-4421786Y787818D02*
G01*
X-4401741Y802136D01*
X-4401741Y780659D01*
X-4421786Y787818D02*
G01*
X-4391718Y787818D01*
X-4021786Y830199D02*
G01*
X-3991718Y830199D01*
X-4021786Y830199D02*
G01*
X-4021786Y817314D01*
X-4020354Y813018D01*
X-4018923Y811586D01*
X-4016058Y810154D01*
X-4013194Y810154D01*
X-4010331Y811586D01*
X-4008900Y813018D01*
X-4007467Y817314D01*
X-4007467Y830199D02*
G01*
X-4007467Y817314D01*
X-4006036Y813018D01*
X-4004605Y811586D01*
X-4001741Y810154D01*
X-3997444Y810154D01*
X-3994582Y811586D01*
X-3993149Y813018D01*
X-3991718Y817314D01*
X-3991718Y830199D01*
X-4016058Y800704D02*
G01*
X-4017491Y797840D01*
X-4021786Y793544D01*
X-3991718Y793544D01*
X-3921786Y830199D02*
G01*
X-3891718Y830199D01*
X-3921786Y830199D02*
G01*
X-3921786Y817314D01*
X-3920354Y813018D01*
X-3918923Y811586D01*
X-3916058Y810154D01*
X-3913194Y810154D01*
X-3910331Y811586D01*
X-3908900Y813018D01*
X-3907467Y817314D01*
X-3907467Y830199D02*
G01*
X-3907467Y817314D01*
X-3906036Y813018D01*
X-3904605Y811586D01*
X-3901741Y810154D01*
X-3897444Y810154D01*
X-3894582Y811586D01*
X-3893149Y813018D01*
X-3891718Y817314D01*
X-3891718Y830199D01*
X-3921786Y797840D02*
G01*
X-3921786Y782091D01*
X-3910331Y790682D01*
X-3910331Y786386D01*
X-3908900Y783523D01*
X-3907467Y782091D01*
X-3903172Y780659D01*
X-3900308Y780659D01*
X-3896013Y782091D01*
X-3893149Y784954D01*
X-3891718Y789250D01*
X-3891718Y793544D01*
X-3893149Y797840D01*
X-3894582Y799272D01*
X-3897444Y800704D01*
X-3721786Y830199D02*
G01*
X-3691718Y830199D01*
X-3721786Y830199D02*
G01*
X-3721786Y817314D01*
X-3720354Y813018D01*
X-3718923Y811586D01*
X-3716058Y810154D01*
X-3713194Y810154D01*
X-3710331Y811586D01*
X-3708900Y813018D01*
X-3707467Y817314D01*
X-3707467Y830199D02*
G01*
X-3707467Y817314D01*
X-3706036Y813018D01*
X-3704605Y811586D01*
X-3701741Y810154D01*
X-3697444Y810154D01*
X-3694582Y811586D01*
X-3693149Y813018D01*
X-3691718Y817314D01*
X-3691718Y830199D01*
X-3717491Y783523D02*
G01*
X-3720354Y784954D01*
X-3721786Y789250D01*
X-3721786Y792114D01*
X-3720354Y796408D01*
X-3716058Y799272D01*
X-3708900Y800704D01*
X-3701741Y800704D01*
X-3696013Y799272D01*
X-3693149Y796408D01*
X-3691718Y792114D01*
X-3691718Y790682D01*
X-3693149Y786386D01*
X-3696013Y783523D01*
X-3700308Y782091D01*
X-3701741Y782091D01*
X-3706036Y783523D01*
X-3708900Y786386D01*
X-3710331Y790682D01*
X-3710331Y792114D01*
X-3708900Y796408D01*
X-3706036Y799272D01*
X-3701741Y800704D01*
X-3721786Y400199D02*
G01*
X-3691718Y400199D01*
X-3721786Y400199D02*
G01*
X-3721786Y387314D01*
X-3720354Y383018D01*
X-3718923Y381586D01*
X-3716058Y380154D01*
X-3713194Y380154D01*
X-3710331Y381586D01*
X-3708900Y383018D01*
X-3707467Y387314D01*
X-3707467Y400199D02*
G01*
X-3707467Y387314D01*
X-3706036Y383018D01*
X-3704605Y381586D01*
X-3701741Y380154D01*
X-3697444Y380154D01*
X-3694582Y381586D01*
X-3693149Y383018D01*
X-3691718Y387314D01*
X-3691718Y400199D01*
X-3721786Y353523D02*
G01*
X-3721786Y367840D01*
X-3708900Y369272D01*
X-3710331Y367840D01*
X-3711764Y363544D01*
X-3711764Y359250D01*
X-3710331Y354954D01*
X-3707467Y352091D01*
X-3703172Y350659D01*
X-3700308Y350659D01*
X-3696013Y352091D01*
X-3693149Y354954D01*
X-3691718Y359250D01*
X-3691718Y363544D01*
X-3693149Y367840D01*
X-3694582Y369272D01*
X-3697444Y370704D01*
X-3821786Y400199D02*
G01*
X-3791718Y400199D01*
X-3821786Y400199D02*
G01*
X-3821786Y387314D01*
X-3820354Y383018D01*
X-3818923Y381586D01*
X-3816058Y380154D01*
X-3813194Y380154D01*
X-3810331Y381586D01*
X-3808900Y383018D01*
X-3807467Y387314D01*
X-3807467Y400199D02*
G01*
X-3807467Y387314D01*
X-3806036Y383018D01*
X-3804605Y381586D01*
X-3801741Y380154D01*
X-3797444Y380154D01*
X-3794582Y381586D01*
X-3793149Y383018D01*
X-3791718Y387314D01*
X-3791718Y400199D01*
X-3821786Y356386D02*
G01*
X-3801741Y370704D01*
X-3801741Y349227D01*
X-3821786Y356386D02*
G01*
X-3791718Y356386D01*
X-3921786Y400199D02*
G01*
X-3891718Y400199D01*
X-3921786Y400199D02*
G01*
X-3921786Y381586D01*
X-3907467Y400199D02*
G01*
X-3907467Y388744D01*
X-3891718Y400199D02*
G01*
X-3891718Y381586D01*
X-3917491Y354954D02*
G01*
X-3920354Y356386D01*
X-3921786Y360682D01*
X-3921786Y363544D01*
X-3920354Y367840D01*
X-3916058Y370704D01*
X-3908900Y372136D01*
X-3901741Y372136D01*
X-3896013Y370704D01*
X-3893149Y367840D01*
X-3891718Y363544D01*
X-3891718Y362114D01*
X-3893149Y357818D01*
X-3896013Y354954D01*
X-3900308Y353523D01*
X-3901741Y353523D01*
X-3906036Y354954D01*
X-3908900Y357818D01*
X-3910331Y362114D01*
X-3910331Y363544D01*
X-3908900Y367840D01*
X-3906036Y370704D01*
X-3901741Y372136D01*
X-4021786Y400199D02*
G01*
X-3991718Y400199D01*
X-4021786Y400199D02*
G01*
X-4021786Y390176D01*
X-4020354Y385882D01*
X-4017491Y383018D01*
X-4014627Y381586D01*
X-4010331Y380154D01*
X-4003172Y380154D01*
X-3998877Y381586D01*
X-3996013Y383018D01*
X-3993149Y385882D01*
X-3991718Y390176D01*
X-3991718Y400199D01*
X-4021786Y350659D02*
G01*
X-3991718Y364976D01*
X-4021786Y370704D02*
G01*
X-4021786Y350659D01*
X-4114627Y378722D02*
G01*
X-4117491Y380154D01*
X-4120354Y383018D01*
X-4121786Y385882D01*
X-4121786Y391608D01*
X-4120354Y394472D01*
X-4117491Y397336D01*
X-4114627Y398768D01*
X-4110331Y400199D01*
X-4103172Y400199D01*
X-4098877Y398768D01*
X-4096013Y397336D01*
X-4093149Y394472D01*
X-4091718Y391608D01*
X-4091718Y385882D01*
X-4093149Y383018D01*
X-4096013Y380154D01*
X-4098877Y378722D01*
X-4117491Y352091D02*
G01*
X-4120354Y353523D01*
X-4121786Y357818D01*
X-4121786Y360682D01*
X-4120354Y364976D01*
X-4116058Y367840D01*
X-4108900Y369272D01*
X-4101741Y369272D01*
X-4096013Y367840D01*
X-4093149Y364976D01*
X-4091718Y360682D01*
X-4091718Y359250D01*
X-4093149Y354954D01*
X-4096013Y352091D01*
X-4100308Y350659D01*
X-4101741Y350659D01*
X-4106036Y352091D01*
X-4108900Y354954D01*
X-4110331Y359250D01*
X-4110331Y360682D01*
X-4108900Y364976D01*
X-4106036Y367840D01*
X-4101741Y369272D01*
X-4221786Y400199D02*
G01*
X-4191718Y400199D01*
X-4221786Y400199D02*
G01*
X-4221786Y390176D01*
X-4220355Y385882D01*
X-4217491Y383018D01*
X-4214627Y381586D01*
X-4210331Y380154D01*
X-4203172Y380154D01*
X-4198877Y381586D01*
X-4196013Y383018D01*
X-4193149Y385882D01*
X-4191718Y390176D01*
X-4191718Y400199D01*
X-4221786Y356386D02*
G01*
X-4201741Y370704D01*
X-4201741Y349227D01*
X-4221786Y356386D02*
G01*
X-4191718Y356386D01*
X-4614627Y391323D02*
G01*
X-4617491Y392755D01*
X-4620355Y395617D01*
X-4621786Y398481D01*
X-4621786Y404209D01*
X-4620355Y407073D01*
X-4617491Y409935D01*
X-4614627Y411368D01*
X-4610331Y412800D01*
X-4603173Y412800D01*
X-4598877Y411368D01*
X-4596014Y409935D01*
X-4593150Y407073D01*
X-4591718Y404209D01*
X-4591718Y398481D01*
X-4593150Y395617D01*
X-4596014Y392755D01*
X-4598877Y391323D01*
X-4603173Y391323D01*
X-4603173Y398481D02*
G01*
X-4603173Y391323D01*
X-4621786Y381873D02*
G01*
X-4591718Y381873D01*
X-4621786Y381873D02*
G01*
X-4591718Y361826D01*
X-4621786Y361826D02*
G01*
X-4591718Y361826D01*
X-4621786Y352377D02*
G01*
X-4591718Y352377D01*
X-4621786Y352377D02*
G01*
X-4621786Y342354D01*
X-4620355Y338058D01*
X-4617491Y335194D01*
X-4614627Y333764D01*
X-4610331Y332332D01*
X-4603173Y332332D01*
X-4598877Y333764D01*
X-4596014Y335194D01*
X-4593150Y338058D01*
X-4591718Y342354D01*
X-4591718Y352377D01*
X-4514627Y391323D02*
G01*
X-4517491Y392755D01*
X-4520355Y395617D01*
X-4521786Y398481D01*
X-4521786Y404209D01*
X-4520355Y407073D01*
X-4517491Y409935D01*
X-4514627Y411368D01*
X-4510331Y412800D01*
X-4503173Y412800D01*
X-4498877Y411368D01*
X-4496014Y409935D01*
X-4493150Y407073D01*
X-4491718Y404209D01*
X-4491718Y398481D01*
X-4493150Y395617D01*
X-4496014Y392755D01*
X-4498877Y391323D01*
X-4503173Y391323D01*
X-4503173Y398481D02*
G01*
X-4503173Y391323D01*
X-4521786Y381873D02*
G01*
X-4491718Y381873D01*
X-4521786Y381873D02*
G01*
X-4491718Y361826D01*
X-4521786Y361826D02*
G01*
X-4491718Y361826D01*
X-4521786Y352377D02*
G01*
X-4491718Y352377D01*
X-4521786Y352377D02*
G01*
X-4521786Y342354D01*
X-4520355Y338058D01*
X-4517491Y335194D01*
X-4514627Y333764D01*
X-4510331Y332332D01*
X-4503173Y332332D01*
X-4498877Y333764D01*
X-4496014Y335194D01*
X-4493150Y338058D01*
X-4491718Y342354D01*
X-4491718Y352377D01*
X-4421786Y400199D02*
G01*
X-4391718Y400199D01*
X-4421786Y400199D02*
G01*
X-4421786Y390176D01*
X-4420355Y385882D01*
X-4417491Y383018D01*
X-4414627Y381586D01*
X-4410331Y380154D01*
X-4403172Y380154D01*
X-4398877Y381586D01*
X-4396013Y383018D01*
X-4393149Y385882D01*
X-4391718Y390176D01*
X-4391718Y400199D01*
X-4416058Y370704D02*
G01*
X-4417491Y367840D01*
X-4421786Y363544D01*
X-4391718Y363544D01*
X-4321786Y400199D02*
G01*
X-4291718Y400199D01*
X-4321786Y400199D02*
G01*
X-4321786Y390176D01*
X-4320355Y385882D01*
X-4317491Y383018D01*
X-4314627Y381586D01*
X-4310331Y380154D01*
X-4303172Y380154D01*
X-4298877Y381586D01*
X-4296013Y383018D01*
X-4293149Y385882D01*
X-4291718Y390176D01*
X-4291718Y400199D01*
X-4321786Y362114D02*
G01*
X-4320355Y366408D01*
X-4316058Y369272D01*
X-4308900Y370704D01*
X-4304605Y370704D01*
X-4297444Y369272D01*
X-4293149Y366408D01*
X-4291718Y362114D01*
X-4291718Y359250D01*
X-4293149Y354954D01*
X-4297444Y352091D01*
X-4304605Y350659D01*
X-4308900Y350659D01*
X-4316058Y352091D01*
X-4320355Y354954D01*
X-4321786Y359250D01*
X-4321786Y362114D01*
X-4721786Y400199D02*
G01*
X-4691718Y400199D01*
X-4721786Y400199D02*
G01*
X-4721786Y390176D01*
X-4720355Y385882D01*
X-4717491Y383018D01*
X-4714627Y381586D01*
X-4710331Y380154D01*
X-4703173Y380154D01*
X-4698877Y381586D01*
X-4696014Y383018D01*
X-4693150Y385882D01*
X-4691718Y390176D01*
X-4691718Y400199D01*
X-4714627Y369272D02*
G01*
X-4716059Y369272D01*
X-4718923Y367840D01*
X-4720355Y366408D01*
X-4721786Y363544D01*
X-4721786Y357818D01*
X-4720355Y354954D01*
X-4718923Y353523D01*
X-4716059Y352091D01*
X-4713195Y352091D01*
X-4710331Y353523D01*
X-4706035Y356386D01*
X-4691718Y370704D01*
X-4691718Y350659D01*
D11*
X-4840000Y340000D02*
G01*
X-4740000Y340000D01*
X-4740000Y240000D01*
M02*
