G04 Layer: TopSilkscreenLayer*
G04 EasyEDA v6.5.23, 2023-09-23 11:22:25*
G04 fbaf7024bf8343fa847bd74e200e9744,10*
G04 Gerber Generator version 0.2*
G04 Scale: 100 percent, Rotated: No, Reflected: No *
G04 Dimensions in inches *
G04 leading zeros omitted , absolute positions ,3 integer and 6 decimal *
%FSLAX36Y36*%
%MOIN*%

%ADD10C,0.0080*%
%ADD11C,0.0059*%
%ADD12C,0.0060*%
%ADD13C,0.0100*%
%ADD14C,0.0150*%
%ADD15C,0.0191*%

%LPD*%
D10*
X-4755000Y-198800D02*
G01*
X-4747700Y-195199D01*
X-4736799Y-184299D01*
X-4736799Y-260599D01*
X-4653200Y-184299D02*
G01*
X-4653200Y-235199D01*
X-4653200Y-253400D02*
G01*
X-4656799Y-256999D01*
X-4653200Y-260599D01*
X-4649499Y-256999D01*
X-4653200Y-253400D01*
X-4396400Y-202500D02*
G01*
X-4396400Y-198800D01*
X-4392700Y-191500D01*
X-4389099Y-187899D01*
X-4381800Y-184299D01*
X-4367299Y-184299D01*
X-4360000Y-187899D01*
X-4356400Y-191500D01*
X-4352700Y-198800D01*
X-4352700Y-206100D01*
X-4356400Y-213400D01*
X-4363599Y-224299D01*
X-4400000Y-260599D01*
X-4349099Y-260599D01*
X-4214499Y-213400D02*
G01*
X-4218199Y-206100D01*
X-4225500Y-202500D01*
X-4236400Y-202500D01*
X-4243599Y-206100D01*
X-4247299Y-209699D01*
X-4250900Y-220599D01*
X-4250900Y-231500D01*
X-4247299Y-238800D01*
X-4240000Y-242500D01*
X-4229099Y-242500D01*
X-4221800Y-238800D01*
X-4218199Y-231500D01*
X-4236400Y-202500D02*
G01*
X-4243599Y-209699D01*
X-4247299Y-220599D01*
X-4247299Y-231500D01*
X-4243599Y-238800D01*
X-4240000Y-242500D01*
X-4214499Y-202500D02*
G01*
X-4218199Y-231500D01*
X-4218199Y-238800D01*
X-4210900Y-242500D01*
X-4203599Y-242500D01*
X-4196400Y-235199D01*
X-4192700Y-224299D01*
X-4192700Y-216999D01*
X-4196400Y-206100D01*
X-4200000Y-198800D01*
X-4207299Y-191500D01*
X-4214499Y-187899D01*
X-4225500Y-184299D01*
X-4236400Y-184299D01*
X-4247299Y-187899D01*
X-4254499Y-191500D01*
X-4261800Y-198800D01*
X-4265500Y-206100D01*
X-4269099Y-216999D01*
X-4269099Y-227899D01*
X-4265500Y-238800D01*
X-4261800Y-246100D01*
X-4254499Y-253400D01*
X-4247299Y-256999D01*
X-4236400Y-260599D01*
X-4225500Y-260599D01*
X-4214499Y-256999D01*
X-4207299Y-253400D01*
X-4203599Y-249699D01*
X-4210900Y-202500D02*
G01*
X-4214499Y-231500D01*
X-4214499Y-238800D01*
X-4210900Y-242500D01*
X-3992700Y-184299D02*
G01*
X-3952700Y-184299D01*
X-3974499Y-213400D01*
X-3963599Y-213400D01*
X-3956400Y-216999D01*
X-3952700Y-220599D01*
X-3949099Y-231500D01*
X-3949099Y-238800D01*
X-3952700Y-249699D01*
X-3960000Y-256999D01*
X-3970900Y-260599D01*
X-3981800Y-260599D01*
X-3992700Y-256999D01*
X-3996400Y-253400D01*
X-4000000Y-246100D01*
X-3840000Y-169699D02*
G01*
X-3865500Y-286100D01*
X-3818199Y-169699D02*
G01*
X-3843599Y-286100D01*
X-3865500Y-216999D02*
G01*
X-3814499Y-216999D01*
X-3869099Y-238800D02*
G01*
X-3818199Y-238800D01*
X-3563599Y-184299D02*
G01*
X-3600000Y-235199D01*
X-3545500Y-235199D01*
X-3563599Y-184299D02*
G01*
X-3563599Y-260599D01*
X-3447299Y-169699D02*
G01*
X-3447299Y-275199D01*
X-3432700Y-169699D02*
G01*
X-3432700Y-275199D01*
X-3414499Y-195199D02*
G01*
X-3421800Y-187899D01*
X-3432700Y-184299D01*
X-3447299Y-184299D01*
X-3458199Y-187899D01*
X-3465500Y-195199D01*
X-3465500Y-202500D01*
X-3461800Y-209699D01*
X-3458199Y-213400D01*
X-3450900Y-216999D01*
X-3429099Y-224299D01*
X-3421800Y-227899D01*
X-3418199Y-231500D01*
X-3414499Y-238800D01*
X-3414499Y-249699D01*
X-3421800Y-256999D01*
X-3432700Y-260599D01*
X-3447299Y-260599D01*
X-3458199Y-256999D01*
X-3465500Y-249699D01*
X-3156400Y-184299D02*
G01*
X-3192700Y-184299D01*
X-3196400Y-216999D01*
X-3192700Y-213400D01*
X-3181800Y-209699D01*
X-3170900Y-209699D01*
X-3160000Y-213400D01*
X-3152700Y-220599D01*
X-3149099Y-231500D01*
X-3149099Y-238800D01*
X-3152700Y-249699D01*
X-3160000Y-256999D01*
X-3170900Y-260599D01*
X-3181800Y-260599D01*
X-3192700Y-256999D01*
X-3196400Y-253400D01*
X-3200000Y-246100D01*
X-3003599Y-184299D02*
G01*
X-3069099Y-260599D01*
X-3050900Y-184299D02*
G01*
X-3043599Y-191500D01*
X-3043599Y-198800D01*
X-3047299Y-206100D01*
X-3054499Y-209699D01*
X-3061800Y-209699D01*
X-3069099Y-202500D01*
X-3069099Y-195199D01*
X-3065500Y-187899D01*
X-3058199Y-184299D01*
X-3050900Y-184299D01*
X-3043599Y-187899D01*
X-3032700Y-191500D01*
X-3021800Y-191500D01*
X-3010900Y-187899D01*
X-3003599Y-184299D01*
X-3018199Y-235199D02*
G01*
X-3025500Y-238800D01*
X-3029099Y-246100D01*
X-3029099Y-253400D01*
X-3021800Y-260599D01*
X-3014499Y-260599D01*
X-3007299Y-256999D01*
X-3003599Y-249699D01*
X-3003599Y-242500D01*
X-3010900Y-235199D01*
X-3018199Y-235199D01*
X-2746400Y-195199D02*
G01*
X-2750000Y-187899D01*
X-2760900Y-184299D01*
X-2768199Y-184299D01*
X-2779099Y-187899D01*
X-2786400Y-198800D01*
X-2790000Y-216999D01*
X-2790000Y-235199D01*
X-2786400Y-249699D01*
X-2779099Y-256999D01*
X-2768199Y-260599D01*
X-2764499Y-260599D01*
X-2753599Y-256999D01*
X-2746400Y-249699D01*
X-2742700Y-238800D01*
X-2742700Y-235199D01*
X-2746400Y-224299D01*
X-2753599Y-216999D01*
X-2764499Y-213400D01*
X-2768199Y-213400D01*
X-2779099Y-216999D01*
X-2786400Y-224299D01*
X-2790000Y-235199D01*
X-2633599Y-176999D02*
G01*
X-2662700Y-227899D01*
X-2633599Y-176999D02*
G01*
X-2604499Y-227899D01*
X-2349099Y-184299D02*
G01*
X-2385500Y-260599D01*
X-2400000Y-184299D02*
G01*
X-2349099Y-184299D01*
X-2196400Y-216999D02*
G01*
X-2196400Y-213400D01*
X-2200000Y-209699D01*
X-2203599Y-209699D01*
X-2207299Y-213400D01*
X-2210900Y-220599D01*
X-2218199Y-238800D01*
X-2225500Y-249699D01*
X-2232700Y-256999D01*
X-2240000Y-260599D01*
X-2254499Y-260599D01*
X-2261800Y-256999D01*
X-2265500Y-253400D01*
X-2269099Y-246100D01*
X-2269099Y-238800D01*
X-2265500Y-231500D01*
X-2261800Y-227899D01*
X-2236400Y-213400D01*
X-2232700Y-209699D01*
X-2229099Y-202500D01*
X-2229099Y-195199D01*
X-2232700Y-187899D01*
X-2240000Y-184299D01*
X-2247299Y-187899D01*
X-2250900Y-195199D01*
X-2250900Y-202500D01*
X-2247299Y-213400D01*
X-2240000Y-224299D01*
X-2221800Y-249699D01*
X-2214499Y-256999D01*
X-2207299Y-260599D01*
X-2200000Y-260599D01*
X-2196400Y-256999D01*
X-2196400Y-253400D01*
X-1971800Y-184299D02*
G01*
X-1982700Y-187899D01*
X-1986400Y-195199D01*
X-1986400Y-202500D01*
X-1982700Y-209699D01*
X-1975500Y-213400D01*
X-1960900Y-216999D01*
X-1950000Y-220599D01*
X-1942700Y-227899D01*
X-1939099Y-235199D01*
X-1939099Y-246100D01*
X-1942700Y-253400D01*
X-1946400Y-256999D01*
X-1957299Y-260599D01*
X-1971800Y-260599D01*
X-1982700Y-256999D01*
X-1986400Y-253400D01*
X-1990000Y-246100D01*
X-1990000Y-235199D01*
X-1986400Y-227899D01*
X-1979099Y-220599D01*
X-1968199Y-216999D01*
X-1953599Y-213400D01*
X-1946400Y-209699D01*
X-1942700Y-202500D01*
X-1942700Y-195199D01*
X-1946400Y-187899D01*
X-1957299Y-184299D01*
X-1971800Y-184299D01*
X-1840900Y-206100D02*
G01*
X-1840900Y-249699D01*
X-1859099Y-216999D02*
G01*
X-1822700Y-238800D01*
X-1822700Y-216999D02*
G01*
X-1859099Y-238800D01*
X-1542700Y-209699D02*
G01*
X-1546400Y-220599D01*
X-1553599Y-227899D01*
X-1564499Y-231500D01*
X-1568199Y-231500D01*
X-1579099Y-227899D01*
X-1586400Y-220599D01*
X-1590000Y-209699D01*
X-1590000Y-206100D01*
X-1586400Y-195199D01*
X-1579099Y-187899D01*
X-1568199Y-184299D01*
X-1564499Y-184299D01*
X-1553599Y-187899D01*
X-1546400Y-195199D01*
X-1542700Y-209699D01*
X-1542700Y-227899D01*
X-1546400Y-246100D01*
X-1553599Y-256999D01*
X-1564499Y-260599D01*
X-1571800Y-260599D01*
X-1582700Y-256999D01*
X-1586400Y-249699D01*
X-1437299Y-169699D02*
G01*
X-1444499Y-176999D01*
X-1451800Y-187899D01*
X-1459099Y-202500D01*
X-1462700Y-220599D01*
X-1462700Y-235199D01*
X-1459099Y-253400D01*
X-1451800Y-267899D01*
X-1444499Y-278800D01*
X-1437299Y-286100D01*
X-1153199Y-184299D02*
G01*
X-1164099Y-187899D01*
X-1171400Y-198800D01*
X-1175000Y-216999D01*
X-1175000Y-227899D01*
X-1171400Y-246100D01*
X-1164099Y-256999D01*
X-1153199Y-260599D01*
X-1145900Y-260599D01*
X-1135000Y-256999D01*
X-1127700Y-246100D01*
X-1124099Y-227899D01*
X-1124099Y-216999D01*
X-1127700Y-198800D01*
X-1135000Y-187899D01*
X-1145900Y-184299D01*
X-1153199Y-184299D01*
X-1044099Y-169699D02*
G01*
X-1036800Y-176999D01*
X-1029499Y-187899D01*
X-1022299Y-202500D01*
X-1018599Y-220599D01*
X-1018599Y-235199D01*
X-1022299Y-253400D01*
X-1029499Y-267899D01*
X-1036800Y-278800D01*
X-1044099Y-286100D01*
X-735000Y-192899D02*
G01*
X-669499Y-192899D01*
X-297299Y-165199D02*
G01*
X-297299Y-230599D01*
X-330000Y-197899D02*
G01*
X-264499Y-197899D01*
X-355000Y-684699D02*
G01*
X-347700Y-688400D01*
X-344099Y-691999D01*
X-340500Y-699299D01*
X-340500Y-706500D01*
X-344099Y-713800D01*
X-347700Y-717500D01*
X-351400Y-724699D01*
X-351400Y-731999D01*
X-344099Y-739299D01*
X-347700Y-688400D02*
G01*
X-344099Y-695599D01*
X-344099Y-702899D01*
X-347700Y-710199D01*
X-351400Y-713800D01*
X-355000Y-721100D01*
X-355000Y-728400D01*
X-351400Y-735599D01*
X-336800Y-742899D01*
X-351400Y-750199D01*
X-355000Y-757500D01*
X-355000Y-764699D01*
X-351400Y-771999D01*
X-347700Y-775599D01*
X-344099Y-782899D01*
X-344099Y-790199D01*
X-347700Y-797500D01*
X-344099Y-746500D02*
G01*
X-351400Y-753800D01*
X-351400Y-761100D01*
X-347700Y-768400D01*
X-344099Y-771999D01*
X-340500Y-779299D01*
X-340500Y-786500D01*
X-344099Y-793800D01*
X-347700Y-797500D01*
X-355000Y-801100D01*
X-235000Y-684699D02*
G01*
X-235000Y-801100D01*
X-231400Y-684699D02*
G01*
X-231400Y-801100D01*
X-256800Y-684699D02*
G01*
X-231400Y-684699D01*
X-256800Y-801100D02*
G01*
X-231400Y-801100D01*
X-741800Y-684699D02*
G01*
X-749099Y-688400D01*
X-752700Y-691999D01*
X-756400Y-699299D01*
X-756400Y-706500D01*
X-752700Y-713800D01*
X-749099Y-717500D01*
X-745500Y-724699D01*
X-745500Y-731999D01*
X-752700Y-739299D01*
X-749099Y-688400D02*
G01*
X-752700Y-695599D01*
X-752700Y-702899D01*
X-749099Y-710199D01*
X-745500Y-713800D01*
X-741800Y-721100D01*
X-741800Y-728400D01*
X-745500Y-735599D01*
X-760000Y-742899D01*
X-745500Y-750199D01*
X-741800Y-757500D01*
X-741800Y-764699D01*
X-745500Y-771999D01*
X-749099Y-775599D01*
X-752700Y-782899D01*
X-752700Y-790199D01*
X-749099Y-797500D01*
X-752700Y-746500D02*
G01*
X-745500Y-753800D01*
X-745500Y-761100D01*
X-749099Y-768400D01*
X-752700Y-771999D01*
X-756400Y-779299D01*
X-756400Y-786500D01*
X-752700Y-793800D01*
X-749099Y-797500D01*
X-741800Y-801100D01*
X-661800Y-684699D02*
G01*
X-661800Y-801100D01*
X-658199Y-684699D02*
G01*
X-658199Y-801100D01*
X-661800Y-684699D02*
G01*
X-636400Y-684699D01*
X-661800Y-801100D02*
G01*
X-636400Y-801100D01*
X-1120000Y-684299D02*
G01*
X-1120000Y-760599D01*
X-1120000Y-684299D02*
G01*
X-1087299Y-684299D01*
X-1076400Y-687899D01*
X-1072700Y-691500D01*
X-1069099Y-698800D01*
X-1069099Y-709699D01*
X-1072700Y-716999D01*
X-1076400Y-720599D01*
X-1087299Y-724299D01*
X-1120000Y-724299D01*
X-1498199Y-684299D02*
G01*
X-1505500Y-687899D01*
X-1512700Y-695199D01*
X-1516400Y-702500D01*
X-1520000Y-713400D01*
X-1520000Y-731500D01*
X-1516400Y-742500D01*
X-1512700Y-749699D01*
X-1505500Y-756999D01*
X-1498199Y-760599D01*
X-1483599Y-760599D01*
X-1476400Y-756999D01*
X-1469099Y-749699D01*
X-1465500Y-742500D01*
X-1461800Y-731500D01*
X-1461800Y-713400D01*
X-1465500Y-702500D01*
X-1469099Y-695199D01*
X-1476400Y-687899D01*
X-1483599Y-684299D01*
X-1498199Y-684299D01*
X-1920000Y-684299D02*
G01*
X-1920000Y-760599D01*
X-2320000Y-684299D02*
G01*
X-2320000Y-738800D01*
X-2316400Y-749699D01*
X-2309099Y-756999D01*
X-2298199Y-760599D01*
X-2290900Y-760599D01*
X-2280000Y-756999D01*
X-2272700Y-749699D01*
X-2269099Y-738800D01*
X-2269099Y-684299D01*
X-2720000Y-684299D02*
G01*
X-2690900Y-720599D01*
X-2690900Y-760599D01*
X-2661800Y-684299D02*
G01*
X-2690900Y-720599D01*
X-3094499Y-684299D02*
G01*
X-3094499Y-760599D01*
X-3120000Y-684299D02*
G01*
X-3069099Y-684299D01*
X-3520000Y-684299D02*
G01*
X-3520000Y-760599D01*
X-3520000Y-684299D02*
G01*
X-3487299Y-684299D01*
X-3476400Y-687899D01*
X-3472700Y-691500D01*
X-3469099Y-698800D01*
X-3469099Y-706100D01*
X-3472700Y-713400D01*
X-3476400Y-716999D01*
X-3487299Y-720599D01*
X-3520000Y-720599D01*
X-3494499Y-720599D02*
G01*
X-3469099Y-760599D01*
X-3920000Y-684299D02*
G01*
X-3920000Y-760599D01*
X-3920000Y-684299D02*
G01*
X-3872700Y-684299D01*
X-3920000Y-720599D02*
G01*
X-3890900Y-720599D01*
X-3920000Y-760599D02*
G01*
X-3872700Y-760599D01*
X-4320000Y-684299D02*
G01*
X-4301800Y-760599D01*
X-4283599Y-684299D02*
G01*
X-4301800Y-760599D01*
X-4283599Y-684299D02*
G01*
X-4265500Y-760599D01*
X-4247299Y-684299D02*
G01*
X-4265500Y-760599D01*
X-4698200Y-684299D02*
G01*
X-4705500Y-687899D01*
X-4712700Y-695199D01*
X-4716399Y-702500D01*
X-4720000Y-713400D01*
X-4720000Y-731500D01*
X-4716399Y-742500D01*
X-4712700Y-749699D01*
X-4705500Y-756999D01*
X-4698200Y-760599D01*
X-4683600Y-760599D01*
X-4676399Y-756999D01*
X-4669099Y-749699D01*
X-4665500Y-742500D01*
X-4661799Y-731500D01*
X-4661799Y-713400D01*
X-4665500Y-702500D01*
X-4669099Y-695199D01*
X-4676399Y-687899D01*
X-4683600Y-684299D01*
X-4698200Y-684299D01*
X-4687300Y-746100D02*
G01*
X-4665500Y-767899D01*
X-750000Y-247899D02*
G01*
X-684499Y-247899D01*
X-715000Y-247899D02*
G01*
X-649499Y-247899D01*
X-330000Y-271999D02*
G01*
X-264499Y-271999D01*
X-330000Y-293800D02*
G01*
X-264499Y-293800D01*
X-4695900Y-1184299D02*
G01*
X-4725000Y-1260599D01*
X-4695900Y-1184299D02*
G01*
X-4666799Y-1260599D01*
X-4714099Y-1235199D02*
G01*
X-4677700Y-1235199D01*
X-4274099Y-1195199D02*
G01*
X-4281400Y-1187899D01*
X-4292299Y-1184299D01*
X-4306800Y-1184299D01*
X-4317700Y-1187899D01*
X-4325000Y-1195199D01*
X-4325000Y-1202500D01*
X-4321400Y-1209699D01*
X-4317700Y-1213400D01*
X-4310500Y-1216999D01*
X-4288599Y-1224299D01*
X-4281400Y-1227899D01*
X-4277700Y-1231500D01*
X-4274099Y-1238800D01*
X-4274099Y-1249699D01*
X-4281400Y-1256999D01*
X-4292299Y-1260599D01*
X-4306800Y-1260599D01*
X-4317700Y-1256999D01*
X-4325000Y-1249699D01*
X-3925000Y-1184299D02*
G01*
X-3925000Y-1260599D01*
X-3925000Y-1184299D02*
G01*
X-3899499Y-1184299D01*
X-3888599Y-1187899D01*
X-3881400Y-1195199D01*
X-3877700Y-1202500D01*
X-3874099Y-1213400D01*
X-3874099Y-1231500D01*
X-3877700Y-1242500D01*
X-3881400Y-1249699D01*
X-3888599Y-1256999D01*
X-3899499Y-1260599D01*
X-3925000Y-1260599D01*
X-3525000Y-1184299D02*
G01*
X-3525000Y-1260599D01*
X-3525000Y-1184299D02*
G01*
X-3477700Y-1184299D01*
X-3525000Y-1220599D02*
G01*
X-3495900Y-1220599D01*
X-3070500Y-1202500D02*
G01*
X-3074099Y-1195199D01*
X-3081400Y-1187899D01*
X-3088599Y-1184299D01*
X-3103199Y-1184299D01*
X-3110500Y-1187899D01*
X-3117700Y-1195199D01*
X-3121400Y-1202500D01*
X-3125000Y-1213400D01*
X-3125000Y-1231500D01*
X-3121400Y-1242500D01*
X-3117700Y-1249699D01*
X-3110500Y-1256999D01*
X-3103199Y-1260599D01*
X-3088599Y-1260599D01*
X-3081400Y-1256999D01*
X-3074099Y-1249699D01*
X-3070500Y-1242500D01*
X-3070500Y-1231500D01*
X-3088599Y-1231500D02*
G01*
X-3070500Y-1231500D01*
X-2725000Y-1184299D02*
G01*
X-2725000Y-1260599D01*
X-2674099Y-1184299D02*
G01*
X-2674099Y-1260599D01*
X-2725000Y-1220599D02*
G01*
X-2674099Y-1220599D01*
X-2288599Y-1184299D02*
G01*
X-2288599Y-1242500D01*
X-2292299Y-1253400D01*
X-2295900Y-1256999D01*
X-2303199Y-1260599D01*
X-2310500Y-1260599D01*
X-2317700Y-1256999D01*
X-2321400Y-1253400D01*
X-2325000Y-1242500D01*
X-2325000Y-1235199D01*
X-1925000Y-1184299D02*
G01*
X-1925000Y-1260599D01*
X-1874099Y-1184299D02*
G01*
X-1925000Y-1235199D01*
X-1906800Y-1216999D02*
G01*
X-1874099Y-1260599D01*
X-1525000Y-1184299D02*
G01*
X-1525000Y-1260599D01*
X-1525000Y-1260599D02*
G01*
X-1481400Y-1260599D01*
X-1146400Y-1206999D02*
G01*
X-1150000Y-1210599D01*
X-1146400Y-1214299D01*
X-1142700Y-1210599D01*
X-1146400Y-1206999D01*
X-1142700Y-1236100D02*
G01*
X-1146400Y-1239699D01*
X-1150000Y-1236100D01*
X-1146400Y-1232500D01*
X-1142700Y-1236100D01*
X-1142700Y-1243400D01*
X-1150000Y-1250599D01*
X-1059099Y-1206999D02*
G01*
X-1062700Y-1210599D01*
X-1059099Y-1214299D01*
X-1055500Y-1210599D01*
X-1059099Y-1206999D01*
X-1059099Y-1232500D02*
G01*
X-1062700Y-1236100D01*
X-1059099Y-1239699D01*
X-1055500Y-1236100D01*
X-1059099Y-1232500D01*
X-757700Y-1203400D02*
G01*
X-757700Y-1225199D01*
X-685000Y-1214299D02*
G01*
X-685000Y-1239699D01*
X-655900Y-1214299D02*
G01*
X-655900Y-1239699D01*
X-1965000Y-2179299D02*
G01*
X-1914099Y-2266500D01*
X-1834099Y-2164699D02*
G01*
X-1834099Y-2281100D01*
X-4674099Y-1684299D02*
G01*
X-4725000Y-1760599D01*
X-4725000Y-1684299D02*
G01*
X-4674099Y-1684299D01*
X-4725000Y-1760599D02*
G01*
X-4674099Y-1760599D01*
X-4325000Y-1684299D02*
G01*
X-4274099Y-1760599D01*
X-4274099Y-1684299D02*
G01*
X-4325000Y-1760599D01*
X-3870500Y-1702500D02*
G01*
X-3874099Y-1695199D01*
X-3881400Y-1687899D01*
X-3888599Y-1684299D01*
X-3903199Y-1684299D01*
X-3910500Y-1687899D01*
X-3917700Y-1695199D01*
X-3921400Y-1702500D01*
X-3925000Y-1713400D01*
X-3925000Y-1731500D01*
X-3921400Y-1742500D01*
X-3917700Y-1749699D01*
X-3910500Y-1756999D01*
X-3903199Y-1760599D01*
X-3888599Y-1760599D01*
X-3881400Y-1756999D01*
X-3874099Y-1749699D01*
X-3870500Y-1742500D01*
X-3525000Y-1684299D02*
G01*
X-3495900Y-1760599D01*
X-3466800Y-1684299D02*
G01*
X-3495900Y-1760599D01*
X-3125000Y-1684299D02*
G01*
X-3125000Y-1760599D01*
X-3125000Y-1684299D02*
G01*
X-3092299Y-1684299D01*
X-3081400Y-1687899D01*
X-3077700Y-1691500D01*
X-3074099Y-1698800D01*
X-3074099Y-1706100D01*
X-3077700Y-1713400D01*
X-3081400Y-1716999D01*
X-3092299Y-1720599D01*
X-3125000Y-1720599D02*
G01*
X-3092299Y-1720599D01*
X-3081400Y-1724299D01*
X-3077700Y-1727899D01*
X-3074099Y-1735199D01*
X-3074099Y-1746100D01*
X-3077700Y-1753400D01*
X-3081400Y-1756999D01*
X-3092299Y-1760599D01*
X-3125000Y-1760599D01*
X-2725000Y-1684299D02*
G01*
X-2725000Y-1760599D01*
X-2725000Y-1684299D02*
G01*
X-2674099Y-1760599D01*
X-2674099Y-1684299D02*
G01*
X-2674099Y-1760599D01*
X-2325000Y-1684299D02*
G01*
X-2325000Y-1760599D01*
X-2325000Y-1684299D02*
G01*
X-2295900Y-1760599D01*
X-2266800Y-1684299D02*
G01*
X-2295900Y-1760599D01*
X-2266800Y-1684299D02*
G01*
X-2266800Y-1760599D01*
X-1967700Y-1746100D02*
G01*
X-1971400Y-1749699D01*
X-1975000Y-1746100D01*
X-1971400Y-1742500D01*
X-1967700Y-1746100D01*
X-1967700Y-1753400D01*
X-1975000Y-1760599D01*
X-1829499Y-1695199D02*
G01*
X-1887700Y-1727899D01*
X-1829499Y-1760599D01*
X-1571400Y-1742500D02*
G01*
X-1575000Y-1746100D01*
X-1571400Y-1749699D01*
X-1567700Y-1746100D01*
X-1571400Y-1742500D01*
X-1487700Y-1695199D02*
G01*
X-1429499Y-1727899D01*
X-1487700Y-1760599D01*
X-1129499Y-1669699D02*
G01*
X-1195000Y-1786100D01*
X-1049499Y-1702500D02*
G01*
X-1049499Y-1698800D01*
X-1045900Y-1691500D01*
X-1042299Y-1687899D01*
X-1035000Y-1684299D01*
X-1020500Y-1684299D01*
X-1013199Y-1687899D01*
X-1009499Y-1691500D01*
X-1005900Y-1698800D01*
X-1005900Y-1706100D01*
X-1009499Y-1713400D01*
X-1013199Y-1716999D01*
X-1027700Y-1724299D01*
X-1027700Y-1735199D01*
X-1027700Y-1753400D02*
G01*
X-1031400Y-1756999D01*
X-1027700Y-1760599D01*
X-1024099Y-1756999D01*
X-1027700Y-1753400D01*
X-1582700Y-2188400D02*
G01*
X-1575500Y-2210200D01*
X-1502700Y-2253800D02*
G01*
X-1502700Y-2246500D01*
X-1499099Y-2235599D01*
X-1491800Y-2231999D01*
X-1484499Y-2231999D01*
X-1477299Y-2235599D01*
X-1462700Y-2246500D01*
X-1455500Y-2250200D01*
X-1448199Y-2250200D01*
X-1440900Y-2246500D01*
X-1437299Y-2239299D01*
X-1502700Y-2246500D02*
G01*
X-1499099Y-2239299D01*
X-1491800Y-2235599D01*
X-1484499Y-2235599D01*
X-1477299Y-2239299D01*
X-1462700Y-2250200D01*
X-1455500Y-2253800D01*
X-1448199Y-2253800D01*
X-1440900Y-2250200D01*
X-1437299Y-2239299D01*
X-1437299Y-2231999D01*
X-450000Y-1699299D02*
G01*
X-450000Y-1775599D01*
X-450000Y-1699299D02*
G01*
X-402700Y-1699299D01*
X-450000Y-1735599D02*
G01*
X-420900Y-1735599D01*
X-450000Y-1775599D02*
G01*
X-402700Y-1775599D01*
X-378699Y-1699299D02*
G01*
X-378699Y-1775599D01*
X-378699Y-1699299D02*
G01*
X-327799Y-1775599D01*
X-327799Y-1699299D02*
G01*
X-327799Y-1775599D01*
X-278400Y-1699299D02*
G01*
X-278400Y-1775599D01*
X-303800Y-1699299D02*
G01*
X-252899Y-1699299D01*
X-228900Y-1699299D02*
G01*
X-228900Y-1775599D01*
X-228900Y-1699299D02*
G01*
X-181599Y-1699299D01*
X-228900Y-1735599D02*
G01*
X-199799Y-1735599D01*
X-228900Y-1775599D02*
G01*
X-181599Y-1775599D01*
X-157600Y-1699299D02*
G01*
X-157600Y-1775599D01*
X-157600Y-1699299D02*
G01*
X-124899Y-1699299D01*
X-113999Y-1702899D01*
X-110399Y-1706500D01*
X-106700Y-1713800D01*
X-106700Y-1721100D01*
X-110399Y-1728400D01*
X-113999Y-1731999D01*
X-124899Y-1735599D01*
X-157600Y-1735599D01*
X-132200Y-1735599D02*
G01*
X-106700Y-1775599D01*
X-4370900Y-2189299D02*
G01*
X-4400000Y-2265599D01*
X-4370900Y-2189299D02*
G01*
X-4341800Y-2265599D01*
X-4389099Y-2240200D02*
G01*
X-4352700Y-2240200D01*
X-4317799Y-2189299D02*
G01*
X-4317799Y-2265599D01*
X-4317799Y-2265599D02*
G01*
X-4274200Y-2265599D01*
X-4224700Y-2189299D02*
G01*
X-4224700Y-2265599D01*
X-4250200Y-2189299D02*
G01*
X-4199300Y-2189299D01*
X-4755500Y-2202500D02*
G01*
X-4759099Y-2195200D01*
X-4766399Y-2187899D01*
X-4773600Y-2184299D01*
X-4788200Y-2184299D01*
X-4795500Y-2187899D01*
X-4802700Y-2195200D01*
X-4806399Y-2202500D01*
X-4810000Y-2213400D01*
X-4810000Y-2231500D01*
X-4806399Y-2242500D01*
X-4802700Y-2249699D01*
X-4795500Y-2256999D01*
X-4788200Y-2260599D01*
X-4773600Y-2260599D01*
X-4766399Y-2256999D01*
X-4759099Y-2249699D01*
X-4755500Y-2242500D01*
X-4705999Y-2184299D02*
G01*
X-4705999Y-2260599D01*
X-4731500Y-2184299D02*
G01*
X-4680500Y-2184299D01*
X-4656500Y-2184299D02*
G01*
X-4656500Y-2260599D01*
X-4656500Y-2184299D02*
G01*
X-4623800Y-2184299D01*
X-4612900Y-2187899D01*
X-4609299Y-2191500D01*
X-4605599Y-2198800D01*
X-4605599Y-2206100D01*
X-4609299Y-2213400D01*
X-4612900Y-2216999D01*
X-4623800Y-2220599D01*
X-4656500Y-2220599D01*
X-4631100Y-2220599D02*
G01*
X-4605599Y-2260599D01*
X-4581599Y-2184299D02*
G01*
X-4581599Y-2260599D01*
X-4581599Y-2260599D02*
G01*
X-4538000Y-2260599D01*
X-1141800Y-2200200D02*
G01*
X-1200000Y-2232899D01*
X-1141800Y-2265599D01*
X-1059600Y-2200200D02*
G01*
X-1117799Y-2232899D01*
X-1059600Y-2265599D01*
X-298199Y-2264800D02*
G01*
X-240000Y-2232100D01*
X-298199Y-2199400D01*
X-380399Y-2264800D02*
G01*
X-322200Y-2232100D01*
X-380399Y-2199400D01*
X-670200Y-1738200D02*
G01*
X-702899Y-1680000D01*
X-735600Y-1738200D01*
X-670200Y-1820399D02*
G01*
X-702899Y-1762199D01*
X-735600Y-1820399D01*
X-670200Y-2203200D02*
G01*
X-702899Y-2145000D01*
X-735600Y-2203200D01*
X-670200Y-2285399D02*
G01*
X-702899Y-2227199D01*
X-735600Y-2285399D01*
X-3989099Y-2200200D02*
G01*
X-3996400Y-2192899D01*
X-4007299Y-2189299D01*
X-4021800Y-2189299D01*
X-4032700Y-2192899D01*
X-4040000Y-2200200D01*
X-4040000Y-2207500D01*
X-4036400Y-2214699D01*
X-4032700Y-2218400D01*
X-4025500Y-2221999D01*
X-4003599Y-2229299D01*
X-3996400Y-2232899D01*
X-3992700Y-2236500D01*
X-3989099Y-2243800D01*
X-3989099Y-2254699D01*
X-3996400Y-2261999D01*
X-4007299Y-2265599D01*
X-4021800Y-2265599D01*
X-4032700Y-2261999D01*
X-4040000Y-2254699D01*
X-3965100Y-2189299D02*
G01*
X-3965100Y-2265599D01*
X-3914200Y-2189299D02*
G01*
X-3914200Y-2265599D01*
X-3965100Y-2225599D02*
G01*
X-3914200Y-2225599D01*
X-3890200Y-2189299D02*
G01*
X-3890200Y-2265599D01*
X-3866199Y-2189299D02*
G01*
X-3866199Y-2265599D01*
X-3866199Y-2189299D02*
G01*
X-3818900Y-2189299D01*
X-3866199Y-2225599D02*
G01*
X-3837100Y-2225599D01*
X-3769499Y-2189299D02*
G01*
X-3769499Y-2265599D01*
X-3794899Y-2189299D02*
G01*
X-3743999Y-2189299D01*
X-3590000Y-2189299D02*
G01*
X-3571800Y-2265599D01*
X-3553599Y-2189299D02*
G01*
X-3571800Y-2265599D01*
X-3553599Y-2189299D02*
G01*
X-3535500Y-2265599D01*
X-3517299Y-2189299D02*
G01*
X-3535500Y-2265599D01*
X-3493299Y-2189299D02*
G01*
X-3493299Y-2265599D01*
X-3469300Y-2189299D02*
G01*
X-3469300Y-2265599D01*
X-3469300Y-2189299D02*
G01*
X-3418400Y-2265599D01*
X-3418400Y-2189299D02*
G01*
X-3418400Y-2265599D01*
X-3195000Y-2194299D02*
G01*
X-3195000Y-2270599D01*
X-3195000Y-2194299D02*
G01*
X-3147700Y-2194299D01*
X-3195000Y-2230599D02*
G01*
X-3165900Y-2230599D01*
X-3195000Y-2270599D02*
G01*
X-3147700Y-2270599D01*
X-3072799Y-2205200D02*
G01*
X-3080100Y-2197899D01*
X-3091000Y-2194299D01*
X-3105500Y-2194299D01*
X-3116499Y-2197899D01*
X-3123699Y-2205200D01*
X-3123699Y-2212500D01*
X-3120100Y-2219699D01*
X-3116499Y-2223400D01*
X-3109200Y-2226999D01*
X-3087399Y-2234299D01*
X-3080100Y-2237899D01*
X-3076499Y-2241500D01*
X-3072799Y-2248800D01*
X-3072799Y-2259699D01*
X-3080100Y-2266999D01*
X-3091000Y-2270599D01*
X-3105500Y-2270599D01*
X-3116499Y-2266999D01*
X-3123699Y-2259699D01*
X-2994300Y-2212500D02*
G01*
X-2997899Y-2205200D01*
X-3005200Y-2197899D01*
X-3012500Y-2194299D01*
X-3026999Y-2194299D01*
X-3034300Y-2197899D01*
X-3041499Y-2205200D01*
X-3045200Y-2212500D01*
X-3048800Y-2223400D01*
X-3048800Y-2241500D01*
X-3045200Y-2252500D01*
X-3041499Y-2259699D01*
X-3034300Y-2266999D01*
X-3026999Y-2270599D01*
X-3012500Y-2270599D01*
X-3005200Y-2266999D01*
X-2997899Y-2259699D01*
X-2994300Y-2252500D01*
X-355000Y-1174299D02*
G01*
X-355000Y-1250599D01*
X-355000Y-1174299D02*
G01*
X-322299Y-1174299D01*
X-311400Y-1177899D01*
X-307700Y-1181500D01*
X-304099Y-1188800D01*
X-304099Y-1196100D01*
X-307700Y-1203400D01*
X-311400Y-1206999D01*
X-322299Y-1210599D01*
X-355000Y-1210599D02*
G01*
X-322299Y-1210599D01*
X-311400Y-1214299D01*
X-307700Y-1217899D01*
X-304099Y-1225199D01*
X-304099Y-1236100D01*
X-307700Y-1243400D01*
X-311400Y-1246999D01*
X-322299Y-1250599D01*
X-355000Y-1250599D01*
X-229200Y-1185199D02*
G01*
X-236499Y-1177899D01*
X-247399Y-1174299D01*
X-261899Y-1174299D01*
X-272799Y-1177899D01*
X-280100Y-1185199D01*
X-280100Y-1192500D01*
X-276499Y-1199699D01*
X-272799Y-1203400D01*
X-265500Y-1206999D01*
X-243699Y-1214299D01*
X-236499Y-1217899D01*
X-232799Y-1221500D01*
X-229200Y-1228800D01*
X-229200Y-1239699D01*
X-236499Y-1246999D01*
X-247399Y-1250599D01*
X-261899Y-1250599D01*
X-272799Y-1246999D01*
X-280100Y-1239699D01*
X-2624099Y-2205200D02*
G01*
X-2631400Y-2197899D01*
X-2642299Y-2194299D01*
X-2656800Y-2194299D01*
X-2667700Y-2197899D01*
X-2675000Y-2205200D01*
X-2675000Y-2212500D01*
X-2671400Y-2219699D01*
X-2667700Y-2223400D01*
X-2660500Y-2226999D01*
X-2638599Y-2234299D01*
X-2631400Y-2237899D01*
X-2627700Y-2241500D01*
X-2624099Y-2248800D01*
X-2624099Y-2259699D01*
X-2631400Y-2266999D01*
X-2642299Y-2270599D01*
X-2656800Y-2270599D01*
X-2667700Y-2266999D01*
X-2675000Y-2259699D01*
X-2600100Y-2194299D02*
G01*
X-2600100Y-2270599D01*
X-2600100Y-2194299D02*
G01*
X-2567399Y-2194299D01*
X-2556499Y-2197899D01*
X-2552799Y-2201500D01*
X-2549200Y-2208800D01*
X-2549200Y-2219699D01*
X-2552799Y-2226999D01*
X-2556499Y-2230599D01*
X-2567399Y-2234299D01*
X-2600100Y-2234299D01*
X-2496099Y-2194299D02*
G01*
X-2525200Y-2270599D01*
X-2496099Y-2194299D02*
G01*
X-2466999Y-2270599D01*
X-2514300Y-2245200D02*
G01*
X-2477899Y-2245200D01*
X-2388500Y-2212500D02*
G01*
X-2392100Y-2205200D01*
X-2399399Y-2197899D01*
X-2406599Y-2194299D01*
X-2421199Y-2194299D01*
X-2428500Y-2197899D01*
X-2435699Y-2205200D01*
X-2439399Y-2212500D01*
X-2443000Y-2223400D01*
X-2443000Y-2241500D01*
X-2439399Y-2252500D01*
X-2435699Y-2259699D01*
X-2428500Y-2266999D01*
X-2421199Y-2270599D01*
X-2406599Y-2270599D01*
X-2399399Y-2266999D01*
X-2392100Y-2259699D01*
X-2388500Y-2252500D01*
X-2364499Y-2194299D02*
G01*
X-2364499Y-2270599D01*
X-2364499Y-2194299D02*
G01*
X-2317200Y-2194299D01*
X-2364499Y-2230599D02*
G01*
X-2335399Y-2230599D01*
X-2364499Y-2270599D02*
G01*
X-2317200Y-2270599D01*
X-4785900Y645700D02*
G01*
X-4815000Y569400D01*
X-4785900Y645700D02*
G01*
X-4756799Y569400D01*
X-4804099Y594800D02*
G01*
X-4767700Y594800D01*
X-4732800Y645700D02*
G01*
X-4732800Y569400D01*
X-4732800Y645700D02*
G01*
X-4700100Y645700D01*
X-4689200Y642100D01*
X-4685500Y638499D01*
X-4681900Y631199D01*
X-4681900Y623899D01*
X-4685500Y616599D01*
X-4689200Y613000D01*
X-4700100Y609400D01*
X-4732800Y609400D01*
X-4707399Y609400D02*
G01*
X-4681900Y569400D01*
X-4657900Y645700D02*
G01*
X-4657900Y569400D01*
X-4657900Y645700D02*
G01*
X-4632500Y645700D01*
X-4621500Y642100D01*
X-4614299Y634800D01*
X-4610599Y627500D01*
X-4606999Y616599D01*
X-4606999Y598499D01*
X-4610599Y587500D01*
X-4614299Y580300D01*
X-4621500Y573000D01*
X-4632500Y569400D01*
X-4657900Y569400D01*
X-4583000Y645700D02*
G01*
X-4583000Y591199D01*
X-4579400Y580300D01*
X-4572100Y573000D01*
X-4561199Y569400D01*
X-4553899Y569400D01*
X-4543000Y573000D01*
X-4535700Y580300D01*
X-4532100Y591199D01*
X-4532100Y645700D01*
X-4508099Y645700D02*
G01*
X-4508099Y569400D01*
X-4484099Y645700D02*
G01*
X-4484099Y569400D01*
X-4484099Y645700D02*
G01*
X-4433199Y569400D01*
X-4433199Y645700D02*
G01*
X-4433199Y569400D01*
X-4387399Y645700D02*
G01*
X-4394600Y642100D01*
X-4401899Y634800D01*
X-4405500Y627500D01*
X-4409200Y616599D01*
X-4409200Y598499D01*
X-4405500Y587500D01*
X-4401899Y580300D01*
X-4394600Y573000D01*
X-4387399Y569400D01*
X-4372799Y569400D01*
X-4365500Y573000D01*
X-4358299Y580300D01*
X-4354600Y587500D01*
X-4351000Y598499D01*
X-4351000Y616599D01*
X-4354600Y627500D01*
X-4358299Y634800D01*
X-4365500Y642100D01*
X-4372799Y645700D01*
X-4387399Y645700D01*
X-4271000Y645700D02*
G01*
X-4271000Y569400D01*
X-4271000Y645700D02*
G01*
X-4238299Y645700D01*
X-4227399Y642100D01*
X-4223699Y638499D01*
X-4220100Y631199D01*
X-4220100Y620300D01*
X-4223699Y613000D01*
X-4227399Y609400D01*
X-4238299Y605700D01*
X-4271000Y605700D01*
X-4196099Y645700D02*
G01*
X-4196099Y569400D01*
X-4196099Y645700D02*
G01*
X-4163400Y645700D01*
X-4152500Y642100D01*
X-4148800Y638499D01*
X-4145200Y631199D01*
X-4145200Y623899D01*
X-4148800Y616599D01*
X-4152500Y613000D01*
X-4163400Y609400D01*
X-4196099Y609400D01*
X-4170600Y609400D02*
G01*
X-4145200Y569400D01*
X-4099399Y645700D02*
G01*
X-4106599Y642100D01*
X-4113900Y634800D01*
X-4117500Y627500D01*
X-4121199Y616599D01*
X-4121199Y598499D01*
X-4117500Y587500D01*
X-4113900Y580300D01*
X-4106599Y573000D01*
X-4099399Y569400D01*
X-4084799Y569400D01*
X-4077500Y573000D01*
X-4070299Y580300D01*
X-4066599Y587500D01*
X-4063000Y598499D01*
X-4063000Y616599D01*
X-4066599Y627500D01*
X-4070299Y634800D01*
X-4077500Y642100D01*
X-4084799Y645700D01*
X-4099399Y645700D01*
X-3983000Y645700D02*
G01*
X-3983000Y569400D01*
X-3983000Y645700D02*
G01*
X-3953900Y569400D01*
X-3924799Y645700D02*
G01*
X-3953900Y569400D01*
X-3924799Y645700D02*
G01*
X-3924799Y569400D01*
X-3900799Y645700D02*
G01*
X-3900799Y569400D01*
X-3822299Y627500D02*
G01*
X-3825900Y634800D01*
X-3833199Y642100D01*
X-3840500Y645700D01*
X-3855000Y645700D01*
X-3862299Y642100D01*
X-3869499Y634800D01*
X-3873199Y627500D01*
X-3876800Y616599D01*
X-3876800Y598499D01*
X-3873199Y587500D01*
X-3869499Y580300D01*
X-3862299Y573000D01*
X-3855000Y569400D01*
X-3840500Y569400D01*
X-3833199Y573000D01*
X-3825900Y580300D01*
X-3822299Y587500D01*
X-3798299Y645700D02*
G01*
X-3798299Y569400D01*
X-3798299Y645700D02*
G01*
X-3765500Y645700D01*
X-3754600Y642100D01*
X-3751000Y638499D01*
X-3747399Y631199D01*
X-3747399Y623899D01*
X-3751000Y616599D01*
X-3754600Y613000D01*
X-3765500Y609400D01*
X-3798299Y609400D01*
X-3772799Y609400D02*
G01*
X-3747399Y569400D01*
X-3701499Y645700D02*
G01*
X-3708800Y642100D01*
X-3716099Y634800D01*
X-3719700Y627500D01*
X-3723400Y616599D01*
X-3723400Y598499D01*
X-3719700Y587500D01*
X-3716099Y580300D01*
X-3708800Y573000D01*
X-3701499Y569400D01*
X-3686999Y569400D01*
X-3679700Y573000D01*
X-3672500Y580300D01*
X-3668800Y587500D01*
X-3665200Y598499D01*
X-3665200Y616599D01*
X-3668800Y627500D01*
X-3672500Y634800D01*
X-3679700Y642100D01*
X-3686999Y645700D01*
X-3701499Y645700D01*
X-2120000Y925700D02*
G01*
X-2120000Y849400D01*
X-2120000Y925700D02*
G01*
X-2094499Y925700D01*
X-2083599Y922100D01*
X-2076400Y914800D01*
X-2072700Y907500D01*
X-2069099Y896599D01*
X-2069099Y878499D01*
X-2072700Y867500D01*
X-2076400Y860300D01*
X-2083599Y853000D01*
X-2094499Y849400D01*
X-2120000Y849400D01*
X-2045100Y878499D02*
G01*
X-2001499Y878499D01*
X-2001499Y885700D01*
X-2005100Y893000D01*
X-2008699Y896599D01*
X-2016000Y900300D01*
X-2026899Y900300D01*
X-2034200Y896599D01*
X-2041499Y889400D01*
X-2045100Y878499D01*
X-2045100Y871199D01*
X-2041499Y860300D01*
X-2034200Y853000D01*
X-2026899Y849400D01*
X-2016000Y849400D01*
X-2008699Y853000D01*
X-2001499Y860300D01*
X-1937500Y889400D02*
G01*
X-1941099Y896599D01*
X-1951999Y900300D01*
X-1962899Y900300D01*
X-1973800Y896599D01*
X-1977500Y889400D01*
X-1973800Y882100D01*
X-1966499Y878499D01*
X-1948400Y874800D01*
X-1941099Y871199D01*
X-1937500Y863899D01*
X-1937500Y860300D01*
X-1941099Y853000D01*
X-1951999Y849400D01*
X-1962899Y849400D01*
X-1973800Y853000D01*
X-1977500Y860300D01*
X-1869799Y900300D02*
G01*
X-1869799Y842100D01*
X-1873500Y831199D01*
X-1877100Y827500D01*
X-1884399Y823899D01*
X-1895299Y823899D01*
X-1902500Y827500D01*
X-1869799Y889400D02*
G01*
X-1877100Y896599D01*
X-1884399Y900300D01*
X-1895299Y900300D01*
X-1902500Y896599D01*
X-1909799Y889400D01*
X-1913500Y878499D01*
X-1913500Y871199D01*
X-1909799Y860300D01*
X-1902500Y853000D01*
X-1895299Y849400D01*
X-1884399Y849400D01*
X-1877100Y853000D01*
X-1869799Y860300D01*
X-1845799Y925700D02*
G01*
X-1842200Y922100D01*
X-1838500Y925700D01*
X-1842200Y929400D01*
X-1845799Y925700D01*
X-1842200Y900300D02*
G01*
X-1842200Y849400D01*
X-1814499Y900300D02*
G01*
X-1814499Y849400D01*
X-1814499Y885700D02*
G01*
X-1803599Y896599D01*
X-1796400Y900300D01*
X-1785500Y900300D01*
X-1778199Y896599D01*
X-1774499Y885700D01*
X-1774499Y849400D01*
X-1750500Y878499D02*
G01*
X-1706899Y878499D01*
X-1706899Y885700D01*
X-1710500Y893000D01*
X-1714200Y896599D01*
X-1721499Y900300D01*
X-1732399Y900300D01*
X-1739600Y896599D01*
X-1746899Y889400D01*
X-1750500Y878499D01*
X-1750500Y871199D01*
X-1746899Y860300D01*
X-1739600Y853000D01*
X-1732399Y849400D01*
X-1721499Y849400D01*
X-1714200Y853000D01*
X-1706899Y860300D01*
X-1639300Y925700D02*
G01*
X-1639300Y849400D01*
X-1639300Y889400D02*
G01*
X-1646499Y896599D01*
X-1653800Y900300D01*
X-1664700Y900300D01*
X-1671999Y896599D01*
X-1679300Y889400D01*
X-1682899Y878499D01*
X-1682899Y871199D01*
X-1679300Y860300D01*
X-1671999Y853000D01*
X-1664700Y849400D01*
X-1653800Y849400D01*
X-1646499Y853000D01*
X-1639300Y860300D01*
X-1559300Y925700D02*
G01*
X-1559300Y849400D01*
X-1559300Y889400D02*
G01*
X-1551999Y896599D01*
X-1544700Y900300D01*
X-1533800Y900300D01*
X-1526499Y896599D01*
X-1519300Y889400D01*
X-1515600Y878499D01*
X-1515600Y871199D01*
X-1519300Y860300D01*
X-1526499Y853000D01*
X-1533800Y849400D01*
X-1544700Y849400D01*
X-1551999Y853000D01*
X-1559300Y860300D01*
X-1488000Y900300D02*
G01*
X-1466199Y849400D01*
X-1444399Y900300D02*
G01*
X-1466199Y849400D01*
X-1473500Y834800D01*
X-1480699Y827500D01*
X-1488000Y823899D01*
X-1491599Y823899D01*
X-1416700Y893000D02*
G01*
X-1420399Y889400D01*
X-1416700Y885700D01*
X-1413100Y889400D01*
X-1416700Y893000D01*
X-1416700Y867500D02*
G01*
X-1420399Y863899D01*
X-1416700Y860300D01*
X-1413100Y863899D01*
X-1416700Y867500D01*
X-1333100Y925700D02*
G01*
X-1303999Y889400D01*
X-1303999Y849400D01*
X-1274899Y925700D02*
G01*
X-1303999Y889400D01*
X-1207299Y900300D02*
G01*
X-1207299Y849400D01*
X-1207299Y889400D02*
G01*
X-1214499Y896599D01*
X-1221800Y900300D01*
X-1232700Y900300D01*
X-1240000Y896599D01*
X-1247299Y889400D01*
X-1250900Y878499D01*
X-1250900Y871199D01*
X-1247299Y860300D01*
X-1240000Y853000D01*
X-1232700Y849400D01*
X-1221800Y849400D01*
X-1214499Y853000D01*
X-1207299Y860300D01*
X-1143299Y889400D02*
G01*
X-1146899Y896599D01*
X-1157799Y900300D01*
X-1168699Y900300D01*
X-1179600Y896599D01*
X-1183299Y889400D01*
X-1179600Y882100D01*
X-1172399Y878499D01*
X-1154200Y874800D01*
X-1146899Y871199D01*
X-1143299Y863899D01*
X-1143299Y860300D01*
X-1146899Y853000D01*
X-1157799Y849400D01*
X-1168699Y849400D01*
X-1179600Y853000D01*
X-1183299Y860300D01*
X-1119300Y878499D02*
G01*
X-1075600Y878499D01*
X-1075600Y885700D01*
X-1079300Y893000D01*
X-1082899Y896599D01*
X-1090200Y900300D01*
X-1101099Y900300D01*
X-1108400Y896599D01*
X-1115600Y889400D01*
X-1119300Y878499D01*
X-1119300Y871199D01*
X-1115600Y860300D01*
X-1108400Y853000D01*
X-1101099Y849400D01*
X-1090200Y849400D01*
X-1082899Y853000D01*
X-1075600Y860300D01*
X-1051599Y900300D02*
G01*
X-1051599Y849400D01*
X-1051599Y885700D02*
G01*
X-1040699Y896599D01*
X-1033500Y900300D01*
X-1022500Y900300D01*
X-1015299Y896599D01*
X-1011599Y885700D01*
X-1011599Y849400D01*
X-906199Y925700D02*
G01*
X-906199Y849400D01*
X-931599Y925700D02*
G01*
X-880699Y925700D01*
X-816700Y889400D02*
G01*
X-820399Y896599D01*
X-831300Y900300D01*
X-842200Y900300D01*
X-853100Y896599D01*
X-856700Y889400D01*
X-853100Y882100D01*
X-845799Y878499D01*
X-827600Y874800D01*
X-820399Y871199D01*
X-816700Y863899D01*
X-816700Y860300D01*
X-820399Y853000D01*
X-831300Y849400D01*
X-842200Y849400D01*
X-853100Y853000D01*
X-856700Y860300D01*
X-792700Y900300D02*
G01*
X-770900Y849400D01*
X-749099Y900300D02*
G01*
X-770900Y849400D01*
X-725100Y878499D02*
G01*
X-681499Y878499D01*
X-681499Y885700D01*
X-685100Y893000D01*
X-688699Y896599D01*
X-696000Y900300D01*
X-706899Y900300D01*
X-714200Y896599D01*
X-721499Y889400D01*
X-725100Y878499D01*
X-725100Y871199D01*
X-721499Y860300D01*
X-714200Y853000D01*
X-706899Y849400D01*
X-696000Y849400D01*
X-688699Y853000D01*
X-681499Y860300D01*
X-646499Y925700D02*
G01*
X-646499Y863899D01*
X-642899Y853000D01*
X-635600Y849400D01*
X-628400Y849400D01*
X-657500Y900300D02*
G01*
X-631999Y900300D01*
X-604399Y925700D02*
G01*
X-604399Y849400D01*
X-568000Y900300D02*
G01*
X-604399Y863899D01*
X-589799Y878499D02*
G01*
X-564399Y849400D01*
X-522200Y900300D02*
G01*
X-529499Y896599D01*
X-536700Y889400D01*
X-540399Y878499D01*
X-540399Y871199D01*
X-536700Y860300D01*
X-529499Y853000D01*
X-522200Y849400D01*
X-511300Y849400D01*
X-503999Y853000D01*
X-496700Y860300D01*
X-493100Y871199D01*
X-493100Y878499D01*
X-496700Y889400D01*
X-503999Y896599D01*
X-511300Y900300D01*
X-522200Y900300D01*
X-469099Y900300D02*
G01*
X-447299Y849400D01*
X-425500Y900300D02*
G01*
X-447299Y849400D01*
X-394200Y863899D02*
G01*
X-397799Y860300D01*
X-401499Y863899D01*
X-397799Y867500D01*
X-394200Y863899D01*
X-394200Y856599D01*
X-401499Y849400D01*
X-310500Y907500D02*
G01*
X-310500Y911199D01*
X-306899Y918499D01*
X-303299Y922100D01*
X-296000Y925700D01*
X-281499Y925700D01*
X-274200Y922100D01*
X-270500Y918499D01*
X-266899Y911199D01*
X-266899Y903899D01*
X-270500Y896599D01*
X-277799Y885700D01*
X-314200Y849400D01*
X-263299Y849400D01*
X-217500Y925700D02*
G01*
X-228400Y922100D01*
X-235600Y911199D01*
X-239300Y893000D01*
X-239300Y882100D01*
X-235600Y863899D01*
X-228400Y853000D01*
X-217500Y849400D01*
X-210200Y849400D01*
X-199300Y853000D01*
X-191999Y863899D01*
X-188400Y882100D01*
X-188400Y893000D01*
X-191999Y911199D01*
X-199300Y922100D01*
X-210200Y925700D01*
X-217500Y925700D01*
X-160699Y907500D02*
G01*
X-160699Y911199D01*
X-157100Y918499D01*
X-153500Y922100D01*
X-146199Y925700D01*
X-131599Y925700D01*
X-124399Y922100D01*
X-120699Y918499D01*
X-117100Y911199D01*
X-117100Y903899D01*
X-120699Y896599D01*
X-128000Y885700D01*
X-164399Y849400D01*
X-113500Y849400D01*
X-82200Y925700D02*
G01*
X-42200Y925700D01*
X-63999Y896599D01*
X-53100Y896599D01*
X-45799Y893000D01*
X-42200Y889400D01*
X-38500Y878499D01*
X-38500Y871199D01*
X-42200Y860300D01*
X-49499Y853000D01*
X-60399Y849400D01*
X-71300Y849400D01*
X-82200Y853000D01*
X-85799Y856599D01*
X-89499Y863899D01*
D11*
X-4821790Y377210D02*
G01*
X-4791689Y377210D01*
X-4821790Y367210D02*
G01*
X-4821790Y387210D01*
X-4821790Y396709D02*
G01*
X-4791689Y416709D01*
X-4821790Y416709D02*
G01*
X-4791689Y396709D01*
X-4821790Y434810D02*
G01*
X-4820390Y430509D01*
X-4816089Y427609D01*
X-4808890Y426210D01*
X-4804589Y426210D01*
X-4797489Y427609D01*
X-4793190Y430509D01*
X-4791689Y434810D01*
X-4791689Y437609D01*
X-4793190Y441909D01*
X-4797489Y444810D01*
X-4804589Y446210D01*
X-4808890Y446210D01*
X-4816089Y444810D01*
X-4820390Y441909D01*
X-4821790Y437609D01*
X-4821790Y434810D01*
X-4721799Y349800D02*
G01*
X-4691700Y349800D01*
X-4721799Y349800D02*
G01*
X-4721799Y359800D01*
X-4720400Y364099D01*
X-4717500Y366999D01*
X-4714600Y368400D01*
X-4710300Y369800D01*
X-4703200Y369800D01*
X-4698899Y368400D01*
X-4695999Y366999D01*
X-4693099Y364099D01*
X-4691700Y359800D01*
X-4691700Y349800D01*
X-4714600Y380700D02*
G01*
X-4716100Y380700D01*
X-4718899Y382199D01*
X-4720400Y383600D01*
X-4721799Y386500D01*
X-4721799Y392199D01*
X-4720400Y395000D01*
X-4718899Y396500D01*
X-4716100Y397899D01*
X-4713200Y397899D01*
X-4710300Y396500D01*
X-4705999Y393600D01*
X-4691700Y379299D01*
X-4691700Y399299D01*
X-4321800Y349800D02*
G01*
X-4291700Y349800D01*
X-4321800Y349800D02*
G01*
X-4321800Y359800D01*
X-4320400Y364099D01*
X-4317500Y366999D01*
X-4314600Y368400D01*
X-4310299Y369800D01*
X-4303199Y369800D01*
X-4298900Y368400D01*
X-4296000Y366999D01*
X-4293100Y364099D01*
X-4291700Y359800D01*
X-4291700Y349800D01*
X-4321800Y387899D02*
G01*
X-4320400Y383600D01*
X-4316099Y380700D01*
X-4308900Y379299D01*
X-4304600Y379299D01*
X-4297399Y380700D01*
X-4293100Y383600D01*
X-4291700Y387899D01*
X-4291700Y390799D01*
X-4293100Y395000D01*
X-4297399Y397899D01*
X-4304600Y399299D01*
X-4308900Y399299D01*
X-4316099Y397899D01*
X-4320400Y395000D01*
X-4321800Y390799D01*
X-4321800Y387899D01*
X-4421800Y349800D02*
G01*
X-4391700Y349800D01*
X-4421800Y349800D02*
G01*
X-4421800Y359800D01*
X-4420400Y364099D01*
X-4417500Y366999D01*
X-4414600Y368400D01*
X-4410299Y369800D01*
X-4403199Y369800D01*
X-4398900Y368400D01*
X-4396000Y366999D01*
X-4393100Y364099D01*
X-4391700Y359800D01*
X-4391700Y349800D01*
X-4416099Y379299D02*
G01*
X-4417500Y382199D01*
X-4421800Y386500D01*
X-4391700Y386500D01*
X-4514589Y358710D02*
G01*
X-4517489Y357210D01*
X-4520390Y354409D01*
X-4521790Y351509D01*
X-4521790Y345810D01*
X-4520390Y342910D01*
X-4517489Y340109D01*
X-4514589Y338609D01*
X-4510290Y337210D01*
X-4503190Y337210D01*
X-4498890Y338609D01*
X-4495990Y340109D01*
X-4493190Y342910D01*
X-4491689Y345810D01*
X-4491689Y351509D01*
X-4493190Y354409D01*
X-4495990Y357210D01*
X-4498890Y358710D01*
X-4503190Y358710D01*
X-4503190Y351509D02*
G01*
X-4503190Y358710D01*
X-4521790Y368110D02*
G01*
X-4491689Y368110D01*
X-4521790Y368110D02*
G01*
X-4491689Y388209D01*
X-4521790Y388209D02*
G01*
X-4491689Y388209D01*
X-4521790Y397609D02*
G01*
X-4491689Y397609D01*
X-4521790Y397609D02*
G01*
X-4521790Y407609D01*
X-4520390Y411909D01*
X-4517489Y414810D01*
X-4514589Y416210D01*
X-4510290Y417710D01*
X-4503190Y417710D01*
X-4498890Y416210D01*
X-4495990Y414810D01*
X-4493190Y411909D01*
X-4491689Y407609D01*
X-4491689Y397609D01*
X-4614589Y358710D02*
G01*
X-4617489Y357210D01*
X-4620390Y354409D01*
X-4621790Y351509D01*
X-4621790Y345810D01*
X-4620390Y342910D01*
X-4617489Y340109D01*
X-4614589Y338609D01*
X-4610290Y337210D01*
X-4603190Y337210D01*
X-4598890Y338609D01*
X-4595990Y340109D01*
X-4593190Y342910D01*
X-4591689Y345810D01*
X-4591689Y351509D01*
X-4593190Y354409D01*
X-4595990Y357210D01*
X-4598890Y358710D01*
X-4603190Y358710D01*
X-4603190Y351509D02*
G01*
X-4603190Y358710D01*
X-4621790Y368110D02*
G01*
X-4591689Y368110D01*
X-4621790Y368110D02*
G01*
X-4591689Y388209D01*
X-4621790Y388209D02*
G01*
X-4591689Y388209D01*
X-4621790Y397609D02*
G01*
X-4591689Y397609D01*
X-4621790Y397609D02*
G01*
X-4621790Y407609D01*
X-4620390Y411909D01*
X-4617489Y414810D01*
X-4614589Y416210D01*
X-4610290Y417710D01*
X-4603190Y417710D01*
X-4598890Y416210D01*
X-4595990Y414810D01*
X-4593190Y411909D01*
X-4591689Y407609D01*
X-4591689Y397609D01*
X-4221800Y349800D02*
G01*
X-4191700Y349800D01*
X-4221800Y349800D02*
G01*
X-4221800Y359800D01*
X-4220400Y364099D01*
X-4217500Y366999D01*
X-4214600Y368400D01*
X-4210299Y369800D01*
X-4203199Y369800D01*
X-4198900Y368400D01*
X-4196000Y366999D01*
X-4193100Y364099D01*
X-4191700Y359800D01*
X-4191700Y349800D01*
X-4221800Y393600D02*
G01*
X-4201700Y379299D01*
X-4201700Y400799D01*
X-4221800Y393600D02*
G01*
X-4191700Y393600D01*
X-4114600Y371300D02*
G01*
X-4117500Y369800D01*
X-4120399Y366999D01*
X-4121800Y364099D01*
X-4121800Y358400D01*
X-4120399Y355500D01*
X-4117500Y352699D01*
X-4114600Y351199D01*
X-4110299Y349800D01*
X-4103199Y349800D01*
X-4098900Y351199D01*
X-4096000Y352699D01*
X-4093100Y355500D01*
X-4091700Y358400D01*
X-4091700Y364099D01*
X-4093100Y366999D01*
X-4096000Y369800D01*
X-4098900Y371300D01*
X-4117500Y397899D02*
G01*
X-4120399Y396500D01*
X-4121800Y392199D01*
X-4121800Y389299D01*
X-4120399Y385000D01*
X-4116099Y382199D01*
X-4108900Y380700D01*
X-4101700Y380700D01*
X-4096000Y382199D01*
X-4093100Y385000D01*
X-4091700Y389299D01*
X-4091700Y390799D01*
X-4093100Y395000D01*
X-4096000Y397899D01*
X-4100299Y399299D01*
X-4101700Y399299D01*
X-4106000Y397899D01*
X-4108900Y395000D01*
X-4110299Y390799D01*
X-4110299Y389299D01*
X-4108900Y385000D01*
X-4106000Y382199D01*
X-4101700Y380700D01*
X-4021800Y349800D02*
G01*
X-3991700Y349800D01*
X-4021800Y349800D02*
G01*
X-4021800Y359800D01*
X-4020399Y364099D01*
X-4017500Y366999D01*
X-4014600Y368400D01*
X-4010299Y369800D01*
X-4003199Y369800D01*
X-3998900Y368400D01*
X-3996000Y366999D01*
X-3993100Y364099D01*
X-3991700Y359800D01*
X-3991700Y349800D01*
X-4021800Y399299D02*
G01*
X-3991700Y385000D01*
X-4021800Y379299D02*
G01*
X-4021800Y399299D01*
X-3921800Y349800D02*
G01*
X-3891700Y349800D01*
X-3921800Y349800D02*
G01*
X-3921800Y368400D01*
X-3907500Y349800D02*
G01*
X-3907500Y361300D01*
X-3891700Y349800D02*
G01*
X-3891700Y368400D01*
X-3917500Y395000D02*
G01*
X-3920399Y393600D01*
X-3921800Y389299D01*
X-3921800Y386500D01*
X-3920399Y382199D01*
X-3916099Y379299D01*
X-3908900Y377899D01*
X-3901700Y377899D01*
X-3896000Y379299D01*
X-3893100Y382199D01*
X-3891700Y386500D01*
X-3891700Y387899D01*
X-3893100Y392199D01*
X-3896000Y395000D01*
X-3900299Y396500D01*
X-3901700Y396500D01*
X-3906000Y395000D01*
X-3908900Y392199D01*
X-3910299Y387899D01*
X-3910299Y386500D01*
X-3908900Y382199D01*
X-3906000Y379299D01*
X-3901700Y377899D01*
X-3821800Y349800D02*
G01*
X-3791700Y349800D01*
X-3821800Y349800D02*
G01*
X-3821800Y362699D01*
X-3820399Y366999D01*
X-3818900Y368400D01*
X-3816099Y369800D01*
X-3813199Y369800D01*
X-3810299Y368400D01*
X-3808900Y366999D01*
X-3807500Y362699D01*
X-3807500Y349800D02*
G01*
X-3807500Y362699D01*
X-3806000Y366999D01*
X-3804600Y368400D01*
X-3801700Y369800D01*
X-3797399Y369800D01*
X-3794600Y368400D01*
X-3793100Y366999D01*
X-3791700Y362699D01*
X-3791700Y349800D01*
X-3821800Y393600D02*
G01*
X-3801700Y379299D01*
X-3801700Y400799D01*
X-3821800Y393600D02*
G01*
X-3791700Y393600D01*
X-3721800Y349800D02*
G01*
X-3691700Y349800D01*
X-3721800Y349800D02*
G01*
X-3721800Y362699D01*
X-3720399Y366999D01*
X-3718900Y368400D01*
X-3716099Y369800D01*
X-3713199Y369800D01*
X-3710299Y368400D01*
X-3708900Y366999D01*
X-3707500Y362699D01*
X-3707500Y349800D02*
G01*
X-3707500Y362699D01*
X-3706000Y366999D01*
X-3704600Y368400D01*
X-3701700Y369800D01*
X-3697399Y369800D01*
X-3694600Y368400D01*
X-3693100Y366999D01*
X-3691700Y362699D01*
X-3691700Y349800D01*
X-3721800Y396500D02*
G01*
X-3721800Y382199D01*
X-3708900Y380700D01*
X-3710299Y382199D01*
X-3711800Y386500D01*
X-3711800Y390799D01*
X-3710299Y395000D01*
X-3707500Y397899D01*
X-3703199Y399299D01*
X-3700299Y399299D01*
X-3696000Y397899D01*
X-3693100Y395000D01*
X-3691700Y390799D01*
X-3691700Y386500D01*
X-3693100Y382199D01*
X-3694600Y380700D01*
X-3697399Y379299D01*
X-3721800Y779800D02*
G01*
X-3691700Y779800D01*
X-3721800Y779800D02*
G01*
X-3721800Y792699D01*
X-3720399Y796999D01*
X-3718900Y798400D01*
X-3716099Y799800D01*
X-3713199Y799800D01*
X-3710299Y798400D01*
X-3708900Y796999D01*
X-3707500Y792699D01*
X-3707500Y779800D02*
G01*
X-3707500Y792699D01*
X-3706000Y796999D01*
X-3704600Y798400D01*
X-3701700Y799800D01*
X-3697399Y799800D01*
X-3694600Y798400D01*
X-3693100Y796999D01*
X-3691700Y792699D01*
X-3691700Y779800D01*
X-3717500Y826500D02*
G01*
X-3720399Y825000D01*
X-3721800Y820799D01*
X-3721800Y817899D01*
X-3720399Y813600D01*
X-3716099Y810700D01*
X-3708900Y809299D01*
X-3701700Y809299D01*
X-3696000Y810700D01*
X-3693100Y813600D01*
X-3691700Y817899D01*
X-3691700Y819299D01*
X-3693100Y823600D01*
X-3696000Y826500D01*
X-3700299Y827899D01*
X-3701700Y827899D01*
X-3706000Y826500D01*
X-3708900Y823600D01*
X-3710299Y819299D01*
X-3710299Y817899D01*
X-3708900Y813600D01*
X-3706000Y810700D01*
X-3701700Y809299D01*
X-3921800Y779800D02*
G01*
X-3891700Y779800D01*
X-3921800Y779800D02*
G01*
X-3921800Y792699D01*
X-3920399Y796999D01*
X-3918900Y798400D01*
X-3916099Y799800D01*
X-3913199Y799800D01*
X-3910299Y798400D01*
X-3908900Y796999D01*
X-3907500Y792699D01*
X-3907500Y779800D02*
G01*
X-3907500Y792699D01*
X-3906000Y796999D01*
X-3904600Y798400D01*
X-3901700Y799800D01*
X-3897399Y799800D01*
X-3894600Y798400D01*
X-3893100Y796999D01*
X-3891700Y792699D01*
X-3891700Y779800D01*
X-3921800Y812199D02*
G01*
X-3921800Y827899D01*
X-3910299Y819299D01*
X-3910299Y823600D01*
X-3908900Y826500D01*
X-3907500Y827899D01*
X-3903199Y829299D01*
X-3900299Y829299D01*
X-3896000Y827899D01*
X-3893100Y825000D01*
X-3891700Y820799D01*
X-3891700Y816500D01*
X-3893100Y812199D01*
X-3894600Y810700D01*
X-3897399Y809299D01*
X-4021800Y779800D02*
G01*
X-3991700Y779800D01*
X-4021800Y779800D02*
G01*
X-4021800Y792699D01*
X-4020399Y796999D01*
X-4018900Y798400D01*
X-4016099Y799800D01*
X-4013199Y799800D01*
X-4010299Y798400D01*
X-4008900Y796999D01*
X-4007500Y792699D01*
X-4007500Y779800D02*
G01*
X-4007500Y792699D01*
X-4006000Y796999D01*
X-4004600Y798400D01*
X-4001700Y799800D01*
X-3997399Y799800D01*
X-3994600Y798400D01*
X-3993100Y796999D01*
X-3991700Y792699D01*
X-3991700Y779800D01*
X-4016099Y809299D02*
G01*
X-4017500Y812199D01*
X-4021800Y816500D01*
X-3991700Y816500D01*
X-4421800Y779800D02*
G01*
X-4391700Y779800D01*
X-4421800Y779800D02*
G01*
X-4421800Y798400D01*
X-4407500Y779800D02*
G01*
X-4407500Y791300D01*
X-4421800Y822199D02*
G01*
X-4401700Y807899D01*
X-4401700Y829299D01*
X-4421800Y822199D02*
G01*
X-4391700Y822199D01*
X-4521799Y767199D02*
G01*
X-4491700Y778699D01*
X-4521799Y790100D02*
G01*
X-4491700Y778699D01*
X-4514600Y820999D02*
G01*
X-4517500Y819600D01*
X-4520400Y816700D01*
X-4521799Y813899D01*
X-4521799Y808200D01*
X-4520400Y805300D01*
X-4517500Y802399D01*
X-4514600Y800999D01*
X-4510300Y799600D01*
X-4503200Y799600D01*
X-4498899Y800999D01*
X-4495999Y802399D01*
X-4493099Y805300D01*
X-4491700Y808200D01*
X-4491700Y813899D01*
X-4493099Y816700D01*
X-4495999Y819600D01*
X-4498899Y820999D01*
X-4514600Y851999D02*
G01*
X-4517500Y850500D01*
X-4520400Y847699D01*
X-4521799Y844800D01*
X-4521799Y839099D01*
X-4520400Y836199D01*
X-4517500Y833400D01*
X-4514600Y831900D01*
X-4510300Y830500D01*
X-4503200Y830500D01*
X-4498899Y831900D01*
X-4495999Y833400D01*
X-4493099Y836199D01*
X-4491700Y839099D01*
X-4491700Y844800D01*
X-4493099Y847699D01*
X-4495999Y850500D01*
X-4498899Y851999D01*
X-4621799Y767199D02*
G01*
X-4591700Y767199D01*
X-4621799Y767199D02*
G01*
X-4621799Y780100D01*
X-4620400Y784400D01*
X-4618899Y785799D01*
X-4616100Y787199D01*
X-4613200Y787199D01*
X-4610300Y785799D01*
X-4608899Y784400D01*
X-4607500Y780100D01*
X-4607500Y767199D01*
X-4607500Y777199D02*
G01*
X-4591700Y787199D01*
X-4617500Y816700D02*
G01*
X-4620400Y813899D01*
X-4621799Y809600D01*
X-4621799Y803899D01*
X-4620400Y799600D01*
X-4617500Y796700D01*
X-4614600Y796700D01*
X-4611799Y798099D01*
X-4610300Y799600D01*
X-4608899Y802399D01*
X-4605999Y810999D01*
X-4604600Y813899D01*
X-4603200Y815300D01*
X-4600300Y816700D01*
X-4595999Y816700D01*
X-4593099Y813899D01*
X-4591700Y809600D01*
X-4591700Y803899D01*
X-4593099Y799600D01*
X-4595999Y796700D01*
X-4621799Y836199D02*
G01*
X-4591700Y836199D01*
X-4621799Y826199D02*
G01*
X-4621799Y846199D01*
X-4714600Y788699D02*
G01*
X-4717500Y787199D01*
X-4720400Y784400D01*
X-4721799Y781500D01*
X-4721799Y775799D01*
X-4720400Y772899D01*
X-4717500Y770100D01*
X-4714600Y768600D01*
X-4710300Y767199D01*
X-4703200Y767199D01*
X-4698899Y768600D01*
X-4695999Y770100D01*
X-4693099Y772899D01*
X-4691700Y775799D01*
X-4691700Y781500D01*
X-4693099Y784400D01*
X-4695999Y787199D01*
X-4698899Y788699D01*
X-4703200Y788699D01*
X-4703200Y781500D02*
G01*
X-4703200Y788699D01*
X-4721799Y798099D02*
G01*
X-4691700Y798099D01*
X-4721799Y798099D02*
G01*
X-4691700Y818200D01*
X-4721799Y818200D02*
G01*
X-4691700Y818200D01*
X-4721799Y827600D02*
G01*
X-4691700Y827600D01*
X-4721799Y827600D02*
G01*
X-4721799Y837600D01*
X-4720400Y841900D01*
X-4717500Y844800D01*
X-4714600Y846199D01*
X-4710300Y847699D01*
X-4703200Y847699D01*
X-4698899Y846199D01*
X-4695999Y844800D01*
X-4693099Y841900D01*
X-4691700Y837600D01*
X-4691700Y827600D01*
X-4821799Y767199D02*
G01*
X-4791700Y767199D01*
X-4821799Y767199D02*
G01*
X-4821799Y780100D01*
X-4820400Y784400D01*
X-4818899Y785799D01*
X-4816100Y787199D01*
X-4813200Y787199D01*
X-4810300Y785799D01*
X-4808899Y784400D01*
X-4807500Y780100D01*
X-4807500Y767199D01*
X-4807500Y777199D02*
G01*
X-4791700Y787199D01*
X-4821799Y808200D02*
G01*
X-4791700Y796700D01*
X-4821799Y808200D02*
G01*
X-4791700Y819600D01*
X-4801700Y800999D02*
G01*
X-4801700Y815300D01*
X-4821799Y829099D02*
G01*
X-4791700Y836199D01*
X-4821799Y843400D02*
G01*
X-4791700Y836199D01*
X-4821799Y843400D02*
G01*
X-4791700Y850500D01*
X-4821799Y857699D02*
G01*
X-4791700Y850500D01*
X-4321800Y779800D02*
G01*
X-4291700Y779800D01*
X-4321800Y779800D02*
G01*
X-4321800Y798400D01*
X-4307500Y779800D02*
G01*
X-4307500Y791300D01*
X-4321800Y825000D02*
G01*
X-4321800Y810700D01*
X-4308900Y809299D01*
X-4310299Y810700D01*
X-4311800Y815000D01*
X-4311800Y819299D01*
X-4310299Y823600D01*
X-4307500Y826500D01*
X-4303199Y827899D01*
X-4300299Y827899D01*
X-4296000Y826500D01*
X-4293100Y823600D01*
X-4291700Y819299D01*
X-4291700Y815000D01*
X-4293100Y810700D01*
X-4294600Y809299D01*
X-4297399Y807899D01*
X-4221800Y779800D02*
G01*
X-4191700Y779800D01*
X-4221800Y779800D02*
G01*
X-4221800Y798400D01*
X-4207500Y779800D02*
G01*
X-4207500Y791300D01*
X-4217500Y825000D02*
G01*
X-4220400Y823600D01*
X-4221800Y819299D01*
X-4221800Y816500D01*
X-4220400Y812199D01*
X-4216099Y809299D01*
X-4208900Y807899D01*
X-4201700Y807899D01*
X-4196000Y809299D01*
X-4193100Y812199D01*
X-4191700Y816500D01*
X-4191700Y817899D01*
X-4193100Y822199D01*
X-4196000Y825000D01*
X-4200299Y826500D01*
X-4201700Y826500D01*
X-4206000Y825000D01*
X-4208900Y822199D01*
X-4210299Y817899D01*
X-4210299Y816500D01*
X-4208900Y812199D01*
X-4206000Y809299D01*
X-4201700Y807899D01*
X-4121800Y779800D02*
G01*
X-4091700Y779800D01*
X-4121800Y779800D02*
G01*
X-4121800Y798400D01*
X-4107500Y779800D02*
G01*
X-4107500Y791300D01*
X-4121800Y827899D02*
G01*
X-4091700Y813600D01*
X-4121800Y807899D02*
G01*
X-4121800Y827899D01*
X-3821800Y779800D02*
G01*
X-3791700Y779800D01*
X-3821800Y779800D02*
G01*
X-3821800Y792699D01*
X-3820399Y796999D01*
X-3818900Y798400D01*
X-3816099Y799800D01*
X-3813199Y799800D01*
X-3810299Y798400D01*
X-3808900Y796999D01*
X-3807500Y792699D01*
X-3807500Y779800D02*
G01*
X-3807500Y792699D01*
X-3806000Y796999D01*
X-3804600Y798400D01*
X-3801700Y799800D01*
X-3797399Y799800D01*
X-3794600Y798400D01*
X-3793100Y796999D01*
X-3791700Y792699D01*
X-3791700Y779800D01*
X-3814600Y810700D02*
G01*
X-3816099Y810700D01*
X-3818900Y812199D01*
X-3820399Y813600D01*
X-3821800Y816500D01*
X-3821800Y822199D01*
X-3820399Y825000D01*
X-3818900Y826500D01*
X-3816099Y827899D01*
X-3813199Y827899D01*
X-3810299Y826500D01*
X-3806000Y823600D01*
X-3791700Y809299D01*
X-3791700Y829299D01*
D12*
X-3520699Y380399D02*
G01*
X-3520699Y337500D01*
X-3535000Y380399D02*
G01*
X-3506400Y380399D01*
X-3492899Y380399D02*
G01*
X-3464200Y337500D01*
X-3464200Y380399D02*
G01*
X-3492899Y337500D01*
X-3335000Y385399D02*
G01*
X-3335000Y342500D01*
X-3335000Y385399D02*
G01*
X-3316599Y385399D01*
X-3310500Y383400D01*
X-3308400Y381300D01*
X-3306400Y377199D01*
X-3306400Y373099D01*
X-3308400Y369000D01*
X-3310500Y366999D01*
X-3316599Y365000D01*
X-3335000Y365000D01*
X-3320699Y365000D02*
G01*
X-3306400Y342500D01*
X-3292899Y385399D02*
G01*
X-3264200Y342500D01*
X-3264200Y385399D02*
G01*
X-3292899Y342500D01*
D13*
X-4543308Y-2086613D02*
G01*
X-4543308Y-1913384D01*
X-4456692Y-2086613D02*
G01*
X-4456692Y-1913384D01*
X-4543308Y-2086613D02*
G01*
X-4456692Y-2086613D01*
X-4543308Y-1913384D02*
G01*
X-4456692Y-1913384D01*
X-4543308Y-2049630D02*
G01*
X-4456692Y-2049630D01*
X-4143307Y-2086613D02*
G01*
X-4143307Y-1913384D01*
X-4056692Y-2086613D02*
G01*
X-4056692Y-1913384D01*
X-4143307Y-2086613D02*
G01*
X-4056692Y-2086613D01*
X-4143307Y-1913384D02*
G01*
X-4056692Y-1913384D01*
X-4143307Y-2049630D02*
G01*
X-4056692Y-2049630D01*
X-3743307Y-2086613D02*
G01*
X-3743307Y-1913384D01*
X-3656692Y-2086613D02*
G01*
X-3656692Y-1913384D01*
X-3743307Y-2086613D02*
G01*
X-3656692Y-2086613D01*
X-3743307Y-1913384D02*
G01*
X-3656692Y-1913384D01*
X-3743307Y-2049630D02*
G01*
X-3656692Y-2049630D01*
X-3343307Y-2086613D02*
G01*
X-3343307Y-1913384D01*
X-3256692Y-2086613D02*
G01*
X-3256692Y-1913384D01*
X-3343307Y-2086613D02*
G01*
X-3256692Y-2086613D01*
X-3343307Y-1913384D02*
G01*
X-3256692Y-1913384D01*
X-3343307Y-2049630D02*
G01*
X-3256692Y-2049630D01*
X-2943307Y-2086613D02*
G01*
X-2943307Y-1913384D01*
X-2856692Y-2086613D02*
G01*
X-2856692Y-1913384D01*
X-2943307Y-2086613D02*
G01*
X-2856692Y-2086613D01*
X-2943307Y-1913384D02*
G01*
X-2856692Y-1913384D01*
X-2943307Y-2049630D02*
G01*
X-2856692Y-2049630D01*
X-2543307Y-2086613D02*
G01*
X-2543307Y-1913384D01*
X-2456692Y-2086613D02*
G01*
X-2456692Y-1913384D01*
X-2543307Y-2086613D02*
G01*
X-2456692Y-2086613D01*
X-2543307Y-1913384D02*
G01*
X-2456692Y-1913384D01*
X-2543307Y-2049630D02*
G01*
X-2456692Y-2049630D01*
X-2143307Y-2086613D02*
G01*
X-2143307Y-1913384D01*
X-2056692Y-2086613D02*
G01*
X-2056692Y-1913384D01*
X-2143307Y-2086613D02*
G01*
X-2056692Y-2086613D01*
X-2143307Y-1913384D02*
G01*
X-2056692Y-1913384D01*
X-2143307Y-2049630D02*
G01*
X-2056692Y-2049630D01*
X-1743307Y-2086613D02*
G01*
X-1743307Y-1913384D01*
X-1656692Y-2086613D02*
G01*
X-1656692Y-1913384D01*
X-1743307Y-2086613D02*
G01*
X-1656692Y-2086613D01*
X-1743307Y-1913384D02*
G01*
X-1656692Y-1913384D01*
X-1743307Y-2049630D02*
G01*
X-1656692Y-2049630D01*
X-1343307Y-2086613D02*
G01*
X-1343307Y-1913384D01*
X-1256692Y-2086613D02*
G01*
X-1256692Y-1913384D01*
X-1343307Y-2086613D02*
G01*
X-1256692Y-2086613D01*
X-1343307Y-1913384D02*
G01*
X-1256692Y-1913384D01*
X-1343307Y-2049630D02*
G01*
X-1256692Y-2049630D01*
X-943307Y-2086613D02*
G01*
X-943307Y-1913384D01*
X-856692Y-2086613D02*
G01*
X-856692Y-1913384D01*
X-943307Y-2086613D02*
G01*
X-856692Y-2086613D01*
X-943307Y-1913384D02*
G01*
X-856692Y-1913384D01*
X-943307Y-2049630D02*
G01*
X-856692Y-2049630D01*
X-543307Y-2086613D02*
G01*
X-543307Y-1913384D01*
X-456692Y-2086613D02*
G01*
X-456692Y-1913384D01*
X-543307Y-2086613D02*
G01*
X-456692Y-2086613D01*
X-543307Y-1913384D02*
G01*
X-456692Y-1913384D01*
X-543307Y-2049630D02*
G01*
X-456692Y-2049630D01*
X-143307Y-2086613D02*
G01*
X-143307Y-1913384D01*
X-56692Y-2086613D02*
G01*
X-56692Y-1913384D01*
X-143307Y-2086613D02*
G01*
X-56692Y-2086613D01*
X-143307Y-1913384D02*
G01*
X-56692Y-1913384D01*
X-143307Y-2049630D02*
G01*
X-56692Y-2049630D01*
X-4818110Y-2089540D02*
G01*
X-4818110Y-1913386D01*
X-4741120Y-1881889D02*
G01*
X-4658879Y-1881889D01*
X-4741120Y-2118110D02*
G01*
X-4658879Y-2118110D01*
X-4581889Y-2089540D02*
G01*
X-4581889Y-1910459D01*
X-4418109Y-2089540D02*
G01*
X-4418109Y-1913386D01*
X-4341121Y-1881889D02*
G01*
X-4258878Y-1881889D01*
X-4341121Y-2118110D02*
G01*
X-4258878Y-2118110D01*
X-4181890Y-2089540D02*
G01*
X-4181890Y-1910459D01*
X-4018109Y-2089540D02*
G01*
X-4018109Y-1913386D01*
X-3941121Y-1881889D02*
G01*
X-3858878Y-1881889D01*
X-3941121Y-2118110D02*
G01*
X-3858878Y-2118110D01*
X-3781890Y-2089540D02*
G01*
X-3781890Y-1910459D01*
X-3618109Y-2089540D02*
G01*
X-3618109Y-1913386D01*
X-3541121Y-1881889D02*
G01*
X-3458878Y-1881889D01*
X-3541121Y-2118110D02*
G01*
X-3458878Y-2118110D01*
X-3381890Y-2089540D02*
G01*
X-3381890Y-1910459D01*
X-3218109Y-2089540D02*
G01*
X-3218109Y-1913386D01*
X-3141121Y-1881889D02*
G01*
X-3058878Y-1881889D01*
X-3141121Y-2118110D02*
G01*
X-3058878Y-2118110D01*
X-2981890Y-2089540D02*
G01*
X-2981890Y-1910459D01*
X-2818109Y-2089540D02*
G01*
X-2818109Y-1913386D01*
X-2741121Y-1881889D02*
G01*
X-2658878Y-1881889D01*
X-2741121Y-2118110D02*
G01*
X-2658878Y-2118110D01*
X-2581890Y-2089540D02*
G01*
X-2581890Y-1910459D01*
X-2418109Y-2089540D02*
G01*
X-2418109Y-1913386D01*
X-2341121Y-1881889D02*
G01*
X-2258878Y-1881889D01*
X-2341121Y-2118110D02*
G01*
X-2258878Y-2118110D01*
X-2181890Y-2089540D02*
G01*
X-2181890Y-1910459D01*
X-2018109Y-2089540D02*
G01*
X-2018109Y-1913386D01*
X-1941121Y-1881889D02*
G01*
X-1858878Y-1881889D01*
X-1941121Y-2118110D02*
G01*
X-1858878Y-2118110D01*
X-1781890Y-2089540D02*
G01*
X-1781890Y-1910459D01*
X-1618109Y-2089540D02*
G01*
X-1618109Y-1913386D01*
X-1541121Y-1881889D02*
G01*
X-1458878Y-1881889D01*
X-1541121Y-2118110D02*
G01*
X-1458878Y-2118110D01*
X-1381890Y-2089540D02*
G01*
X-1381890Y-1910459D01*
X-1218109Y-2089540D02*
G01*
X-1218109Y-1913386D01*
X-1141121Y-1881889D02*
G01*
X-1058878Y-1881889D01*
X-1141121Y-2118110D02*
G01*
X-1058878Y-2118110D01*
X-981890Y-2089540D02*
G01*
X-981890Y-1910459D01*
X-818109Y-2089540D02*
G01*
X-818109Y-1913386D01*
X-741121Y-1881889D02*
G01*
X-658878Y-1881889D01*
X-741121Y-2118110D02*
G01*
X-658878Y-2118110D01*
X-581890Y-2089540D02*
G01*
X-581890Y-1910459D01*
X-418109Y-2089540D02*
G01*
X-418109Y-1913386D01*
X-341121Y-1881889D02*
G01*
X-258878Y-1881889D01*
X-341121Y-2118110D02*
G01*
X-258878Y-2118110D01*
X-181890Y-2089540D02*
G01*
X-181890Y-1910459D01*
X-4543308Y-586613D02*
G01*
X-4543308Y-413384D01*
X-4456692Y-586613D02*
G01*
X-4456692Y-413384D01*
X-4543308Y-586613D02*
G01*
X-4456692Y-586613D01*
X-4543308Y-413384D02*
G01*
X-4456692Y-413384D01*
X-4543308Y-549630D02*
G01*
X-4456692Y-549630D01*
X-4143307Y-586613D02*
G01*
X-4143307Y-413384D01*
X-4056692Y-586613D02*
G01*
X-4056692Y-413384D01*
X-4143307Y-586613D02*
G01*
X-4056692Y-586613D01*
X-4143307Y-413384D02*
G01*
X-4056692Y-413384D01*
X-4143307Y-549630D02*
G01*
X-4056692Y-549630D01*
X-3743307Y-586613D02*
G01*
X-3743307Y-413384D01*
X-3656692Y-586613D02*
G01*
X-3656692Y-413384D01*
X-3743307Y-586613D02*
G01*
X-3656692Y-586613D01*
X-3743307Y-413384D02*
G01*
X-3656692Y-413384D01*
X-3743307Y-549630D02*
G01*
X-3656692Y-549630D01*
X-3343307Y-586613D02*
G01*
X-3343307Y-413384D01*
X-3256692Y-586613D02*
G01*
X-3256692Y-413384D01*
X-3343307Y-586613D02*
G01*
X-3256692Y-586613D01*
X-3343307Y-413384D02*
G01*
X-3256692Y-413384D01*
X-3343307Y-549630D02*
G01*
X-3256692Y-549630D01*
X-2943307Y-586613D02*
G01*
X-2943307Y-413384D01*
X-2856692Y-586613D02*
G01*
X-2856692Y-413384D01*
X-2943307Y-586613D02*
G01*
X-2856692Y-586613D01*
X-2943307Y-413384D02*
G01*
X-2856692Y-413384D01*
X-2943307Y-549630D02*
G01*
X-2856692Y-549630D01*
X-2543307Y-586613D02*
G01*
X-2543307Y-413384D01*
X-2456692Y-586613D02*
G01*
X-2456692Y-413384D01*
X-2543307Y-586613D02*
G01*
X-2456692Y-586613D01*
X-2543307Y-413384D02*
G01*
X-2456692Y-413384D01*
X-2543307Y-549630D02*
G01*
X-2456692Y-549630D01*
X-2143307Y-586613D02*
G01*
X-2143307Y-413384D01*
X-2056692Y-586613D02*
G01*
X-2056692Y-413384D01*
X-2143307Y-586613D02*
G01*
X-2056692Y-586613D01*
X-2143307Y-413384D02*
G01*
X-2056692Y-413384D01*
X-2143307Y-549630D02*
G01*
X-2056692Y-549630D01*
X-1743307Y-586613D02*
G01*
X-1743307Y-413384D01*
X-1656692Y-586613D02*
G01*
X-1656692Y-413384D01*
X-1743307Y-586613D02*
G01*
X-1656692Y-586613D01*
X-1743307Y-413384D02*
G01*
X-1656692Y-413384D01*
X-1743307Y-549630D02*
G01*
X-1656692Y-549630D01*
X-1343307Y-586613D02*
G01*
X-1343307Y-413384D01*
X-1256692Y-586613D02*
G01*
X-1256692Y-413384D01*
X-1343307Y-586613D02*
G01*
X-1256692Y-586613D01*
X-1343307Y-413384D02*
G01*
X-1256692Y-413384D01*
X-1343307Y-549630D02*
G01*
X-1256692Y-549630D01*
X-943307Y-586613D02*
G01*
X-943307Y-413384D01*
X-856692Y-586613D02*
G01*
X-856692Y-413384D01*
X-943307Y-586613D02*
G01*
X-856692Y-586613D01*
X-943307Y-413384D02*
G01*
X-856692Y-413384D01*
X-943307Y-549630D02*
G01*
X-856692Y-549630D01*
X-543307Y-586613D02*
G01*
X-543307Y-413384D01*
X-456692Y-586613D02*
G01*
X-456692Y-413384D01*
X-543307Y-586613D02*
G01*
X-456692Y-586613D01*
X-543307Y-413384D02*
G01*
X-456692Y-413384D01*
X-543307Y-549630D02*
G01*
X-456692Y-549630D01*
X-143307Y-586613D02*
G01*
X-143307Y-413384D01*
X-56692Y-586613D02*
G01*
X-56692Y-413384D01*
X-143307Y-586613D02*
G01*
X-56692Y-586613D01*
X-143307Y-413384D02*
G01*
X-56692Y-413384D01*
X-143307Y-549630D02*
G01*
X-56692Y-549630D01*
X-4543308Y-1086613D02*
G01*
X-4543308Y-913384D01*
X-4456692Y-1086613D02*
G01*
X-4456692Y-913384D01*
X-4543308Y-1086613D02*
G01*
X-4456692Y-1086613D01*
X-4543308Y-913384D02*
G01*
X-4456692Y-913384D01*
X-4543308Y-1049630D02*
G01*
X-4456692Y-1049630D01*
X-4143307Y-1086613D02*
G01*
X-4143307Y-913384D01*
X-4056692Y-1086613D02*
G01*
X-4056692Y-913384D01*
X-4143307Y-1086613D02*
G01*
X-4056692Y-1086613D01*
X-4143307Y-913384D02*
G01*
X-4056692Y-913384D01*
X-4143307Y-1049630D02*
G01*
X-4056692Y-1049630D01*
X-3743307Y-1086613D02*
G01*
X-3743307Y-913384D01*
X-3656692Y-1086613D02*
G01*
X-3656692Y-913384D01*
X-3743307Y-1086613D02*
G01*
X-3656692Y-1086613D01*
X-3743307Y-913384D02*
G01*
X-3656692Y-913384D01*
X-3743307Y-1049630D02*
G01*
X-3656692Y-1049630D01*
X-3343307Y-1086613D02*
G01*
X-3343307Y-913384D01*
X-3256692Y-1086613D02*
G01*
X-3256692Y-913384D01*
X-3343307Y-1086613D02*
G01*
X-3256692Y-1086613D01*
X-3343307Y-913384D02*
G01*
X-3256692Y-913384D01*
X-3343307Y-1049630D02*
G01*
X-3256692Y-1049630D01*
X-2943307Y-1086613D02*
G01*
X-2943307Y-913384D01*
X-2856692Y-1086613D02*
G01*
X-2856692Y-913384D01*
X-2943307Y-1086613D02*
G01*
X-2856692Y-1086613D01*
X-2943307Y-913384D02*
G01*
X-2856692Y-913384D01*
X-2943307Y-1049630D02*
G01*
X-2856692Y-1049630D01*
X-2543307Y-1086613D02*
G01*
X-2543307Y-913384D01*
X-2456692Y-1086613D02*
G01*
X-2456692Y-913384D01*
X-2543307Y-1086613D02*
G01*
X-2456692Y-1086613D01*
X-2543307Y-913384D02*
G01*
X-2456692Y-913384D01*
X-2543307Y-1049630D02*
G01*
X-2456692Y-1049630D01*
X-2143307Y-1086613D02*
G01*
X-2143307Y-913384D01*
X-2056692Y-1086613D02*
G01*
X-2056692Y-913384D01*
X-2143307Y-1086613D02*
G01*
X-2056692Y-1086613D01*
X-2143307Y-913384D02*
G01*
X-2056692Y-913384D01*
X-2143307Y-1049630D02*
G01*
X-2056692Y-1049630D01*
X-1743307Y-1086613D02*
G01*
X-1743307Y-913384D01*
X-1656692Y-1086613D02*
G01*
X-1656692Y-913384D01*
X-1743307Y-1086613D02*
G01*
X-1656692Y-1086613D01*
X-1743307Y-913384D02*
G01*
X-1656692Y-913384D01*
X-1743307Y-1049630D02*
G01*
X-1656692Y-1049630D01*
X-1343307Y-1086613D02*
G01*
X-1343307Y-913384D01*
X-1256692Y-1086613D02*
G01*
X-1256692Y-913384D01*
X-1343307Y-1086613D02*
G01*
X-1256692Y-1086613D01*
X-1343307Y-913384D02*
G01*
X-1256692Y-913384D01*
X-1343307Y-1049630D02*
G01*
X-1256692Y-1049630D01*
X-943307Y-1086613D02*
G01*
X-943307Y-913384D01*
X-856692Y-1086613D02*
G01*
X-856692Y-913384D01*
X-943307Y-1086613D02*
G01*
X-856692Y-1086613D01*
X-943307Y-913384D02*
G01*
X-856692Y-913384D01*
X-943307Y-1049630D02*
G01*
X-856692Y-1049630D01*
X-543307Y-1086613D02*
G01*
X-543307Y-913384D01*
X-456692Y-1086613D02*
G01*
X-456692Y-913384D01*
X-543307Y-1086613D02*
G01*
X-456692Y-1086613D01*
X-543307Y-913384D02*
G01*
X-456692Y-913384D01*
X-543307Y-1049630D02*
G01*
X-456692Y-1049630D01*
X-143307Y-1086613D02*
G01*
X-143307Y-913384D01*
X-56692Y-1086613D02*
G01*
X-56692Y-913384D01*
X-143307Y-1086613D02*
G01*
X-56692Y-1086613D01*
X-143307Y-913384D02*
G01*
X-56692Y-913384D01*
X-143307Y-1049630D02*
G01*
X-56692Y-1049630D01*
X-4543308Y-1586613D02*
G01*
X-4543308Y-1413384D01*
X-4456692Y-1586613D02*
G01*
X-4456692Y-1413384D01*
X-4543308Y-1586613D02*
G01*
X-4456692Y-1586613D01*
X-4543308Y-1413384D02*
G01*
X-4456692Y-1413384D01*
X-4543308Y-1549630D02*
G01*
X-4456692Y-1549630D01*
X-4143307Y-1586613D02*
G01*
X-4143307Y-1413384D01*
X-4056692Y-1586613D02*
G01*
X-4056692Y-1413384D01*
X-4143307Y-1586613D02*
G01*
X-4056692Y-1586613D01*
X-4143307Y-1413384D02*
G01*
X-4056692Y-1413384D01*
X-4143307Y-1549630D02*
G01*
X-4056692Y-1549630D01*
X-3743307Y-1586613D02*
G01*
X-3743307Y-1413384D01*
X-3656692Y-1586613D02*
G01*
X-3656692Y-1413384D01*
X-3743307Y-1586613D02*
G01*
X-3656692Y-1586613D01*
X-3743307Y-1413384D02*
G01*
X-3656692Y-1413384D01*
X-3743307Y-1549630D02*
G01*
X-3656692Y-1549630D01*
X-3343307Y-1586613D02*
G01*
X-3343307Y-1413384D01*
X-3256692Y-1586613D02*
G01*
X-3256692Y-1413384D01*
X-3343307Y-1586613D02*
G01*
X-3256692Y-1586613D01*
X-3343307Y-1413384D02*
G01*
X-3256692Y-1413384D01*
X-3343307Y-1549630D02*
G01*
X-3256692Y-1549630D01*
X-2943307Y-1586613D02*
G01*
X-2943307Y-1413384D01*
X-2856692Y-1586613D02*
G01*
X-2856692Y-1413384D01*
X-2943307Y-1586613D02*
G01*
X-2856692Y-1586613D01*
X-2943307Y-1413384D02*
G01*
X-2856692Y-1413384D01*
X-2943307Y-1549630D02*
G01*
X-2856692Y-1549630D01*
X-2543307Y-1586613D02*
G01*
X-2543307Y-1413384D01*
X-2456692Y-1586613D02*
G01*
X-2456692Y-1413384D01*
X-2543307Y-1586613D02*
G01*
X-2456692Y-1586613D01*
X-2543307Y-1413384D02*
G01*
X-2456692Y-1413384D01*
X-2543307Y-1549630D02*
G01*
X-2456692Y-1549630D01*
X-2143307Y-1586613D02*
G01*
X-2143307Y-1413384D01*
X-2056692Y-1586613D02*
G01*
X-2056692Y-1413384D01*
X-2143307Y-1586613D02*
G01*
X-2056692Y-1586613D01*
X-2143307Y-1413384D02*
G01*
X-2056692Y-1413384D01*
X-2143307Y-1549630D02*
G01*
X-2056692Y-1549630D01*
X-1743307Y-1586613D02*
G01*
X-1743307Y-1413384D01*
X-1656692Y-1586613D02*
G01*
X-1656692Y-1413384D01*
X-1743307Y-1586613D02*
G01*
X-1656692Y-1586613D01*
X-1743307Y-1413384D02*
G01*
X-1656692Y-1413384D01*
X-1743307Y-1549630D02*
G01*
X-1656692Y-1549630D01*
X-1343307Y-1586613D02*
G01*
X-1343307Y-1413384D01*
X-1256692Y-1586613D02*
G01*
X-1256692Y-1413384D01*
X-1343307Y-1586613D02*
G01*
X-1256692Y-1586613D01*
X-1343307Y-1413384D02*
G01*
X-1256692Y-1413384D01*
X-1343307Y-1549630D02*
G01*
X-1256692Y-1549630D01*
X-943307Y-1586613D02*
G01*
X-943307Y-1413384D01*
X-856692Y-1586613D02*
G01*
X-856692Y-1413384D01*
X-943307Y-1586613D02*
G01*
X-856692Y-1586613D01*
X-943307Y-1413384D02*
G01*
X-856692Y-1413384D01*
X-943307Y-1549630D02*
G01*
X-856692Y-1549630D01*
X-543307Y-1586613D02*
G01*
X-543307Y-1413384D01*
X-456692Y-1586613D02*
G01*
X-456692Y-1413384D01*
X-543307Y-1586613D02*
G01*
X-456692Y-1586613D01*
X-543307Y-1413384D02*
G01*
X-456692Y-1413384D01*
X-543307Y-1549630D02*
G01*
X-456692Y-1549630D01*
X-143307Y-1586613D02*
G01*
X-143307Y-1413384D01*
X-56692Y-1586613D02*
G01*
X-56692Y-1413384D01*
X-143307Y-1586613D02*
G01*
X-56692Y-1586613D01*
X-143307Y-1413384D02*
G01*
X-56692Y-1413384D01*
X-143307Y-1549630D02*
G01*
X-56692Y-1549630D01*
X-4818110Y-589540D02*
G01*
X-4818110Y-413386D01*
X-4741120Y-381889D02*
G01*
X-4658879Y-381889D01*
X-4741120Y-618110D02*
G01*
X-4658879Y-618110D01*
X-4581889Y-589540D02*
G01*
X-4581889Y-410459D01*
X-4418109Y-589540D02*
G01*
X-4418109Y-413386D01*
X-4341121Y-381889D02*
G01*
X-4258878Y-381889D01*
X-4341121Y-618110D02*
G01*
X-4258878Y-618110D01*
X-4181890Y-589540D02*
G01*
X-4181890Y-410459D01*
X-4018109Y-589540D02*
G01*
X-4018109Y-413386D01*
X-3941121Y-381889D02*
G01*
X-3858878Y-381889D01*
X-3941121Y-618110D02*
G01*
X-3858878Y-618110D01*
X-3781890Y-589540D02*
G01*
X-3781890Y-410459D01*
X-3618109Y-589540D02*
G01*
X-3618109Y-413386D01*
X-3541121Y-381889D02*
G01*
X-3458878Y-381889D01*
X-3541121Y-618110D02*
G01*
X-3458878Y-618110D01*
X-3381890Y-589540D02*
G01*
X-3381890Y-410459D01*
X-3218109Y-589540D02*
G01*
X-3218109Y-413386D01*
X-3141121Y-381889D02*
G01*
X-3058878Y-381889D01*
X-3141121Y-618110D02*
G01*
X-3058878Y-618110D01*
X-2981890Y-589540D02*
G01*
X-2981890Y-410459D01*
X-2818109Y-589540D02*
G01*
X-2818109Y-413386D01*
X-2741121Y-381889D02*
G01*
X-2658878Y-381889D01*
X-2741121Y-618110D02*
G01*
X-2658878Y-618110D01*
X-2581890Y-589540D02*
G01*
X-2581890Y-410459D01*
X-2418109Y-589540D02*
G01*
X-2418109Y-413386D01*
X-2341121Y-381889D02*
G01*
X-2258878Y-381889D01*
X-2341121Y-618110D02*
G01*
X-2258878Y-618110D01*
X-2181890Y-589540D02*
G01*
X-2181890Y-410459D01*
X-2018109Y-589540D02*
G01*
X-2018109Y-413386D01*
X-1941121Y-381889D02*
G01*
X-1858878Y-381889D01*
X-1941121Y-618110D02*
G01*
X-1858878Y-618110D01*
X-1781890Y-589540D02*
G01*
X-1781890Y-410459D01*
X-1618109Y-589540D02*
G01*
X-1618109Y-413386D01*
X-1541121Y-381889D02*
G01*
X-1458878Y-381889D01*
X-1541121Y-618110D02*
G01*
X-1458878Y-618110D01*
X-1381890Y-589540D02*
G01*
X-1381890Y-410459D01*
X-1218109Y-589540D02*
G01*
X-1218109Y-413386D01*
X-1141121Y-381889D02*
G01*
X-1058878Y-381889D01*
X-1141121Y-618110D02*
G01*
X-1058878Y-618110D01*
X-981890Y-589540D02*
G01*
X-981890Y-410459D01*
X-818109Y-589540D02*
G01*
X-818109Y-413386D01*
X-741121Y-381889D02*
G01*
X-658878Y-381889D01*
X-741121Y-618110D02*
G01*
X-658878Y-618110D01*
X-581890Y-589540D02*
G01*
X-581890Y-410459D01*
X-418109Y-589540D02*
G01*
X-418109Y-413386D01*
X-341121Y-381889D02*
G01*
X-258878Y-381889D01*
X-341121Y-618110D02*
G01*
X-258878Y-618110D01*
X-181890Y-589540D02*
G01*
X-181890Y-410459D01*
X-4818110Y-1089540D02*
G01*
X-4818110Y-913386D01*
X-4741120Y-881889D02*
G01*
X-4658879Y-881889D01*
X-4741120Y-1118110D02*
G01*
X-4658879Y-1118110D01*
X-4581889Y-1089540D02*
G01*
X-4581889Y-910459D01*
X-4418109Y-1089540D02*
G01*
X-4418109Y-913386D01*
X-4341121Y-881889D02*
G01*
X-4258878Y-881889D01*
X-4341121Y-1118110D02*
G01*
X-4258878Y-1118110D01*
X-4181890Y-1089540D02*
G01*
X-4181890Y-910459D01*
X-4018109Y-1089540D02*
G01*
X-4018109Y-913386D01*
X-3941121Y-881889D02*
G01*
X-3858878Y-881889D01*
X-3941121Y-1118110D02*
G01*
X-3858878Y-1118110D01*
X-3781890Y-1089540D02*
G01*
X-3781890Y-910459D01*
X-3618109Y-1089540D02*
G01*
X-3618109Y-913386D01*
X-3541121Y-881889D02*
G01*
X-3458878Y-881889D01*
X-3541121Y-1118110D02*
G01*
X-3458878Y-1118110D01*
X-3381890Y-1089540D02*
G01*
X-3381890Y-910459D01*
X-3218109Y-1089540D02*
G01*
X-3218109Y-913386D01*
X-3141121Y-881889D02*
G01*
X-3058878Y-881889D01*
X-3141121Y-1118110D02*
G01*
X-3058878Y-1118110D01*
X-2981890Y-1089540D02*
G01*
X-2981890Y-910459D01*
X-2818109Y-1089540D02*
G01*
X-2818109Y-913386D01*
X-2741121Y-881889D02*
G01*
X-2658878Y-881889D01*
X-2741121Y-1118110D02*
G01*
X-2658878Y-1118110D01*
X-2581890Y-1089540D02*
G01*
X-2581890Y-910459D01*
X-2418109Y-1089540D02*
G01*
X-2418109Y-913386D01*
X-2341121Y-881889D02*
G01*
X-2258878Y-881889D01*
X-2341121Y-1118110D02*
G01*
X-2258878Y-1118110D01*
X-2181890Y-1089540D02*
G01*
X-2181890Y-910459D01*
X-2018109Y-1089540D02*
G01*
X-2018109Y-913386D01*
X-1941121Y-881889D02*
G01*
X-1858878Y-881889D01*
X-1941121Y-1118110D02*
G01*
X-1858878Y-1118110D01*
X-1781890Y-1089540D02*
G01*
X-1781890Y-910459D01*
X-1618109Y-1089540D02*
G01*
X-1618109Y-913386D01*
X-1541121Y-881889D02*
G01*
X-1458878Y-881889D01*
X-1541121Y-1118110D02*
G01*
X-1458878Y-1118110D01*
X-1381890Y-1089540D02*
G01*
X-1381890Y-910459D01*
X-1218109Y-1089540D02*
G01*
X-1218109Y-913386D01*
X-1141121Y-881889D02*
G01*
X-1058878Y-881889D01*
X-1141121Y-1118110D02*
G01*
X-1058878Y-1118110D01*
X-981890Y-1089540D02*
G01*
X-981890Y-910459D01*
X-818109Y-1089540D02*
G01*
X-818109Y-913386D01*
X-741121Y-881889D02*
G01*
X-658878Y-881889D01*
X-741121Y-1118110D02*
G01*
X-658878Y-1118110D01*
X-581890Y-1089540D02*
G01*
X-581890Y-910459D01*
X-418109Y-1089540D02*
G01*
X-418109Y-913386D01*
X-341121Y-881889D02*
G01*
X-258878Y-881889D01*
X-341121Y-1118110D02*
G01*
X-258878Y-1118110D01*
X-181890Y-1089540D02*
G01*
X-181890Y-910459D01*
X-4818110Y-1589540D02*
G01*
X-4818110Y-1413386D01*
X-4741120Y-1381889D02*
G01*
X-4658879Y-1381889D01*
X-4741120Y-1618110D02*
G01*
X-4658879Y-1618110D01*
X-4581889Y-1589540D02*
G01*
X-4581889Y-1410459D01*
X-4418109Y-1589540D02*
G01*
X-4418109Y-1413386D01*
X-4341121Y-1381889D02*
G01*
X-4258878Y-1381889D01*
X-4341121Y-1618110D02*
G01*
X-4258878Y-1618110D01*
X-4181890Y-1589540D02*
G01*
X-4181890Y-1410459D01*
X-4018109Y-1589540D02*
G01*
X-4018109Y-1413386D01*
X-3941121Y-1381889D02*
G01*
X-3858878Y-1381889D01*
X-3941121Y-1618110D02*
G01*
X-3858878Y-1618110D01*
X-3781890Y-1589540D02*
G01*
X-3781890Y-1410459D01*
X-3618109Y-1589540D02*
G01*
X-3618109Y-1413386D01*
X-3541121Y-1381889D02*
G01*
X-3458878Y-1381889D01*
X-3541121Y-1618110D02*
G01*
X-3458878Y-1618110D01*
X-3381890Y-1589540D02*
G01*
X-3381890Y-1410459D01*
X-3218109Y-1589540D02*
G01*
X-3218109Y-1413386D01*
X-3141121Y-1381889D02*
G01*
X-3058878Y-1381889D01*
X-3141121Y-1618110D02*
G01*
X-3058878Y-1618110D01*
X-2981890Y-1589540D02*
G01*
X-2981890Y-1410459D01*
X-2818109Y-1589540D02*
G01*
X-2818109Y-1413386D01*
X-2741121Y-1381889D02*
G01*
X-2658878Y-1381889D01*
X-2741121Y-1618110D02*
G01*
X-2658878Y-1618110D01*
X-2581890Y-1589540D02*
G01*
X-2581890Y-1410459D01*
X-2418109Y-1589540D02*
G01*
X-2418109Y-1413386D01*
X-2341121Y-1381889D02*
G01*
X-2258878Y-1381889D01*
X-2341121Y-1618110D02*
G01*
X-2258878Y-1618110D01*
X-2181890Y-1589540D02*
G01*
X-2181890Y-1410459D01*
X-2018109Y-1589540D02*
G01*
X-2018109Y-1413386D01*
X-1941121Y-1381889D02*
G01*
X-1858878Y-1381889D01*
X-1941121Y-1618110D02*
G01*
X-1858878Y-1618110D01*
X-1781890Y-1589540D02*
G01*
X-1781890Y-1410459D01*
X-1618109Y-1589540D02*
G01*
X-1618109Y-1413386D01*
X-1541121Y-1381889D02*
G01*
X-1458878Y-1381889D01*
X-1541121Y-1618110D02*
G01*
X-1458878Y-1618110D01*
X-1381890Y-1589540D02*
G01*
X-1381890Y-1410459D01*
X-1218109Y-1589540D02*
G01*
X-1218109Y-1413386D01*
X-1141121Y-1381889D02*
G01*
X-1058878Y-1381889D01*
X-1141121Y-1618110D02*
G01*
X-1058878Y-1618110D01*
X-981890Y-1589540D02*
G01*
X-981890Y-1410459D01*
X-818109Y-1589540D02*
G01*
X-818109Y-1413386D01*
X-741121Y-1381889D02*
G01*
X-658878Y-1381889D01*
X-741121Y-1618110D02*
G01*
X-658878Y-1618110D01*
X-581890Y-1589540D02*
G01*
X-581890Y-1410459D01*
X-418109Y-1589540D02*
G01*
X-418109Y-1413386D01*
X-341121Y-1381889D02*
G01*
X-258878Y-1381889D01*
X-341121Y-1618110D02*
G01*
X-258878Y-1618110D01*
X-181890Y-1589540D02*
G01*
X-181890Y-1410459D01*
X-4543308Y-86613D02*
G01*
X-4543308Y86615D01*
X-4456692Y-86613D02*
G01*
X-4456692Y86615D01*
X-4543308Y-86613D02*
G01*
X-4456692Y-86613D01*
X-4543308Y86615D02*
G01*
X-4456692Y86615D01*
X-4543308Y-49630D02*
G01*
X-4456692Y-49630D01*
X-4818110Y-89540D02*
G01*
X-4818110Y86613D01*
X-4741120Y118110D02*
G01*
X-4658879Y118110D01*
X-4741120Y-118110D02*
G01*
X-4658879Y-118110D01*
X-4581889Y-89540D02*
G01*
X-4581889Y89540D01*
D14*
X-4840000Y340000D02*
G01*
X-4740000Y340000D01*
X-4740000Y240000D01*
X-4840000Y240000D02*
G01*
X-3640000Y240000D01*
X-3640000Y940000D01*
X-4840000Y940000D01*
X-4840000Y240000D01*
D13*
X-4143307Y-86613D02*
G01*
X-4143307Y86615D01*
X-4056692Y-86613D02*
G01*
X-4056692Y86615D01*
X-4143307Y-86613D02*
G01*
X-4056692Y-86613D01*
X-4143307Y86615D02*
G01*
X-4056692Y86615D01*
X-4143307Y-49630D02*
G01*
X-4056692Y-49630D01*
X-3743307Y-86613D02*
G01*
X-3743307Y86615D01*
X-3656692Y-86613D02*
G01*
X-3656692Y86615D01*
X-3743307Y-86613D02*
G01*
X-3656692Y-86613D01*
X-3743307Y86615D02*
G01*
X-3656692Y86615D01*
X-3743307Y-49630D02*
G01*
X-3656692Y-49630D01*
X-3343307Y-86613D02*
G01*
X-3343307Y86615D01*
X-3256692Y-86613D02*
G01*
X-3256692Y86615D01*
X-3343307Y-86613D02*
G01*
X-3256692Y-86613D01*
X-3343307Y86615D02*
G01*
X-3256692Y86615D01*
X-3343307Y-49630D02*
G01*
X-3256692Y-49630D01*
X-2943307Y-86613D02*
G01*
X-2943307Y86615D01*
X-2856692Y-86613D02*
G01*
X-2856692Y86615D01*
X-2943307Y-86613D02*
G01*
X-2856692Y-86613D01*
X-2943307Y86615D02*
G01*
X-2856692Y86615D01*
X-2943307Y-49630D02*
G01*
X-2856692Y-49630D01*
X-2543307Y-86613D02*
G01*
X-2543307Y86615D01*
X-2456692Y-86613D02*
G01*
X-2456692Y86615D01*
X-2543307Y-86613D02*
G01*
X-2456692Y-86613D01*
X-2543307Y86615D02*
G01*
X-2456692Y86615D01*
X-2543307Y-49630D02*
G01*
X-2456692Y-49630D01*
X-2143307Y-86613D02*
G01*
X-2143307Y86615D01*
X-2056692Y-86613D02*
G01*
X-2056692Y86615D01*
X-2143307Y-86613D02*
G01*
X-2056692Y-86613D01*
X-2143307Y86615D02*
G01*
X-2056692Y86615D01*
X-2143307Y-49630D02*
G01*
X-2056692Y-49630D01*
X-1343307Y-86613D02*
G01*
X-1343307Y86615D01*
X-1256692Y-86613D02*
G01*
X-1256692Y86615D01*
X-1343307Y-86613D02*
G01*
X-1256692Y-86613D01*
X-1343307Y86615D02*
G01*
X-1256692Y86615D01*
X-1343307Y-49630D02*
G01*
X-1256692Y-49630D01*
X-943307Y-86613D02*
G01*
X-943307Y86615D01*
X-856692Y-86613D02*
G01*
X-856692Y86615D01*
X-943307Y-86613D02*
G01*
X-856692Y-86613D01*
X-943307Y86615D02*
G01*
X-856692Y86615D01*
X-943307Y-49630D02*
G01*
X-856692Y-49630D01*
X-543307Y-86613D02*
G01*
X-543307Y86615D01*
X-456692Y-86613D02*
G01*
X-456692Y86615D01*
X-543307Y-86613D02*
G01*
X-456692Y-86613D01*
X-543307Y86615D02*
G01*
X-456692Y86615D01*
X-543307Y-49630D02*
G01*
X-456692Y-49630D01*
X-143307Y-86613D02*
G01*
X-143307Y86615D01*
X-56692Y-86613D02*
G01*
X-56692Y86615D01*
X-143307Y-86613D02*
G01*
X-56692Y-86613D01*
X-143307Y86615D02*
G01*
X-56692Y86615D01*
X-143307Y-49630D02*
G01*
X-56692Y-49630D01*
X-4418109Y-89540D02*
G01*
X-4418109Y86613D01*
X-4341121Y118110D02*
G01*
X-4258878Y118110D01*
X-4341121Y-118110D02*
G01*
X-4258878Y-118110D01*
X-4181890Y-89540D02*
G01*
X-4181890Y89540D01*
X-4018109Y-89540D02*
G01*
X-4018109Y86613D01*
X-3941121Y118110D02*
G01*
X-3858878Y118110D01*
X-3941121Y-118110D02*
G01*
X-3858878Y-118110D01*
X-3781890Y-89540D02*
G01*
X-3781890Y89540D01*
X-3618109Y-89540D02*
G01*
X-3618109Y86613D01*
X-3541121Y118110D02*
G01*
X-3458878Y118110D01*
X-3541121Y-118110D02*
G01*
X-3458878Y-118110D01*
X-3381890Y-89540D02*
G01*
X-3381890Y89540D01*
X-3218109Y-89540D02*
G01*
X-3218109Y86613D01*
X-3141121Y118110D02*
G01*
X-3058878Y118110D01*
X-3141121Y-118110D02*
G01*
X-3058878Y-118110D01*
X-2981890Y-89540D02*
G01*
X-2981890Y89540D01*
X-2818109Y-89540D02*
G01*
X-2818109Y86613D01*
X-2741121Y118110D02*
G01*
X-2658878Y118110D01*
X-2741121Y-118110D02*
G01*
X-2658878Y-118110D01*
X-2581890Y-89540D02*
G01*
X-2581890Y89540D01*
X-2418109Y-89540D02*
G01*
X-2418109Y86613D01*
X-2341121Y118110D02*
G01*
X-2258878Y118110D01*
X-2341121Y-118110D02*
G01*
X-2258878Y-118110D01*
X-2181890Y-89540D02*
G01*
X-2181890Y89540D01*
X-2018109Y-89540D02*
G01*
X-2018109Y86613D01*
X-1941121Y118110D02*
G01*
X-1858878Y118110D01*
X-1941121Y-118110D02*
G01*
X-1858878Y-118110D01*
X-1781890Y-89540D02*
G01*
X-1781890Y89540D01*
X-1618109Y-89540D02*
G01*
X-1618109Y86613D01*
X-1541121Y118110D02*
G01*
X-1458878Y118110D01*
X-1541121Y-118110D02*
G01*
X-1458878Y-118110D01*
X-1381890Y-89540D02*
G01*
X-1381890Y89540D01*
X-1218109Y-89540D02*
G01*
X-1218109Y86613D01*
X-1141121Y118110D02*
G01*
X-1058878Y118110D01*
X-1141121Y-118110D02*
G01*
X-1058878Y-118110D01*
X-981890Y-89540D02*
G01*
X-981890Y89540D01*
X-818109Y-89540D02*
G01*
X-818109Y86613D01*
X-741121Y118110D02*
G01*
X-658878Y118110D01*
X-741121Y-118110D02*
G01*
X-658878Y-118110D01*
X-581890Y-89540D02*
G01*
X-581890Y89540D01*
X-418109Y-89540D02*
G01*
X-418109Y86613D01*
X-341121Y118110D02*
G01*
X-258878Y118110D01*
X-341121Y-118110D02*
G01*
X-258878Y-118110D01*
X-181890Y-89540D02*
G01*
X-181890Y89540D01*
X-1743307Y-86613D02*
G01*
X-1743307Y86615D01*
X-1656692Y-86613D02*
G01*
X-1656692Y86615D01*
X-1743307Y-86613D02*
G01*
X-1656692Y-86613D01*
X-1743307Y86615D02*
G01*
X-1656692Y86615D01*
X-1743307Y-49630D02*
G01*
X-1656692Y-49630D01*
D12*
X-3518747Y326105D02*
G01*
X-3569336Y326105D01*
X-3569336Y253894D01*
X-3518747Y253894D01*
X-3481252Y326105D02*
G01*
X-3430663Y326105D01*
X-3430663Y253894D01*
X-3481252Y253894D01*
X-3281252Y253894D02*
G01*
X-3230663Y253894D01*
X-3230663Y326105D01*
X-3281252Y326105D01*
X-3318747Y253894D02*
G01*
X-3369336Y253894D01*
X-3369336Y326105D01*
X-3318747Y326105D01*
D13*
G75*
G01
X-4672400Y-2001800D02*
G03X-4672400Y-2001800I-29500J0D01*
G75*
G01
X-4633000Y-2001800D02*
G03X-4633000Y-2001800I-68900J0D01*
G75*
G01
X-4272400Y-2001800D02*
G03X-4272400Y-2001800I-29500J0D01*
G75*
G01
X-4233000Y-2001800D02*
G03X-4233000Y-2001800I-68900J0D01*
G75*
G01
X-3872400Y-2001800D02*
G03X-3872400Y-2001800I-29500J0D01*
G75*
G01
X-3833000Y-2001800D02*
G03X-3833000Y-2001800I-68900J0D01*
G75*
G01
X-3472400Y-2001800D02*
G03X-3472400Y-2001800I-29500J0D01*
G75*
G01
X-3433000Y-2001800D02*
G03X-3433000Y-2001800I-68900J0D01*
G75*
G01
X-3072400Y-2001800D02*
G03X-3072400Y-2001800I-29500J0D01*
G75*
G01
X-3033000Y-2001800D02*
G03X-3033000Y-2001800I-68900J0D01*
G75*
G01
X-2672400Y-2001800D02*
G03X-2672400Y-2001800I-29500J0D01*
G75*
G01
X-2633000Y-2001800D02*
G03X-2633000Y-2001800I-68900J0D01*
G75*
G01
X-2272400Y-2001800D02*
G03X-2272400Y-2001800I-29500J0D01*
G75*
G01
X-2233000Y-2001800D02*
G03X-2233000Y-2001800I-68900J0D01*
G75*
G01
X-1872400Y-2001800D02*
G03X-1872400Y-2001800I-29500J0D01*
G75*
G01
X-1833000Y-2001800D02*
G03X-1833000Y-2001800I-68900J0D01*
G75*
G01
X-1472400Y-2001800D02*
G03X-1472400Y-2001800I-29500J0D01*
G75*
G01
X-1433000Y-2001800D02*
G03X-1433000Y-2001800I-68900J0D01*
G75*
G01
X-1072400Y-2001800D02*
G03X-1072400Y-2001800I-29500J0D01*
G75*
G01
X-1033000Y-2001800D02*
G03X-1033000Y-2001800I-68900J0D01*
G75*
G01
X-672400Y-2001800D02*
G03X-672400Y-2001800I-29500J0D01*
G75*
G01
X-633000Y-2001800D02*
G03X-633000Y-2001800I-68900J0D01*
G75*
G01
X-272400Y-2001800D02*
G03X-272400Y-2001800I-29500J0D01*
G75*
G01
X-233000Y-2001800D02*
G03X-233000Y-2001800I-68900J0D01*
G75*
G01
X-4672400Y-501800D02*
G03X-4672400Y-501800I-29500J0D01*
G75*
G01
X-4633000Y-501800D02*
G03X-4633000Y-501800I-68900J0D01*
G75*
G01
X-4272400Y-501800D02*
G03X-4272400Y-501800I-29500J0D01*
G75*
G01
X-4233000Y-501800D02*
G03X-4233000Y-501800I-68900J0D01*
G75*
G01
X-3872400Y-501800D02*
G03X-3872400Y-501800I-29500J0D01*
G75*
G01
X-3833000Y-501800D02*
G03X-3833000Y-501800I-68900J0D01*
G75*
G01
X-3472400Y-501800D02*
G03X-3472400Y-501800I-29500J0D01*
G75*
G01
X-3433000Y-501800D02*
G03X-3433000Y-501800I-68900J0D01*
G75*
G01
X-3072400Y-501800D02*
G03X-3072400Y-501800I-29500J0D01*
G75*
G01
X-3033000Y-501800D02*
G03X-3033000Y-501800I-68900J0D01*
G75*
G01
X-2672400Y-501800D02*
G03X-2672400Y-501800I-29500J0D01*
G75*
G01
X-2633000Y-501800D02*
G03X-2633000Y-501800I-68900J0D01*
G75*
G01
X-2272400Y-501800D02*
G03X-2272400Y-501800I-29500J0D01*
G75*
G01
X-2233000Y-501800D02*
G03X-2233000Y-501800I-68900J0D01*
G75*
G01
X-1872400Y-501800D02*
G03X-1872400Y-501800I-29500J0D01*
G75*
G01
X-1833000Y-501800D02*
G03X-1833000Y-501800I-68900J0D01*
G75*
G01
X-1472400Y-501800D02*
G03X-1472400Y-501800I-29500J0D01*
G75*
G01
X-1433000Y-501800D02*
G03X-1433000Y-501800I-68900J0D01*
G75*
G01
X-1072400Y-501800D02*
G03X-1072400Y-501800I-29500J0D01*
G75*
G01
X-1033000Y-501800D02*
G03X-1033000Y-501800I-68900J0D01*
G75*
G01
X-672400Y-501800D02*
G03X-672400Y-501800I-29500J0D01*
G75*
G01
X-633000Y-501800D02*
G03X-633000Y-501800I-68900J0D01*
G75*
G01
X-272400Y-501800D02*
G03X-272400Y-501800I-29500J0D01*
G75*
G01
X-233000Y-501800D02*
G03X-233000Y-501800I-68900J0D01*
G75*
G01
X-4672400Y-1001800D02*
G03X-4672400Y-1001800I-29500J0D01*
G75*
G01
X-4633000Y-1001800D02*
G03X-4633000Y-1001800I-68900J0D01*
G75*
G01
X-4272400Y-1001800D02*
G03X-4272400Y-1001800I-29500J0D01*
G75*
G01
X-4233000Y-1001800D02*
G03X-4233000Y-1001800I-68900J0D01*
G75*
G01
X-3872400Y-1001800D02*
G03X-3872400Y-1001800I-29500J0D01*
G75*
G01
X-3833000Y-1001800D02*
G03X-3833000Y-1001800I-68900J0D01*
G75*
G01
X-3472400Y-1001800D02*
G03X-3472400Y-1001800I-29500J0D01*
G75*
G01
X-3433000Y-1001800D02*
G03X-3433000Y-1001800I-68900J0D01*
G75*
G01
X-3072400Y-1001800D02*
G03X-3072400Y-1001800I-29500J0D01*
G75*
G01
X-3033000Y-1001800D02*
G03X-3033000Y-1001800I-68900J0D01*
G75*
G01
X-2672400Y-1001800D02*
G03X-2672400Y-1001800I-29500J0D01*
G75*
G01
X-2633000Y-1001800D02*
G03X-2633000Y-1001800I-68900J0D01*
G75*
G01
X-2272400Y-1001800D02*
G03X-2272400Y-1001800I-29500J0D01*
G75*
G01
X-2233000Y-1001800D02*
G03X-2233000Y-1001800I-68900J0D01*
G75*
G01
X-1872400Y-1001800D02*
G03X-1872400Y-1001800I-29500J0D01*
G75*
G01
X-1833000Y-1001800D02*
G03X-1833000Y-1001800I-68900J0D01*
G75*
G01
X-1472400Y-1001800D02*
G03X-1472400Y-1001800I-29500J0D01*
G75*
G01
X-1433000Y-1001800D02*
G03X-1433000Y-1001800I-68900J0D01*
G75*
G01
X-1072400Y-1001800D02*
G03X-1072400Y-1001800I-29500J0D01*
G75*
G01
X-1033000Y-1001800D02*
G03X-1033000Y-1001800I-68900J0D01*
G75*
G01
X-672400Y-1001800D02*
G03X-672400Y-1001800I-29500J0D01*
G75*
G01
X-633000Y-1001800D02*
G03X-633000Y-1001800I-68900J0D01*
G75*
G01
X-272400Y-1001800D02*
G03X-272400Y-1001800I-29500J0D01*
G75*
G01
X-233000Y-1001800D02*
G03X-233000Y-1001800I-68900J0D01*
G75*
G01
X-4672400Y-1501800D02*
G03X-4672400Y-1501800I-29500J0D01*
G75*
G01
X-4633000Y-1501800D02*
G03X-4633000Y-1501800I-68900J0D01*
G75*
G01
X-4272400Y-1501800D02*
G03X-4272400Y-1501800I-29500J0D01*
G75*
G01
X-4233000Y-1501800D02*
G03X-4233000Y-1501800I-68900J0D01*
G75*
G01
X-3872400Y-1501800D02*
G03X-3872400Y-1501800I-29500J0D01*
G75*
G01
X-3833000Y-1501800D02*
G03X-3833000Y-1501800I-68900J0D01*
G75*
G01
X-3472400Y-1501800D02*
G03X-3472400Y-1501800I-29500J0D01*
G75*
G01
X-3433000Y-1501800D02*
G03X-3433000Y-1501800I-68900J0D01*
G75*
G01
X-3072400Y-1501800D02*
G03X-3072400Y-1501800I-29500J0D01*
G75*
G01
X-3033000Y-1501800D02*
G03X-3033000Y-1501800I-68900J0D01*
G75*
G01
X-2672400Y-1501800D02*
G03X-2672400Y-1501800I-29500J0D01*
G75*
G01
X-2633000Y-1501800D02*
G03X-2633000Y-1501800I-68900J0D01*
G75*
G01
X-2272400Y-1501800D02*
G03X-2272400Y-1501800I-29500J0D01*
G75*
G01
X-2233000Y-1501800D02*
G03X-2233000Y-1501800I-68900J0D01*
G75*
G01
X-1872400Y-1501800D02*
G03X-1872400Y-1501800I-29500J0D01*
G75*
G01
X-1833000Y-1501800D02*
G03X-1833000Y-1501800I-68900J0D01*
G75*
G01
X-1472400Y-1501800D02*
G03X-1472400Y-1501800I-29500J0D01*
G75*
G01
X-1433000Y-1501800D02*
G03X-1433000Y-1501800I-68900J0D01*
G75*
G01
X-1072400Y-1501800D02*
G03X-1072400Y-1501800I-29500J0D01*
G75*
G01
X-1033000Y-1501800D02*
G03X-1033000Y-1501800I-68900J0D01*
G75*
G01
X-672400Y-1501800D02*
G03X-672400Y-1501800I-29500J0D01*
G75*
G01
X-633000Y-1501800D02*
G03X-633000Y-1501800I-68900J0D01*
G75*
G01
X-272400Y-1501800D02*
G03X-272400Y-1501800I-29500J0D01*
G75*
G01
X-233000Y-1501800D02*
G03X-233000Y-1501800I-68900J0D01*
G75*
G01
X-4672400Y-1800D02*
G03X-4672400Y-1800I-29500J0D01*
G75*
G01
X-4633000Y-1800D02*
G03X-4633000Y-1800I-68900J0D01*
G75*
G01
X-4272400Y-1800D02*
G03X-4272400Y-1800I-29500J0D01*
G75*
G01
X-4233000Y-1800D02*
G03X-4233000Y-1800I-68900J0D01*
G75*
G01
X-3872400Y-1800D02*
G03X-3872400Y-1800I-29500J0D01*
G75*
G01
X-3833000Y-1800D02*
G03X-3833000Y-1800I-68900J0D01*
G75*
G01
X-3472400Y-1800D02*
G03X-3472400Y-1800I-29500J0D01*
G75*
G01
X-3433000Y-1800D02*
G03X-3433000Y-1800I-68900J0D01*
G75*
G01
X-3072400Y-1800D02*
G03X-3072400Y-1800I-29500J0D01*
G75*
G01
X-3033000Y-1800D02*
G03X-3033000Y-1800I-68900J0D01*
G75*
G01
X-2672400Y-1800D02*
G03X-2672400Y-1800I-29500J0D01*
G75*
G01
X-2633000Y-1800D02*
G03X-2633000Y-1800I-68900J0D01*
G75*
G01
X-2272400Y-1800D02*
G03X-2272400Y-1800I-29500J0D01*
G75*
G01
X-2233000Y-1800D02*
G03X-2233000Y-1800I-68900J0D01*
G75*
G01
X-1872400Y-1800D02*
G03X-1872400Y-1800I-29500J0D01*
G75*
G01
X-1833000Y-1800D02*
G03X-1833000Y-1800I-68900J0D01*
G75*
G01
X-1472400Y-1800D02*
G03X-1472400Y-1800I-29500J0D01*
G75*
G01
X-1433000Y-1800D02*
G03X-1433000Y-1800I-68900J0D01*
G75*
G01
X-1072400Y-1800D02*
G03X-1072400Y-1800I-29500J0D01*
G75*
G01
X-1033000Y-1800D02*
G03X-1033000Y-1800I-68900J0D01*
G75*
G01
X-672400Y-1800D02*
G03X-672400Y-1800I-29500J0D01*
G75*
G01
X-633000Y-1800D02*
G03X-633000Y-1800I-68900J0D01*
G75*
G01
X-272400Y-1800D02*
G03X-272400Y-1800I-29500J0D01*
G75*
G01
X-233000Y-1800D02*
G03X-233000Y-1800I-68900J0D01*
M02*
