G04 Layer: BottomLayer*
G04 EasyEDA v6.5.23, 2023-09-23 11:22:25*
G04 fbaf7024bf8343fa847bd74e200e9744,10*
G04 Gerber Generator version 0.2*
G04 Scale: 100 percent, Rotated: No, Reflected: No *
G04 Dimensions in inches *
G04 leading zeros omitted , absolute positions ,3 integer and 6 decimal *
%FSLAX36Y36*%
%MOIN*%

%ADD10C,0.0100*%
%ADD11C,0.0709*%
%ADD12C,0.0787*%
%ADD13C,0.0690*%
%ADD14R,0.0690X0.0690*%
%ADD15R,0.0170X0.0690*%

%LPD*%
D10*
X-4190000Y890000D02*
G01*
X-3715000Y415000D01*
X-2590000Y415000D01*
X-2100000Y-75000D01*
X-2100000Y-157500D01*
X-4290000Y890000D02*
G01*
X-3780000Y380000D01*
X-2910000Y380000D01*
X-2690000Y160000D01*
X-2690000Y-45000D01*
X-2612479Y-45000D01*
X-2500000Y-157480D01*
X-3690000Y290000D02*
G01*
X-3500000Y290000D01*
X-3150000Y-60000D01*
X-2997479Y-60000D01*
X-2900000Y-157480D01*
X-3790000Y290000D02*
G01*
X-3750000Y250000D01*
X-3750000Y15000D01*
X-3472479Y15000D01*
X-3300000Y-157480D01*
X-3890000Y290000D02*
G01*
X-3890000Y32519D01*
X-3700000Y-157480D01*
X-3990000Y290000D02*
G01*
X-4045000Y235000D01*
X-4045000Y140000D01*
X-4100000Y85000D01*
X-4100000Y-157480D01*
X-4090000Y290000D02*
G01*
X-4200000Y180000D01*
X-4315000Y180000D01*
X-4315000Y27519D01*
X-4500000Y-157480D01*
X-4290000Y290000D02*
G01*
X-4445000Y445000D01*
X-4840000Y445000D01*
X-4840000Y-1576500D01*
X-4788600Y-1627899D01*
X-4788600Y-2127899D02*
G01*
X-4680000Y-2019400D01*
X-4680000Y210000D01*
X-4270000Y210000D01*
X-4190000Y290000D01*
X-4500000Y-157480D02*
G01*
X-4445000Y-212480D01*
X-4445000Y-602480D01*
X-4500000Y-657480D01*
X-4500000Y-657480D02*
G01*
X-4445000Y-712480D01*
X-4445000Y-1102480D01*
X-4500000Y-1157480D01*
X-4500000Y-1157480D02*
G01*
X-4445000Y-1212480D01*
X-4445000Y-1602480D01*
X-4500000Y-1657480D01*
X-4500000Y-1657480D02*
G01*
X-4445000Y-1712480D01*
X-4445000Y-2102480D01*
X-4500000Y-2157480D01*
X-4100000Y-157480D02*
G01*
X-4050000Y-207480D01*
X-4050000Y-607480D01*
X-4100000Y-657480D01*
X-4100000Y-657480D02*
G01*
X-4050000Y-707480D01*
X-4050000Y-1107480D01*
X-4100000Y-1157480D01*
X-4100000Y-1157480D02*
G01*
X-4050000Y-1207480D01*
X-4050000Y-1607480D01*
X-4100000Y-1657480D01*
X-4100000Y-1657480D02*
G01*
X-4050000Y-1707480D01*
X-4050000Y-2107480D01*
X-4100000Y-2157480D01*
X-3700000Y-157480D02*
G01*
X-3650000Y-207480D01*
X-3650000Y-607480D01*
X-3700000Y-657480D01*
X-3700000Y-657480D02*
G01*
X-3650000Y-707480D01*
X-3650000Y-1107480D01*
X-3700000Y-1157480D01*
X-3700000Y-1157480D02*
G01*
X-3650000Y-1207480D01*
X-3650000Y-1607480D01*
X-3700000Y-1657480D01*
X-3700000Y-1657480D02*
G01*
X-3650000Y-1707480D01*
X-3650000Y-2107480D01*
X-3700000Y-2157480D01*
X-3300000Y-157480D02*
G01*
X-3250000Y-207480D01*
X-3250000Y-607480D01*
X-3300000Y-657480D01*
X-3300000Y-657480D02*
G01*
X-3250000Y-707480D01*
X-3250000Y-1107480D01*
X-3300000Y-1157480D01*
X-3300000Y-1157480D02*
G01*
X-3250000Y-1207480D01*
X-3250000Y-1607480D01*
X-3300000Y-1657480D01*
X-3300000Y-1657480D02*
G01*
X-3250000Y-1707480D01*
X-3250000Y-2107480D01*
X-3300000Y-2157480D01*
X-2900000Y-157480D02*
G01*
X-2845000Y-212480D01*
X-2845000Y-602480D01*
X-2900000Y-657480D01*
X-2900000Y-657480D02*
G01*
X-2845000Y-712480D01*
X-2845000Y-1102480D01*
X-2900000Y-1157480D01*
X-2900000Y-1157480D02*
G01*
X-2845000Y-1212480D01*
X-2845000Y-1602480D01*
X-2900000Y-1657480D01*
X-2900000Y-1657480D02*
G01*
X-2845000Y-1712480D01*
X-2845000Y-2102480D01*
X-2900000Y-2157480D01*
X-2500000Y-157480D02*
G01*
X-2445000Y-212480D01*
X-2445000Y-602480D01*
X-2500000Y-657480D01*
X-2500000Y-657480D02*
G01*
X-2445000Y-712480D01*
X-2445000Y-1102480D01*
X-2500000Y-1157480D01*
X-2500000Y-1157480D02*
G01*
X-2445000Y-1212480D01*
X-2445000Y-1602480D01*
X-2500000Y-1657480D01*
X-2500000Y-1657480D02*
G01*
X-2445000Y-1712480D01*
X-2445000Y-2102480D01*
X-2500000Y-2157480D01*
X-2100000Y-157480D02*
G01*
X-2045000Y-212480D01*
X-2045000Y-602480D01*
X-2100000Y-657480D01*
X-2100000Y-657480D02*
G01*
X-2045000Y-712480D01*
X-2045000Y-1102480D01*
X-2100000Y-1157480D01*
X-2100000Y-1157480D02*
G01*
X-2045000Y-1212480D01*
X-2045000Y-1602480D01*
X-2100000Y-1657480D01*
X-2100000Y-1657480D02*
G01*
X-2045000Y-1712480D01*
X-2045000Y-2102480D01*
X-2100000Y-2157480D01*
X-1700000Y-157480D02*
G01*
X-1650000Y-207480D01*
X-1650000Y-607480D01*
X-1700000Y-657480D01*
X-1700000Y-657480D02*
G01*
X-1650000Y-707480D01*
X-1650000Y-1107480D01*
X-1700000Y-1157480D01*
X-1700000Y-1157480D02*
G01*
X-1650000Y-1207480D01*
X-1650000Y-1607480D01*
X-1700000Y-1657480D01*
X-1700000Y-1657480D02*
G01*
X-1650000Y-1707480D01*
X-1650000Y-2107480D01*
X-1700000Y-2157480D01*
X-1300000Y-157480D02*
G01*
X-1245000Y-212480D01*
X-1245000Y-602480D01*
X-1300000Y-657480D01*
X-1300000Y-657480D02*
G01*
X-1245000Y-712480D01*
X-1245000Y-1102480D01*
X-1300000Y-1157480D01*
X-1300000Y-1157480D02*
G01*
X-1245000Y-1212480D01*
X-1245000Y-1602480D01*
X-1300000Y-1657480D01*
X-1300000Y-1657480D02*
G01*
X-1245000Y-1712480D01*
X-1245000Y-2102480D01*
X-1300000Y-2157480D01*
X-900000Y-157480D02*
G01*
X-845000Y-212480D01*
X-845000Y-602480D01*
X-900000Y-657480D01*
X-900000Y-657480D02*
G01*
X-845000Y-712480D01*
X-845000Y-1102480D01*
X-900000Y-1157480D01*
X-900000Y-1157480D02*
G01*
X-845000Y-1212480D01*
X-845000Y-1602480D01*
X-900000Y-1657480D01*
X-900000Y-1657480D02*
G01*
X-845000Y-1712480D01*
X-845000Y-2102480D01*
X-900000Y-2157480D01*
X-500000Y-157480D02*
G01*
X-450000Y-207480D01*
X-450000Y-607480D01*
X-500000Y-657480D01*
X-500000Y-657480D02*
G01*
X-450000Y-707480D01*
X-450000Y-1107480D01*
X-500000Y-1157480D01*
X-500000Y-1157480D02*
G01*
X-450000Y-1207480D01*
X-450000Y-1607480D01*
X-500000Y-1657480D01*
X-500000Y-1657480D02*
G01*
X-450000Y-1707480D01*
X-450000Y-2107480D01*
X-500000Y-2157480D01*
X-100000Y-157480D02*
G01*
X-40000Y-217480D01*
X-40000Y-597480D01*
X-100000Y-657480D01*
X-100000Y-657480D02*
G01*
X-40000Y-717480D01*
X-40000Y-1097480D01*
X-100000Y-1157480D01*
X-100000Y-1157480D02*
G01*
X-40000Y-1217480D01*
X-40000Y-1597480D01*
X-100000Y-1657480D01*
X-100000Y-1657480D02*
G01*
X-40000Y-1717480D01*
X-40000Y-2097480D01*
X-100000Y-2157480D01*
X-4090000Y890000D02*
G01*
X-3640000Y440000D01*
X-2225000Y440000D01*
X-1970000Y185000D01*
X-1935000Y145000D01*
X-1885000Y85000D01*
X-1700000Y-115000D01*
X-1700000Y-157500D01*
X-3990000Y890000D02*
G01*
X-3565000Y465000D01*
X-1850000Y465000D01*
X-1460000Y75000D01*
X-1460000Y2500D01*
X-1300000Y-157500D01*
X-3890000Y890000D02*
G01*
X-3490000Y490000D01*
X-1425000Y490000D01*
X-1100000Y165000D01*
X-1100000Y42500D01*
X-900000Y-157500D01*
X-3790000Y890000D02*
G01*
X-3415000Y515000D01*
X-900000Y515000D01*
X-680000Y295000D01*
X-680000Y20000D01*
X-642500Y-15000D01*
X-500000Y-157500D01*
X-3690000Y890000D02*
G01*
X-3340000Y540000D01*
X-715000Y540000D01*
X-275000Y100000D01*
X-275000Y17500D01*
X-100000Y-157500D01*
X-4390000Y290000D02*
G01*
X-4445000Y235000D01*
X-4720000Y235000D01*
X-4720000Y-1059369D01*
X-4788580Y-1127950D01*
D11*
G01*
X-4500000Y-1842519D03*
G01*
X-4500000Y-2157480D03*
G01*
X-4100000Y-1842519D03*
G01*
X-4100000Y-2157480D03*
G01*
X-3700000Y-1842519D03*
G01*
X-3700000Y-2157480D03*
G01*
X-3300000Y-1842519D03*
G01*
X-3300000Y-2157480D03*
G01*
X-2900000Y-1842519D03*
G01*
X-2900000Y-2157480D03*
G01*
X-2500000Y-1842519D03*
G01*
X-2500000Y-2157480D03*
G01*
X-2100000Y-1842519D03*
G01*
X-2100000Y-2157480D03*
G01*
X-1700000Y-1842519D03*
G01*
X-1700000Y-2157480D03*
G01*
X-1300000Y-1842519D03*
G01*
X-1300000Y-2157480D03*
G01*
X-900000Y-1842519D03*
G01*
X-900000Y-2157480D03*
G01*
X-500000Y-1842519D03*
G01*
X-500000Y-2157480D03*
G01*
X-100000Y-1842519D03*
G01*
X-100000Y-2157480D03*
D12*
G01*
X-4611419Y-2127950D03*
G01*
X-4611419Y-1872049D03*
G01*
X-4788580Y-1872049D03*
G01*
X-4788580Y-2127950D03*
G01*
X-4211419Y-2127950D03*
G01*
X-4211419Y-1872049D03*
G01*
X-4388580Y-1872049D03*
G01*
X-4388580Y-2127950D03*
G01*
X-3811419Y-2127950D03*
G01*
X-3811419Y-1872049D03*
G01*
X-3988580Y-1872049D03*
G01*
X-3988580Y-2127950D03*
G01*
X-3411419Y-2127950D03*
G01*
X-3411419Y-1872049D03*
G01*
X-3588580Y-1872049D03*
G01*
X-3588580Y-2127950D03*
G01*
X-3011419Y-2127950D03*
G01*
X-3011419Y-1872049D03*
G01*
X-3188580Y-1872049D03*
G01*
X-3188580Y-2127950D03*
G01*
X-2611419Y-2127950D03*
G01*
X-2611419Y-1872049D03*
G01*
X-2788580Y-1872049D03*
G01*
X-2788580Y-2127950D03*
G01*
X-2211419Y-2127950D03*
G01*
X-2211419Y-1872049D03*
G01*
X-2388580Y-1872049D03*
G01*
X-2388580Y-2127950D03*
G01*
X-1811419Y-2127950D03*
G01*
X-1811419Y-1872049D03*
G01*
X-1988580Y-1872049D03*
G01*
X-1988580Y-2127950D03*
G01*
X-1411419Y-2127950D03*
G01*
X-1411419Y-1872049D03*
G01*
X-1588580Y-1872049D03*
G01*
X-1588580Y-2127950D03*
G01*
X-1011419Y-2127950D03*
G01*
X-1011419Y-1872049D03*
G01*
X-1188580Y-1872049D03*
G01*
X-1188580Y-2127950D03*
G01*
X-611419Y-2127950D03*
G01*
X-611419Y-1872049D03*
G01*
X-788580Y-1872049D03*
G01*
X-788580Y-2127950D03*
G01*
X-211419Y-2127950D03*
G01*
X-211419Y-1872049D03*
G01*
X-388580Y-1872049D03*
G01*
X-388580Y-2127950D03*
D11*
G01*
X-4500000Y-342519D03*
G01*
X-4500000Y-657480D03*
G01*
X-4100000Y-342519D03*
G01*
X-4100000Y-657480D03*
G01*
X-3700000Y-342519D03*
G01*
X-3700000Y-657480D03*
G01*
X-3300000Y-342519D03*
G01*
X-3300000Y-657480D03*
G01*
X-2900000Y-342519D03*
G01*
X-2900000Y-657480D03*
G01*
X-2500000Y-342519D03*
G01*
X-2500000Y-657480D03*
G01*
X-2100000Y-342519D03*
G01*
X-2100000Y-657480D03*
G01*
X-1700000Y-342519D03*
G01*
X-1700000Y-657480D03*
G01*
X-1300000Y-342519D03*
G01*
X-1300000Y-657480D03*
G01*
X-900000Y-342519D03*
G01*
X-900000Y-657480D03*
G01*
X-500000Y-342519D03*
G01*
X-500000Y-657480D03*
G01*
X-100000Y-342519D03*
G01*
X-100000Y-657480D03*
G01*
X-4500000Y-842519D03*
G01*
X-4500000Y-1157480D03*
G01*
X-4100000Y-842519D03*
G01*
X-4100000Y-1157480D03*
G01*
X-3700000Y-842519D03*
G01*
X-3700000Y-1157480D03*
G01*
X-3300000Y-842519D03*
G01*
X-3300000Y-1157480D03*
G01*
X-2900000Y-842519D03*
G01*
X-2900000Y-1157480D03*
G01*
X-2500000Y-842519D03*
G01*
X-2500000Y-1157480D03*
G01*
X-2100000Y-842519D03*
G01*
X-2100000Y-1157480D03*
G01*
X-1700000Y-842519D03*
G01*
X-1700000Y-1157480D03*
G01*
X-1300000Y-842519D03*
G01*
X-1300000Y-1157480D03*
G01*
X-900000Y-842519D03*
G01*
X-900000Y-1157480D03*
G01*
X-500000Y-842519D03*
G01*
X-500000Y-1157480D03*
G01*
X-100000Y-842519D03*
G01*
X-100000Y-1157480D03*
G01*
X-4500000Y-1342519D03*
G01*
X-4500000Y-1657480D03*
G01*
X-4100000Y-1342519D03*
G01*
X-4100000Y-1657480D03*
G01*
X-3700000Y-1342519D03*
G01*
X-3700000Y-1657480D03*
G01*
X-3300000Y-1342519D03*
G01*
X-3300000Y-1657480D03*
G01*
X-2900000Y-1342519D03*
G01*
X-2900000Y-1657480D03*
G01*
X-2500000Y-1342519D03*
G01*
X-2500000Y-1657480D03*
G01*
X-2100000Y-1342519D03*
G01*
X-2100000Y-1657480D03*
G01*
X-1700000Y-1342519D03*
G01*
X-1700000Y-1657480D03*
G01*
X-1300000Y-1342519D03*
G01*
X-1300000Y-1657480D03*
G01*
X-900000Y-1342519D03*
G01*
X-900000Y-1657480D03*
G01*
X-500000Y-1342519D03*
G01*
X-500000Y-1657480D03*
G01*
X-100000Y-1342519D03*
G01*
X-100000Y-1657480D03*
D12*
G01*
X-4611419Y-627950D03*
G01*
X-4611419Y-372049D03*
G01*
X-4788580Y-372049D03*
G01*
X-4788580Y-627950D03*
G01*
X-4211419Y-627950D03*
G01*
X-4211419Y-372049D03*
G01*
X-4388580Y-372049D03*
G01*
X-4388580Y-627950D03*
G01*
X-3811419Y-627950D03*
G01*
X-3811419Y-372049D03*
G01*
X-3988580Y-372049D03*
G01*
X-3988580Y-627950D03*
G01*
X-3411419Y-627950D03*
G01*
X-3411419Y-372049D03*
G01*
X-3588580Y-372049D03*
G01*
X-3588580Y-627950D03*
G01*
X-3011419Y-627950D03*
G01*
X-3011419Y-372049D03*
G01*
X-3188580Y-372049D03*
G01*
X-3188580Y-627950D03*
G01*
X-2611419Y-627950D03*
G01*
X-2611419Y-372049D03*
G01*
X-2788580Y-372049D03*
G01*
X-2788580Y-627950D03*
G01*
X-2211419Y-627950D03*
G01*
X-2211419Y-372049D03*
G01*
X-2388580Y-372049D03*
G01*
X-2388580Y-627950D03*
G01*
X-1811419Y-627950D03*
G01*
X-1811419Y-372049D03*
G01*
X-1988580Y-372049D03*
G01*
X-1988580Y-627950D03*
G01*
X-1411419Y-627950D03*
G01*
X-1411419Y-372049D03*
G01*
X-1588580Y-372049D03*
G01*
X-1588580Y-627950D03*
G01*
X-1011419Y-627950D03*
G01*
X-1011419Y-372049D03*
G01*
X-1188580Y-372049D03*
G01*
X-1188580Y-627950D03*
G01*
X-611419Y-627950D03*
G01*
X-611419Y-372049D03*
G01*
X-788580Y-372049D03*
G01*
X-788580Y-627950D03*
G01*
X-211419Y-627950D03*
G01*
X-211419Y-372049D03*
G01*
X-388580Y-372049D03*
G01*
X-388580Y-627950D03*
G01*
X-4611419Y-1127950D03*
G01*
X-4611419Y-872049D03*
G01*
X-4788580Y-872049D03*
G01*
X-4788580Y-1127950D03*
G01*
X-4211419Y-1127950D03*
G01*
X-4211419Y-872049D03*
G01*
X-4388580Y-872049D03*
G01*
X-4388580Y-1127950D03*
G01*
X-3811419Y-1127950D03*
G01*
X-3811419Y-872049D03*
G01*
X-3988580Y-872049D03*
G01*
X-3988580Y-1127950D03*
G01*
X-3411419Y-1127950D03*
G01*
X-3411419Y-872049D03*
G01*
X-3588580Y-872049D03*
G01*
X-3588580Y-1127950D03*
G01*
X-3011419Y-1127950D03*
G01*
X-3011419Y-872049D03*
G01*
X-3188580Y-872049D03*
G01*
X-3188580Y-1127950D03*
G01*
X-2611419Y-1127950D03*
G01*
X-2611419Y-872049D03*
G01*
X-2788580Y-872049D03*
G01*
X-2788580Y-1127950D03*
G01*
X-2211419Y-1127950D03*
G01*
X-2211419Y-872049D03*
G01*
X-2388580Y-872049D03*
G01*
X-2388580Y-1127950D03*
G01*
X-1811419Y-1127950D03*
G01*
X-1811419Y-872049D03*
G01*
X-1988580Y-872049D03*
G01*
X-1988580Y-1127950D03*
G01*
X-1411419Y-1127950D03*
G01*
X-1411419Y-872049D03*
G01*
X-1588580Y-872049D03*
G01*
X-1588580Y-1127950D03*
G01*
X-1011419Y-1127950D03*
G01*
X-1011419Y-872049D03*
G01*
X-1188580Y-872049D03*
G01*
X-1188580Y-1127950D03*
G01*
X-611419Y-1127950D03*
G01*
X-611419Y-872049D03*
G01*
X-788580Y-872049D03*
G01*
X-788580Y-1127950D03*
G01*
X-211419Y-1127950D03*
G01*
X-211419Y-872049D03*
G01*
X-388580Y-872049D03*
G01*
X-388580Y-1127950D03*
G01*
X-4611419Y-1627950D03*
G01*
X-4611419Y-1372049D03*
G01*
X-4788580Y-1372049D03*
G01*
X-4788580Y-1627950D03*
G01*
X-4211419Y-1627950D03*
G01*
X-4211419Y-1372049D03*
G01*
X-4388580Y-1372049D03*
G01*
X-4388580Y-1627950D03*
G01*
X-3811419Y-1627950D03*
G01*
X-3811419Y-1372049D03*
G01*
X-3988580Y-1372049D03*
G01*
X-3988580Y-1627950D03*
G01*
X-3411419Y-1627950D03*
G01*
X-3411419Y-1372049D03*
G01*
X-3588580Y-1372049D03*
G01*
X-3588580Y-1627950D03*
G01*
X-3011419Y-1627950D03*
G01*
X-3011419Y-1372049D03*
G01*
X-3188580Y-1372049D03*
G01*
X-3188580Y-1627950D03*
G01*
X-2611419Y-1627950D03*
G01*
X-2611419Y-1372049D03*
G01*
X-2788580Y-1372049D03*
G01*
X-2788580Y-1627950D03*
G01*
X-2211419Y-1627950D03*
G01*
X-2211419Y-1372049D03*
G01*
X-2388580Y-1372049D03*
G01*
X-2388580Y-1627950D03*
G01*
X-1811419Y-1627950D03*
G01*
X-1811419Y-1372049D03*
G01*
X-1988580Y-1372049D03*
G01*
X-1988580Y-1627950D03*
G01*
X-1411419Y-1627950D03*
G01*
X-1411419Y-1372049D03*
G01*
X-1588580Y-1372049D03*
G01*
X-1588580Y-1627950D03*
G01*
X-1011419Y-1627950D03*
G01*
X-1011419Y-1372049D03*
G01*
X-1188580Y-1372049D03*
G01*
X-1188580Y-1627950D03*
G01*
X-611419Y-1627950D03*
G01*
X-611419Y-1372049D03*
G01*
X-788580Y-1372049D03*
G01*
X-788580Y-1627950D03*
G01*
X-211419Y-1627950D03*
G01*
X-211419Y-1372049D03*
G01*
X-388580Y-1372049D03*
G01*
X-388580Y-1627950D03*
D11*
G01*
X-4500000Y157480D03*
G01*
X-4500000Y-157480D03*
D12*
G01*
X-4611419Y-127950D03*
G01*
X-4611419Y127950D03*
G01*
X-4788580Y127950D03*
G01*
X-4788580Y-127950D03*
D13*
G01*
X-4790000Y890000D03*
G01*
X-3690000Y290000D03*
G01*
X-4690000Y890000D03*
G01*
X-4590000Y890000D03*
G01*
X-4490000Y890000D03*
G01*
X-4390000Y890000D03*
G01*
X-4290000Y890000D03*
G01*
X-4190000Y890000D03*
G01*
X-4090000Y890000D03*
G01*
X-3990000Y890000D03*
G01*
X-3890000Y890000D03*
G01*
X-3790000Y890000D03*
G01*
X-3690000Y890000D03*
G01*
X-3790000Y290000D03*
G01*
X-3890000Y290000D03*
G01*
X-3990000Y290000D03*
G01*
X-4090000Y290000D03*
G01*
X-4190000Y290000D03*
G01*
X-4290000Y290000D03*
G01*
X-4390000Y290000D03*
G01*
X-4490000Y290000D03*
G01*
X-4590000Y290000D03*
G01*
X-4690000Y290000D03*
D14*
G01*
X-4790000Y290000D03*
D11*
G01*
X-4100000Y157480D03*
G01*
X-4100000Y-157480D03*
G01*
X-3700000Y157480D03*
G01*
X-3700000Y-157480D03*
G01*
X-3300000Y157480D03*
G01*
X-3300000Y-157480D03*
G01*
X-2900000Y157480D03*
G01*
X-2900000Y-157480D03*
G01*
X-2500000Y157480D03*
G01*
X-2500000Y-157480D03*
G01*
X-2100000Y157480D03*
G01*
X-2100000Y-157480D03*
G01*
X-1300000Y157480D03*
G01*
X-1300000Y-157480D03*
G01*
X-900000Y157480D03*
G01*
X-900000Y-157480D03*
G01*
X-500000Y157480D03*
G01*
X-500000Y-157480D03*
G01*
X-100000Y157480D03*
G01*
X-100000Y-157480D03*
D12*
G01*
X-4211419Y-127950D03*
G01*
X-4211419Y127950D03*
G01*
X-4388580Y127950D03*
G01*
X-4388580Y-127950D03*
G01*
X-3811419Y-127950D03*
G01*
X-3811419Y127950D03*
G01*
X-3988580Y127950D03*
G01*
X-3988580Y-127950D03*
G01*
X-3411419Y-127950D03*
G01*
X-3411419Y127950D03*
G01*
X-3588580Y127950D03*
G01*
X-3588580Y-127950D03*
G01*
X-3011419Y-127950D03*
G01*
X-3011419Y127950D03*
G01*
X-3188580Y127950D03*
G01*
X-3188580Y-127950D03*
G01*
X-2611419Y-127950D03*
G01*
X-2611419Y127950D03*
G01*
X-2788580Y127950D03*
G01*
X-2788580Y-127950D03*
G01*
X-2211419Y-127950D03*
G01*
X-2211419Y127950D03*
G01*
X-2388580Y127950D03*
G01*
X-2388580Y-127950D03*
G01*
X-1811419Y-127950D03*
G01*
X-1811419Y127950D03*
G01*
X-1988580Y127950D03*
G01*
X-1988580Y-127950D03*
G01*
X-1411419Y-127950D03*
G01*
X-1411419Y127950D03*
G01*
X-1588580Y127950D03*
G01*
X-1588580Y-127950D03*
G01*
X-1011419Y-127950D03*
G01*
X-1011419Y127950D03*
G01*
X-1188580Y127950D03*
G01*
X-1188580Y-127950D03*
G01*
X-611419Y-127950D03*
G01*
X-611419Y127950D03*
G01*
X-788580Y127950D03*
G01*
X-788580Y-127950D03*
G01*
X-211419Y-127950D03*
G01*
X-211419Y127950D03*
G01*
X-388580Y127950D03*
G01*
X-388580Y-127950D03*
D11*
G01*
X-1700000Y157480D03*
G01*
X-1700000Y-157480D03*
M02*
